<?xml version="1.0" encoding="utf-8"?>
<!-- Generator: Adobe Illustrator 24.0.0, SVG Export Plug-In . SVG Version: 6.00 Build 0)  -->
<svg version="1.1" id="Layer_1" opacity="0.1" xmlns="http://www.w3.org/2000/svg" xmlns:xlink="http://www.w3.org/1999/xlink"
	 x="0px" y="0px" viewBox="0 0 1920 1080" style="enable-background:new 0 0 1920 1080;" xml:space="preserve">
<style type="text/css">
	.st0{fill:#007CFF;}
</style>
<g id="Layer_2_1_">
</g>
<g id="Layer_1_1_">
	<g>
		<path class="st0" d="M261,381.7c0,1.9-0.7,3.5-2.1,4.9c-1.4,1.3-3.1,2-5,2c-2,0-3.6-0.7-5-2s-2.1-3-2.1-4.9V366
			c0-1.9,0.7-3.5,2.1-4.9c1.4-1.3,3.1-2,5-2c2,0,3.6,0.7,5,2s2.1,3,2.1,4.9V381.7z M256.3,365.9c0-0.7-0.3-1.3-0.8-1.8
			s-1.1-0.7-1.8-0.7s-1.3,0.2-1.8,0.7s-0.7,1.1-0.7,1.8v15.7c0,0.7,0.2,1.3,0.7,1.8s1.1,0.7,1.8,0.7s1.3-0.2,1.8-0.7
			s0.8-1.1,0.8-1.8V365.9z"/>
		<path class="st0" d="M208.9,316c0,1.9-0.7,3.5-2.1,4.9c-1.4,1.3-3.1,2-5,2c-2,0-3.6-0.7-5-2s-2.1-3-2.1-4.9v-15.7
			c0-1.9,0.7-3.5,2.1-4.9c1.4-1.3,3.1-2,5-2c2,0,3.6,0.7,5,2s2.1,3,2.1,4.9V316z M204.3,300.2c0-0.7-0.3-1.3-0.8-1.8
			s-1.1-0.7-1.8-0.7s-1.3,0.2-1.8,0.7s-0.7,1.1-0.7,1.8v15.7c0,0.7,0.2,1.3,0.7,1.8s1.1,0.7,1.8,0.7s1.3-0.2,1.8-0.7
			s0.8-1.1,0.8-1.8V300.2z"/>
		<path class="st0" d="M297,381.7c0,1.9-0.7,3.5-2.1,4.9c-1.4,1.3-3.1,2-5,2c-2,0-3.6-0.7-5-2s-2.1-3-2.1-4.9V366
			c0-1.9,0.7-3.5,2.1-4.9c1.4-1.3,3.1-2,5-2c2,0,3.6,0.7,5,2s2.1,3,2.1,4.9V381.7z M292.4,365.9c0-0.7-0.3-1.3-0.8-1.8
			s-1.1-0.7-1.8-0.7c-0.7,0-1.3,0.2-1.8,0.7s-0.7,1.1-0.7,1.8v15.7c0,0.7,0.2,1.3,0.7,1.8s1.1,0.7,1.8,0.7c0.7,0,1.3-0.2,1.8-0.7
			s0.8-1.1,0.8-1.8V365.9z"/>
		<path class="st0" d="M413.7,111.7V89.5h-3.8v-3c1.1-0.1,2.1-0.5,3.1-1.2s1.7-1.5,2.1-2.4h3.1v28.8H413.7z"/>
		<path class="st0" d="M294.3,269.8c0,1.9-0.7,3.5-2.1,4.9c-1.4,1.3-3.1,2-5,2c-2,0-3.6-0.7-5-2s-2.1-3-2.1-4.9v-15.7
			c0-1.9,0.7-3.5,2.1-4.9c1.4-1.3,3.1-2,5-2c2,0,3.6,0.7,5,2s2.1,3,2.1,4.9V269.8z M289.7,254c0-0.7-0.3-1.3-0.8-1.8
			s-1.1-0.7-1.8-0.7c-0.7,0-1.3,0.2-1.8,0.7s-0.7,1.1-0.7,1.8v15.7c0,0.7,0.2,1.3,0.7,1.8s1.1,0.7,1.8,0.7c0.7,0,1.3-0.2,1.8-0.7
			s0.8-1.1,0.8-1.8V254z"/>
		<path class="st0" d="M334.4,388.3v-22.2h-3.8v-3c1.1-0.1,2.1-0.5,3.1-1.2s1.7-1.5,2.1-2.4h3.1v28.8L334.4,388.3L334.4,388.3z"/>
		<path class="st0" d="M357,381.7c0,1.9-0.7,3.5-2.1,4.9c-1.4,1.3-3.1,2-5,2c-2,0-3.6-0.7-5-2s-2.1-3-2.1-4.9V366
			c0-1.9,0.7-3.5,2.1-4.9c1.4-1.3,3.1-2,5-2c2,0,3.6,0.7,5,2s2.1,3,2.1,4.9V381.7z M352.4,365.9c0-0.7-0.3-1.3-0.8-1.8
			s-1.1-0.7-1.8-0.7c-0.7,0-1.3,0.2-1.8,0.7s-0.7,1.1-0.7,1.8v15.7c0,0.7,0.2,1.3,0.7,1.8s1.1,0.7,1.8,0.7c0.7,0,1.3-0.2,1.8-0.7
			s0.8-1.1,0.8-1.8V365.9z"/>
		<path class="st0" d="M364.4,388.3v-22.2h-3.8v-3c1.1-0.1,2.1-0.5,3.1-1.2s1.7-1.5,2.1-2.4h3.1v28.8L364.4,388.3L364.4,388.3z"/>
		<path class="st0" d="M387,381.7c0,1.9-0.7,3.5-2.1,4.9c-1.4,1.3-3.1,2-5,2c-2,0-3.6-0.7-5-2s-2.1-3-2.1-4.9V366
			c0-1.9,0.7-3.5,2.1-4.9c1.4-1.3,3.1-2,5-2c2,0,3.6,0.7,5,2s2.1,3,2.1,4.9V381.7z M382.3,365.9c0-0.7-0.3-1.3-0.8-1.8
			s-1.1-0.7-1.8-0.7c-0.7,0-1.3,0.2-1.8,0.7s-0.7,1.1-0.7,1.8v15.7c0,0.7,0.2,1.3,0.7,1.8s1.1,0.7,1.8,0.7c0.7,0,1.3-0.2,1.8-0.7
			s0.8-1.1,0.8-1.8V365.9z"/>
		<path class="st0" d="M610.3,328.1v-22.2h-3.8v-3c1.1-0.1,2.1-0.5,3.1-1.2s1.7-1.5,2.1-2.4h3.1v28.8L610.3,328.1L610.3,328.1z"/>
		<path class="st0" d="M417,381.7c0,1.9-0.7,3.5-2.1,4.9c-1.4,1.3-3.1,2-5,2c-2,0-3.6-0.7-5-2s-2.1-3-2.1-4.9V366
			c0-1.9,0.7-3.5,2.1-4.9c1.4-1.3,3.1-2,5-2c2,0,3.6,0.7,5,2s2.1,3,2.1,4.9V381.7z M412.3,365.9c0-0.7-0.3-1.3-0.8-1.8
			s-1.1-0.7-1.8-0.7c-0.7,0-1.3,0.2-1.8,0.7s-0.7,1.1-0.7,1.8v15.7c0,0.7,0.2,1.3,0.7,1.8s1.1,0.7,1.8,0.7c0.7,0,1.3-0.2,1.8-0.7
			s0.8-1.1,0.8-1.8V365.9z"/>
		<path class="st0" d="M424.4,388.3v-22.2h-3.8v-3c1.1-0.1,2.1-0.5,3.1-1.2s1.7-1.5,2.1-2.4h3.1v28.8L424.4,388.3L424.4,388.3z"/>
		<path class="st0" d="M446.9,381.7c0,1.9-0.7,3.5-2.1,4.9c-1.4,1.3-3.1,2-5,2c-2,0-3.6-0.7-5-2s-2.1-3-2.1-4.9V366
			c0-1.9,0.7-3.5,2.1-4.9c1.4-1.3,3.1-2,5-2c2,0,3.6,0.7,5,2s2.1,3,2.1,4.9V381.7z M442.3,365.9c0-0.7-0.3-1.3-0.8-1.8
			s-1.1-0.7-1.8-0.7c-0.7,0-1.3,0.2-1.8,0.7s-0.7,1.1-0.7,1.8v15.7c0,0.7,0.2,1.3,0.7,1.8s1.1,0.7,1.8,0.7c0.7,0,1.3-0.2,1.8-0.7
			s0.8-1.1,0.8-1.8V365.9z"/>
		<path class="st0" d="M383.3,222v-22.2h-3.8v-3c1.1-0.1,2.1-0.5,3.1-1.2s1.7-1.5,2.1-2.4h3.1V222H383.3z"/>
		<path class="st0" d="M476.9,381.7c0,1.9-0.7,3.5-2.1,4.9c-1.4,1.3-3.1,2-5,2c-2,0-3.6-0.7-5-2s-2.1-3-2.1-4.9V366
			c0-1.9,0.7-3.5,2.1-4.9c1.4-1.3,3.1-2,5-2c2,0,3.6,0.7,5,2s2.1,3,2.1,4.9V381.7z M472.3,365.9c0-0.7-0.3-1.3-0.8-1.8
			s-1.1-0.7-1.8-0.7c-0.7,0-1.3,0.2-1.8,0.7s-0.7,1.1-0.7,1.8v15.7c0,0.7,0.2,1.3,0.7,1.8s1.1,0.7,1.8,0.7c0.7,0,1.3-0.2,1.8-0.7
			s0.8-1.1,0.8-1.8V365.9z"/>
		<path class="st0" d="M484.3,388.3v-22.2h-3.8v-3c1.1-0.1,2.1-0.5,3.1-1.2s1.7-1.5,2.1-2.4h3.1v28.8L484.3,388.3L484.3,388.3z"/>
		<path class="st0" d="M506.9,381.7c0,1.9-0.7,3.5-2.1,4.9c-1.4,1.3-3.1,2-5,2c-2,0-3.6-0.7-5-2s-2.1-3-2.1-4.9V366
			c0-1.9,0.7-3.5,2.1-4.9c1.4-1.3,3.1-2,5-2c2,0,3.6,0.7,5,2s2.1,3,2.1,4.9V381.7z M502.3,365.9c0-0.7-0.3-1.3-0.8-1.8
			s-1.1-0.7-1.8-0.7c-0.7,0-1.3,0.2-1.8,0.7s-0.7,1.1-0.7,1.8v15.7c0,0.7,0.2,1.3,0.7,1.8s1.1,0.7,1.8,0.7c0.7,0,1.3-0.2,1.8-0.7
			s0.8-1.1,0.8-1.8V365.9z"/>
		<path class="st0" d="M519.7,328.1v-22.2h-3.8v-3c1.1-0.1,2.1-0.5,3.1-1.2s1.7-1.5,2.1-2.4h3.1v28.8L519.7,328.1L519.7,328.1z"/>
		<path class="st0" d="M536.9,381.7c0,1.9-0.7,3.5-2.1,4.9c-1.4,1.3-3.1,2-5,2c-2,0-3.6-0.7-5-2s-2.1-3-2.1-4.9V366
			c0-1.9,0.7-3.5,2.1-4.9c1.4-1.3,3.1-2,5-2c2,0,3.6,0.7,5,2s2.1,3,2.1,4.9V381.7z M532.2,365.9c0-0.7-0.3-1.3-0.8-1.8
			s-1.1-0.7-1.8-0.7s-1.3,0.2-1.8,0.7s-0.7,1.1-0.7,1.8v15.7c0,0.7,0.2,1.3,0.7,1.8s1.1,0.7,1.8,0.7s1.3-0.2,1.8-0.7
			s0.8-1.1,0.8-1.8V365.9z"/>
		<path class="st0" d="M521.1,162.8v-22.2h-3.8v-3c1.1-0.1,2.1-0.5,3.1-1.2s1.7-1.5,2.1-2.4h3.1v28.8L521.1,162.8L521.1,162.8z"/>
		<path class="st0" d="M646.9,67.8V45.7h-3.8v-3c1.1-0.1,2.1-0.5,3.1-1.2s1.7-1.5,2.1-2.4h3.1v28.8L646.9,67.8L646.9,67.8z"/>
		<path class="st0" d="M488.8,262.3c0,1.9-0.7,3.5-2.1,4.9c-1.4,1.3-3.1,2-5,2c-2,0-3.6-0.7-5-2s-2.1-3-2.1-4.9v-15.7
			c0-1.9,0.7-3.5,2.1-4.9c1.4-1.3,3.1-2,5-2c2,0,3.6,0.7,5,2s2.1,3,2.1,4.9V262.3z M484.2,246.5c0-0.7-0.3-1.3-0.8-1.8
			s-1.1-0.7-1.8-0.7c-0.7,0-1.3,0.2-1.8,0.7s-0.7,1.1-0.7,1.8v15.7c0,0.7,0.2,1.3,0.7,1.8s1.1,0.7,1.8,0.7c0.7,0,1.3-0.2,1.8-0.7
			s0.8-1.1,0.8-1.8V246.5z"/>
		<path class="st0" d="M584.9,381.7c0,1.9-0.7,3.5-2.1,4.9c-1.4,1.3-3.1,2-5,2c-2,0-3.6-0.7-5-2s-2.1-3-2.1-4.9V366
			c0-1.9,0.7-3.5,2.1-4.9c1.4-1.3,3.1-2,5-2c2,0,3.6,0.7,5,2s2.1,3,2.1,4.9V381.7z M580.3,365.9c0-0.7-0.3-1.3-0.8-1.8
			s-1.1-0.7-1.8-0.7s-1.3,0.2-1.8,0.7s-0.7,1.1-0.7,1.8v15.7c0,0.7,0.2,1.3,0.7,1.8s1.1,0.7,1.8,0.7s1.3-0.2,1.8-0.7
			s0.8-1.1,0.8-1.8V365.9z"/>
		<path class="st0" d="M602.9,381.7c0,1.9-0.7,3.5-2.1,4.9c-1.4,1.3-3.1,2-5,2c-2,0-3.6-0.7-5-2s-2.1-3-2.1-4.9V366
			c0-1.9,0.7-3.5,2.1-4.9c1.4-1.3,3.1-2,5-2c2,0,3.6,0.7,5,2s2.1,3,2.1,4.9V381.7z M598.3,365.9c0-0.7-0.3-1.3-0.8-1.8
			s-1.1-0.7-1.8-0.7s-1.3,0.2-1.8,0.7s-0.7,1.1-0.7,1.8v15.7c0,0.7,0.2,1.3,0.7,1.8s1.1,0.7,1.8,0.7s1.3-0.2,1.8-0.7
			s0.8-1.1,0.8-1.8V365.9z"/>
		<path class="st0" d="M620.9,381.7c0,1.9-0.7,3.5-2.1,4.9c-1.4,1.3-3.1,2-5,2c-2,0-3.6-0.7-5-2s-2.1-3-2.1-4.9V366
			c0-1.9,0.7-3.5,2.1-4.9c1.4-1.3,3.1-2,5-2c2,0,3.6,0.7,5,2s2.1,3,2.1,4.9V381.7z M616.3,365.9c0-0.7-0.3-1.3-0.8-1.8
			s-1.1-0.7-1.8-0.7s-1.3,0.2-1.8,0.7s-0.7,1.1-0.7,1.8v15.7c0,0.7,0.2,1.3,0.7,1.8s1.1,0.7,1.8,0.7s1.3-0.2,1.8-0.7
			s0.8-1.1,0.8-1.8V365.9z"/>
		<path class="st0" d="M651.9,201c0,1.9-0.7,3.5-2.1,4.9c-1.4,1.3-3.1,2-5,2c-2,0-3.6-0.7-5-2s-2.1-3-2.1-4.9v-15.7
			c0-1.9,0.7-3.5,2.1-4.9c1.4-1.3,3.1-2,5-2c2,0,3.6,0.7,5,2s2.1,3,2.1,4.9V201z M647.2,185.2c0-0.7-0.3-1.3-0.8-1.8
			s-1.1-0.7-1.8-0.7s-1.3,0.2-1.8,0.7s-0.7,1.1-0.7,1.8V201c0,0.7,0.2,1.3,0.7,1.8s1.1,0.7,1.8,0.7s1.3-0.2,1.8-0.7s0.8-1.1,0.8-1.8
			V185.2z"/>
		<path class="st0" d="M657,381.7c0,1.9-0.7,3.5-2.1,4.9c-1.4,1.3-3.1,2-5,2c-2,0-3.6-0.7-5-2s-2.1-3-2.1-4.9V366
			c0-1.9,0.7-3.5,2.1-4.9c1.4-1.3,3.1-2,5-2c2,0,3.6,0.7,5,2s2.1,3,2.1,4.9V381.7z M652.3,365.9c0-0.7-0.3-1.3-0.8-1.8
			s-1.1-0.7-1.8-0.7s-1.3,0.2-1.8,0.7s-0.7,1.1-0.7,1.8v15.7c0,0.7,0.2,1.3,0.7,1.8s1.1,0.7,1.8,0.7s1.3-0.2,1.8-0.7
			s0.8-1.1,0.8-1.8V365.9z"/>
		<path class="st0" d="M612.1,255.1c0,1.9-0.7,3.5-2.1,4.9c-1.4,1.3-3.1,2-5,2c-2,0-3.6-0.7-5-2s-2.1-3-2.1-4.9v-15.7
			c0-1.9,0.7-3.5,2.1-4.9c1.4-1.3,3.1-2,5-2c2,0,3.6,0.7,5,2s2.1,3,2.1,4.9V255.1z M607.5,239.3c0-0.7-0.3-1.3-0.8-1.8
			s-1.1-0.7-1.8-0.7s-1.3,0.2-1.8,0.7s-0.7,1.1-0.7,1.8V255c0,0.7,0.2,1.3,0.7,1.8s1.1,0.7,1.8,0.7s1.3-0.2,1.8-0.7s0.8-1.1,0.8-1.8
			V239.3z"/>
		<path class="st0" d="M682.4,388.3v-22.2h-3.8v-3c1.1-0.1,2.1-0.5,3.1-1.2s1.7-1.5,2.1-2.4h3.1v28.8L682.4,388.3L682.4,388.3z"/>
		<path class="st0" d="M694.3,388.3v-22.2h-3.8v-3c1.1-0.1,2.1-0.5,3.1-1.2s1.7-1.5,2.1-2.4h3.1v28.8L694.3,388.3L694.3,388.3z"/>
		<path class="st0" d="M706.3,388.3v-22.2h-3.8v-3c1.1-0.1,2.1-0.5,3.1-1.2s1.7-1.5,2.1-2.4h3.1v28.8L706.3,388.3L706.3,388.3z"/>
		<path class="st0" d="M714.8,268.8v-22.2H711v-3c1.1-0.1,2.1-0.5,3.1-1.2s1.7-1.5,2.1-2.4h3.1v28.8H714.8z"/>
		<path class="st0" d="M730.2,388.3v-22.2h-3.8v-3c1.1-0.1,2.1-0.5,3.1-1.2s1.7-1.5,2.1-2.4h3.1v28.8L730.2,388.3L730.2,388.3z"/>
		<path class="st0" d="M742.1,388.3v-22.2h-3.8v-3c1.1-0.1,2.1-0.5,3.1-1.2s1.7-1.5,2.1-2.4h3.1v28.8L742.1,388.3L742.1,388.3z"/>
		<path class="st0" d="M811.5,301.2c0,1.9-0.7,3.5-2.1,4.9c-1.4,1.3-3.1,2-5,2c-2,0-3.6-0.7-5-2s-2.1-3-2.1-4.9v-15.7
			c0-1.9,0.7-3.5,2.1-4.9c1.4-1.3,3.1-2,5-2c2,0,3.6,0.7,5,2s2.1,3,2.1,4.9V301.2z M806.8,285.4c0-0.7-0.3-1.3-0.8-1.8
			s-1.1-0.7-1.8-0.7s-1.3,0.2-1.8,0.7s-0.7,1.1-0.7,1.8v15.7c0,0.7,0.2,1.3,0.7,1.8s1.1,0.7,1.8,0.7s1.3-0.2,1.8-0.7
			s0.8-1.1,0.8-1.8V285.4z"/>
		<path class="st0" d="M782.7,381.7c0,1.9-0.7,3.5-2.1,4.9c-1.4,1.3-3.1,2-5,2c-2,0-3.6-0.7-5-2s-2.1-3-2.1-4.9V366
			c0-1.9,0.7-3.5,2.1-4.9c1.4-1.3,3.1-2,5-2c2,0,3.6,0.7,5,2s2.1,3,2.1,4.9V381.7z M778.1,365.9c0-0.7-0.3-1.3-0.8-1.8
			s-1.1-0.7-1.8-0.7s-1.3,0.2-1.8,0.7s-0.7,1.1-0.7,1.8v15.7c0,0.7,0.2,1.3,0.7,1.8s1.1,0.7,1.8,0.7s1.3-0.2,1.8-0.7
			s0.8-1.1,0.8-1.8V365.9z"/>
		<path class="st0" d="M790.1,388.3v-22.2h-3.8v-3c1.1-0.1,2.1-0.5,3.1-1.2s1.7-1.5,2.1-2.4h3.1v28.8L790.1,388.3L790.1,388.3z"/>
		<path class="st0" d="M103.8,1026.1V1004H100v-3c1.1-0.1,2.1-0.5,3.1-1.2s1.7-1.5,2.1-2.4h3.1v28.8L103.8,1026.1L103.8,1026.1z"/>
		<path class="st0" d="M115.8,1026.1V1004H112v-3c1.1-0.1,2.1-0.5,3.1-1.2s1.7-1.5,2.1-2.4h3.1v28.8L115.8,1026.1L115.8,1026.1z"/>
		<path class="st0" d="M156.4,1019.6c0,1.9-0.7,3.5-2.1,4.9c-1.4,1.3-3.1,2-5,2c-2,0-3.6-0.7-5-2c-1.4-1.3-2.1-3-2.1-4.9v-15.7
			c0-1.9,0.7-3.5,2.1-4.9c1.4-1.3,3.1-2,5-2c2,0,3.6,0.7,5,2s2.1,3,2.1,4.9V1019.6z M151.7,1003.8c0-0.7-0.3-1.3-0.8-1.8
			s-1.1-0.7-1.8-0.7s-1.3,0.2-1.8,0.7s-0.7,1.1-0.7,1.8v15.7c0,0.7,0.2,1.3,0.7,1.8s1.1,0.7,1.8,0.7s1.3-0.2,1.8-0.7
			s0.8-1.1,0.8-1.8V1003.8z"/>
		<path class="st0" d="M163.8,1026.1V1004H160v-3c1.1-0.1,2.1-0.5,3.1-1.2s1.7-1.5,2.1-2.4h3.1v28.8L163.8,1026.1L163.8,1026.1z"/>
		<path class="st0" d="M856.9,240.4c0,1.9-0.7,3.5-2.1,4.9c-1.4,1.3-3.1,2-5,2c-2,0-3.6-0.7-5-2s-2.1-3-2.1-4.9v-15.7
			c0-1.9,0.7-3.5,2.1-4.9c1.4-1.3,3.1-2,5-2c2,0,3.6,0.7,5,2s2.1,3,2.1,4.9V240.4z M852.3,224.6c0-0.7-0.3-1.3-0.8-1.8
			s-1.1-0.7-1.8-0.7s-1.3,0.2-1.8,0.7s-0.7,1.1-0.7,1.8v15.7c0,0.7,0.2,1.3,0.7,1.8s1.1,0.7,1.8,0.7s1.3-0.2,1.8-0.7
			s0.8-1.1,0.8-1.8V224.6z"/>
		<path class="st0" d="M133.8,406v-22.2H130v-3c1.1-0.1,2.1-0.5,3.1-1.2s1.7-1.5,2.1-2.4h3.1V406H133.8z"/>
		<path class="st0" d="M89.9,362.4c0,1.9-0.7,3.5-2.1,4.9c-1.4,1.3-3.1,2-5,2c-2,0-3.6-0.7-5-2s-2.1-3-2.1-4.9v-15.7
			c0-1.9,0.7-3.5,2.1-4.9c1.4-1.3,3.1-2,5-2c2,0,3.6,0.7,5,2s2.1,3,2.1,4.9V362.4z M85.3,346.6c0-0.7-0.3-1.3-0.8-1.8
			s-1.1-0.7-1.8-0.7c-0.7,0-1.3,0.2-1.8,0.7s-0.7,1.1-0.7,1.8v15.7c0,0.7,0.2,1.3,0.7,1.8s1.1,0.7,1.8,0.7c0.7,0,1.3-0.2,1.8-0.7
			s0.8-1.1,0.8-1.8V346.6z"/>
		<path class="st0" d="M291.2,551.7c0,1.9-0.7,3.5-2.1,4.9c-1.4,1.3-3.1,2-5,2c-2,0-3.6-0.7-5-2s-2.1-3-2.1-4.9V536
			c0-1.9,0.7-3.5,2.1-4.9s3.1-2,5-2c2,0,3.6,0.7,5,2s2.1,3,2.1,4.9V551.7z M286.6,535.9c0-0.7-0.3-1.3-0.8-1.8s-1.1-0.7-1.8-0.7
			c-0.7,0-1.3,0.2-1.8,0.7s-0.7,1.1-0.7,1.8v15.7c0,0.7,0.2,1.3,0.7,1.8s1.1,0.7,1.8,0.7c0.7,0,1.3-0.2,1.8-0.7s0.8-1.1,0.8-1.8
			V535.9z"/>
		<path class="st0" d="M309.2,551.7c0,1.9-0.7,3.5-2.1,4.9c-1.4,1.3-3.1,2-5,2c-2,0-3.6-0.7-5-2s-2.1-3-2.1-4.9V536
			c0-1.9,0.7-3.5,2.1-4.9s3.1-2,5-2c2,0,3.6,0.7,5,2s2.1,3,2.1,4.9V551.7z M304.6,535.9c0-0.7-0.3-1.3-0.8-1.8s-1.1-0.7-1.8-0.7
			c-0.7,0-1.3,0.2-1.8,0.7s-0.7,1.1-0.7,1.8v15.7c0,0.7,0.2,1.3,0.7,1.8s1.1,0.7,1.8,0.7c0.7,0,1.3-0.2,1.8-0.7s0.8-1.1,0.8-1.8
			V535.9z"/>
		<path class="st0" d="M316.6,558.2V536h-3.8v-3c1.1-0.1,2.1-0.5,3.1-1.2s1.7-1.5,2.1-2.4h3.1v28.8L316.6,558.2L316.6,558.2z"/>
		<path class="st0" d="M339.2,551.7c0,1.9-0.7,3.5-2.1,4.9c-1.4,1.3-3.1,2-5,2c-2,0-3.6-0.7-5-2s-2.1-3-2.1-4.9V536
			c0-1.9,0.7-3.5,2.1-4.9s3.1-2,5-2c2,0,3.6,0.7,5,2s2.1,3,2.1,4.9V551.7z M334.6,535.9c0-0.7-0.3-1.3-0.8-1.8s-1.1-0.7-1.8-0.7
			c-0.7,0-1.3,0.2-1.8,0.7s-0.7,1.1-0.7,1.8v15.7c0,0.7,0.2,1.3,0.7,1.8s1.1,0.7,1.8,0.7c0.7,0,1.3-0.2,1.8-0.7s0.8-1.1,0.8-1.8
			V535.9z"/>
		<path class="st0" d="M346.6,558.2V536h-3.8v-3c1.1-0.1,2.1-0.5,3.1-1.2s1.7-1.5,2.1-2.4h3.1v28.8L346.6,558.2L346.6,558.2z"/>
		<path class="st0" d="M369.2,551.7c0,1.9-0.7,3.5-2.1,4.9c-1.4,1.3-3.1,2-5,2c-2,0-3.6-0.7-5-2s-2.1-3-2.1-4.9V536
			c0-1.9,0.7-3.5,2.1-4.9c1.4-1.3,3.1-2,5-2c2,0,3.6,0.7,5,2s2.1,3,2.1,4.9V551.7z M364.6,535.9c0-0.7-0.3-1.3-0.8-1.8
			s-1.1-0.7-1.8-0.7c-0.7,0-1.3,0.2-1.8,0.7s-0.7,1.1-0.7,1.8v15.7c0,0.7,0.2,1.3,0.7,1.8s1.1,0.7,1.8,0.7c0.7,0,1.3-0.2,1.8-0.7
			s0.8-1.1,0.8-1.8V535.9z"/>
		<path class="st0" d="M376.6,558.2V536h-3.8v-3c1.1-0.1,2.1-0.5,3.1-1.2s1.7-1.5,2.1-2.4h3.1v28.8L376.6,558.2L376.6,558.2z"/>
		<path class="st0" d="M399.2,551.7c0,1.9-0.7,3.5-2.1,4.9c-1.4,1.3-3.1,2-5,2c-2,0-3.6-0.7-5-2s-2.1-3-2.1-4.9V536
			c0-1.9,0.7-3.5,2.1-4.9s3.1-2,5-2c2,0,3.6,0.7,5,2s2.1,3,2.1,4.9V551.7z M394.5,535.9c0-0.7-0.3-1.3-0.8-1.8s-1.1-0.7-1.8-0.7
			c-0.7,0-1.3,0.2-1.8,0.7s-0.7,1.1-0.7,1.8v15.7c0,0.7,0.2,1.3,0.7,1.8s1.1,0.7,1.8,0.7c0.7,0,1.3-0.2,1.8-0.7s0.8-1.1,0.8-1.8
			V535.9z"/>
		<path class="st0" d="M939.3,476.4v-22.2h-3.8v-3c1.1-0.1,2.1-0.5,3.1-1.2s1.7-1.5,2.1-2.4h3.1v28.8L939.3,476.4L939.3,476.4z"/>
		<path class="st0" d="M961.9,469.9c0,1.9-0.7,3.5-2.1,4.9c-1.4,1.3-3.1,2-5,2c-2,0-3.6-0.7-5-2s-2.1-3-2.1-4.9v-15.7
			c0-1.9,0.7-3.5,2.1-4.9s3.1-2,5-2c2,0,3.6,0.7,5,2s2.1,3,2.1,4.9V469.9z M957.3,454.1c0-0.7-0.3-1.3-0.8-1.8s-1.1-0.7-1.8-0.7
			s-1.3,0.2-1.8,0.7s-0.7,1.1-0.7,1.8v15.7c0,0.7,0.2,1.3,0.7,1.8s1.1,0.7,1.8,0.7s1.3-0.2,1.8-0.7s0.8-1.1,0.8-1.8V454.1z"/>
		<path class="st0" d="M969.3,476.4v-22.2h-3.8v-3c1.1-0.1,2.1-0.5,3.1-1.2s1.7-1.5,2.1-2.4h3.1v28.8L969.3,476.4L969.3,476.4z"/>
		<path class="st0" d="M991.9,469.9c0,1.9-0.7,3.5-2.1,4.9c-1.4,1.3-3.1,2-5,2c-2,0-3.6-0.7-5-2s-2.1-3-2.1-4.9v-15.7
			c0-1.9,0.7-3.5,2.1-4.9s3.1-2,5-2c2,0,3.6,0.7,5,2s2.1,3,2.1,4.9V469.9z M987.2,454.1c0-0.7-0.3-1.3-0.8-1.8s-1.1-0.7-1.8-0.7
			s-1.3,0.2-1.8,0.7s-0.7,1.1-0.7,1.8v15.7c0,0.7,0.2,1.3,0.7,1.8s1.1,0.7,1.8,0.7s1.3-0.2,1.8-0.7s0.8-1.1,0.8-1.8V454.1z"/>
		<path class="st0" d="M1100.5,474.2c0,1.9-0.7,3.5-2.1,4.9c-1.4,1.3-3.1,2-5,2c-2,0-3.6-0.7-5-2s-2.1-3-2.1-4.9v-15.7
			c0-1.9,0.7-3.5,2.1-4.9c1.4-1.3,3.1-2,5-2c2,0,3.6,0.7,5,2s2.1,3,2.1,4.9V474.2z M1095.9,458.4c0-0.7-0.3-1.3-0.8-1.8
			s-1.1-0.7-1.8-0.7c-0.7,0-1.3,0.2-1.8,0.7s-0.7,1.1-0.7,1.8v15.7c0,0.7,0.2,1.3,0.7,1.8s1.1,0.7,1.8,0.7c0.7,0,1.3-0.2,1.8-0.7
			s0.8-1.1,0.8-1.8V458.4z"/>
		<path class="st0" d="M1078.7,272.8c0,1.9-0.7,3.5-2.1,4.9c-1.4,1.3-3.1,2-5,2c-2,0-3.6-0.7-5-2s-2.1-3-2.1-4.9V257
			c0-1.9,0.7-3.5,2.1-4.9c1.4-1.3,3.1-2,5-2c2,0,3.6,0.7,5,2s2.1,3,2.1,4.9V272.8z M1074.1,257c0-0.7-0.3-1.3-0.8-1.8
			s-1.1-0.7-1.8-0.7c-0.7,0-1.3,0.2-1.8,0.7s-0.7,1.1-0.7,1.8v15.7c0,0.7,0.2,1.3,0.7,1.8s1.1,0.7,1.8,0.7c0.7,0,1.3-0.2,1.8-0.7
			s0.8-1.1,0.8-1.8V257z"/>
		<path class="st0" d="M502.6,558.2V536h-3.8v-3c1.1-0.1,2.1-0.5,3.1-1.2s1.7-1.5,2.1-2.4h3.1v28.8L502.6,558.2L502.6,558.2z"/>
		<path class="st0" d="M514.5,558.2V536h-3.8v-3c1.1-0.1,2.1-0.5,3.1-1.2s1.7-1.5,2.1-2.4h3.1v28.8L514.5,558.2L514.5,558.2z"/>
		<path class="st0" d="M526.5,558.2V536h-3.8v-3c1.1-0.1,2.1-0.5,3.1-1.2s1.7-1.5,2.1-2.4h3.1v28.8L526.5,558.2L526.5,558.2z"/>
		<path class="st0" d="M538.4,558.2V536h-3.8v-3c1.1-0.1,2.1-0.5,3.1-1.2s1.7-1.5,2.1-2.4h3.1v28.8L538.4,558.2L538.4,558.2z"/>
		<path class="st0" d="M550.4,558.2V536h-3.8v-3c1.1-0.1,2.1-0.5,3.1-1.2s1.7-1.5,2.1-2.4h3.1v28.8L550.4,558.2L550.4,558.2z"/>
		<path class="st0" d="M572.9,551.7c0,1.9-0.7,3.5-2.1,4.9c-1.4,1.3-3.1,2-5,2c-2,0-3.6-0.7-5-2s-2.1-3-2.1-4.9V536
			c0-1.9,0.7-3.5,2.1-4.9c1.4-1.3,3.1-2,5-2c2,0,3.6,0.7,5,2s2.1,3,2.1,4.9V551.7z M568.3,535.9c0-0.7-0.3-1.3-0.8-1.8
			s-1.1-0.7-1.8-0.7s-1.3,0.2-1.8,0.7s-0.7,1.1-0.7,1.8v15.7c0,0.7,0.2,1.3,0.7,1.8s1.1,0.7,1.8,0.7s1.3-0.2,1.8-0.7
			s0.8-1.1,0.8-1.8V535.9z"/>
		<path class="st0" d="M580.3,558.2V536h-3.8v-3c1.1-0.1,2.1-0.5,3.1-1.2s1.7-1.5,2.1-2.4h3.1v28.8L580.3,558.2L580.3,558.2z"/>
		<path class="st0" d="M602.9,551.7c0,1.9-0.7,3.5-2.1,4.9c-1.4,1.3-3.1,2-5,2c-2,0-3.6-0.7-5-2s-2.1-3-2.1-4.9V536
			c0-1.9,0.7-3.5,2.1-4.9s3.1-2,5-2c2,0,3.6,0.7,5,2s2.1,3,2.1,4.9V551.7z M598.3,535.9c0-0.7-0.3-1.3-0.8-1.8s-1.1-0.7-1.8-0.7
			s-1.3,0.2-1.8,0.7s-0.7,1.1-0.7,1.8v15.7c0,0.7,0.2,1.3,0.7,1.8s1.1,0.7,1.8,0.7s1.3-0.2,1.8-0.7s0.8-1.1,0.8-1.8V535.9z"/>
		<path class="st0" d="M610.3,558.2V536h-3.8v-3c1.1-0.1,2.1-0.5,3.1-1.2s1.7-1.5,2.1-2.4h3.1v28.8L610.3,558.2L610.3,558.2z"/>
		<path class="st0" d="M959.2,131.4c0,1.9-0.7,3.5-2.1,4.9c-1.4,1.3-3.1,2-5,2c-2,0-3.6-0.7-5-2s-2.1-3-2.1-4.9v-15.7
			c0-1.9,0.7-3.5,2.1-4.9c1.4-1.3,3.1-2,5-2c2,0,3.6,0.7,5,2s2.1,3,2.1,4.9V131.4z M954.6,115.6c0-0.7-0.3-1.3-0.8-1.8
			s-1.1-0.7-1.8-0.7s-1.3,0.2-1.8,0.7s-0.7,1.1-0.7,1.8v15.7c0,0.7,0.2,1.3,0.7,1.8s1.1,0.7,1.8,0.7s1.3-0.2,1.8-0.7
			s0.8-1.1,0.8-1.8V115.6z"/>
		<path class="st0" d="M640.3,558.2V536h-3.8v-3c1.1-0.1,2.1-0.5,3.1-1.2s1.7-1.5,2.1-2.4h3.1v28.8L640.3,558.2L640.3,558.2z"/>
		<path class="st0" d="M662.9,551.7c0,1.9-0.7,3.5-2.1,4.9c-1.4,1.3-3.1,2-5,2c-2,0-3.6-0.7-5-2s-2.1-3-2.1-4.9V536
			c0-1.9,0.7-3.5,2.1-4.9s3.1-2,5-2c2,0,3.6,0.7,5,2s2.1,3,2.1,4.9V551.7z M658.2,535.9c0-0.7-0.3-1.3-0.8-1.8s-1.1-0.7-1.8-0.7
			s-1.3,0.2-1.8,0.7s-0.7,1.1-0.7,1.8v15.7c0,0.7,0.2,1.3,0.7,1.8s1.1,0.7,1.8,0.7s1.3-0.2,1.8-0.7s0.8-1.1,0.8-1.8V535.9z"/>
		<path class="st0" d="M680.9,551.7c0,1.9-0.7,3.5-2.1,4.9c-1.4,1.3-3.1,2-5,2c-2,0-3.6-0.7-5-2s-2.1-3-2.1-4.9V536
			c0-1.9,0.7-3.5,2.1-4.9s3.1-2,5-2c2,0,3.6,0.7,5,2s2.1,3,2.1,4.9V551.7z M676.3,535.9c0-0.7-0.3-1.3-0.8-1.8s-1.1-0.7-1.8-0.7
			s-1.3,0.2-1.8,0.7s-0.7,1.1-0.7,1.8v15.7c0,0.7,0.2,1.3,0.7,1.8s1.1,0.7,1.8,0.7s1.3-0.2,1.8-0.7s0.8-1.1,0.8-1.8V535.9z"/>
		<path class="st0" d="M698.9,551.7c0,1.9-0.7,3.5-2.1,4.9c-1.4,1.3-3.1,2-5,2c-2,0-3.6-0.7-5-2s-2.1-3-2.1-4.9V536
			c0-1.9,0.7-3.5,2.1-4.9s3.1-2,5-2c2,0,3.6,0.7,5,2s2.1,3,2.1,4.9V551.7z M694.3,535.9c0-0.7-0.3-1.3-0.8-1.8s-1.1-0.7-1.8-0.7
			s-1.3,0.2-1.8,0.7s-0.7,1.1-0.7,1.8v15.7c0,0.7,0.2,1.3,0.7,1.8s1.1,0.7,1.8,0.7s1.3-0.2,1.8-0.7s0.8-1.1,0.8-1.8V535.9z"/>
		<path class="st0" d="M716.9,551.7c0,1.9-0.7,3.5-2.1,4.9c-1.4,1.3-3.1,2-5,2c-2,0-3.6-0.7-5-2s-2.1-3-2.1-4.9V536
			c0-1.9,0.7-3.5,2.1-4.9s3.1-2,5-2c2,0,3.6,0.7,5,2s2.1,3,2.1,4.9V551.7z M712.3,535.9c0-0.7-0.3-1.3-0.8-1.8s-1.1-0.7-1.8-0.7
			s-1.3,0.2-1.8,0.7s-0.7,1.1-0.7,1.8v15.7c0,0.7,0.2,1.3,0.7,1.8s1.1,0.7,1.8,0.7s1.3-0.2,1.8-0.7s0.8-1.1,0.8-1.8V535.9z"/>
		<path class="st0" d="M724.4,558.2V536h-3.8v-3c1.1-0.1,2.1-0.5,3.1-1.2s1.7-1.5,2.1-2.4h3.1v28.8L724.4,558.2L724.4,558.2z"/>
		<path class="st0" d="M736.3,558.2V536h-3.8v-3c1.1-0.1,2.1-0.5,3.1-1.2s1.7-1.5,2.1-2.4h3.1v28.8L736.3,558.2L736.3,558.2z"/>
		<path class="st0" d="M748.2,558.2V536h-3.8v-3c1.1-0.1,2.1-0.5,3.1-1.2s1.7-1.5,2.1-2.4h3.1v28.8L748.2,558.2L748.2,558.2z"/>
		<path class="st0" d="M1126.4,381.8c0,1.9-0.7,3.5-2.1,4.9c-1.4,1.3-3.1,2-5,2c-2,0-3.6-0.7-5-2s-2.1-3-2.1-4.9v-15.7
			c0-1.9,0.7-3.5,2.1-4.9c1.4-1.3,3.1-2,5-2c2,0,3.6,0.7,5,2s2.1,3,2.1,4.9V381.8z M1121.8,366c0-0.7-0.3-1.3-0.8-1.8
			s-1.1-0.7-1.8-0.7c-0.7,0-1.3,0.2-1.8,0.7s-0.7,1.1-0.7,1.8v15.7c0,0.7,0.2,1.3,0.7,1.8s1.1,0.7,1.8,0.7c0.7,0,1.3-0.2,1.8-0.7
			s0.8-1.1,0.8-1.8V366z"/>
		<path class="st0" d="M862.6,526.6v-22.2h-3.8v-3c1.1-0.1,2.1-0.5,3.1-1.2s1.7-1.5,2.1-2.4h3.1v28.8H862.6z"/>
		<path class="st0" d="M885.2,520.1c0,1.9-0.7,3.5-2.1,4.9c-1.4,1.3-3.1,2-5,2c-2,0-3.6-0.7-5-2s-2.1-3-2.1-4.9v-15.7
			c0-1.9,0.7-3.5,2.1-4.9c1.4-1.3,3.1-2,5-2c2,0,3.6,0.7,5,2s2.1,3,2.1,4.9V520.1z M880.6,504.3c0-0.7-0.3-1.3-0.8-1.8
			s-1.1-0.7-1.8-0.7s-1.3,0.2-1.8,0.7s-0.7,1.1-0.7,1.8V520c0,0.7,0.2,1.3,0.7,1.8s1.1,0.7,1.8,0.7s1.3-0.2,1.8-0.7s0.8-1.1,0.8-1.8
			V504.3z"/>
		<path class="st0" d="M892.6,526.6v-22.2h-3.8v-3c1.1-0.1,2.1-0.5,3.1-1.2s1.7-1.5,2.1-2.4h3.1v28.8H892.6z"/>
		<path class="st0" d="M27.5,728.8v-22.2h-3.8v-3c1.1-0.1,2.1-0.5,3.1-1.2s1.7-1.5,2.1-2.4H32v28.8L27.5,728.8L27.5,728.8z"/>
		<path class="st0" d="M148.3,710.2c0,1.9-0.7,3.5-2.1,4.9c-1.4,1.3-3.1,2-5,2c-2,0-3.6-0.7-5-2s-2.1-3-2.1-4.9v-15.7
			c0-1.9,0.7-3.5,2.1-4.9s3.1-2,5-2c2,0,3.6,0.7,5,2s2.1,3,2.1,4.9V710.2z M143.7,694.4c0-0.7-0.3-1.3-0.8-1.8s-1.1-0.7-1.8-0.7
			s-1.3,0.2-1.8,0.7s-0.7,1.1-0.7,1.8v15.7c0,0.7,0.2,1.3,0.7,1.8s1.1,0.7,1.8,0.7s1.3-0.2,1.8-0.7s0.8-1.1,0.8-1.8V694.4z"/>
		<path class="st0" d="M280.6,614.9v-22.2h-3.8v-3c1.1-0.1,2.1-0.5,3.1-1.2s1.7-1.5,2.1-2.4h3.1v28.8L280.6,614.9L280.6,614.9z"/>
		<path class="st0" d="M303.2,608.3c0,1.9-0.7,3.5-2.1,4.9c-1.4,1.3-3.1,2-5,2c-2,0-3.6-0.7-5-2s-2.1-3-2.1-4.9v-15.7
			c0-1.9,0.7-3.5,2.1-4.9c1.4-1.3,3.1-2,5-2c2,0,3.6,0.7,5,2s2.1,3,2.1,4.9V608.3z M298.6,592.5c0-0.7-0.3-1.3-0.8-1.8
			s-1.1-0.7-1.8-0.7c-0.7,0-1.3,0.2-1.8,0.7s-0.7,1.1-0.7,1.8v15.7c0,0.7,0.2,1.3,0.7,1.8s1.1,0.7,1.8,0.7c0.7,0,1.3-0.2,1.8-0.7
			s0.8-1.1,0.8-1.8V592.5z"/>
		<path class="st0" d="M321.2,608.3c0,1.9-0.7,3.5-2.1,4.9c-1.4,1.3-3.1,2-5,2c-2,0-3.6-0.7-5-2s-2.1-3-2.1-4.9v-15.7
			c0-1.9,0.7-3.5,2.1-4.9c1.4-1.3,3.1-2,5-2c2,0,3.6,0.7,5,2s2.1,3,2.1,4.9V608.3z M316.6,592.5c0-0.7-0.3-1.3-0.8-1.8
			s-1.1-0.7-1.8-0.7c-0.7,0-1.3,0.2-1.8,0.7s-0.7,1.1-0.7,1.8v15.7c0,0.7,0.2,1.3,0.7,1.8s1.1,0.7,1.8,0.7c0.7,0,1.3-0.2,1.8-0.7
			s0.8-1.1,0.8-1.8V592.5z"/>
		<path class="st0" d="M339.2,608.3c0,1.9-0.7,3.5-2.1,4.9c-1.4,1.3-3.1,2-5,2c-2,0-3.6-0.7-5-2s-2.1-3-2.1-4.9v-15.7
			c0-1.9,0.7-3.5,2.1-4.9c1.4-1.3,3.1-2,5-2c2,0,3.6,0.7,5,2s2.1,3,2.1,4.9V608.3z M334.6,592.5c0-0.7-0.3-1.3-0.8-1.8
			s-1.1-0.7-1.8-0.7c-0.7,0-1.3,0.2-1.8,0.7s-0.7,1.1-0.7,1.8v15.7c0,0.7,0.2,1.3,0.7,1.8s1.1,0.7,1.8,0.7c0.7,0,1.3-0.2,1.8-0.7
			s0.8-1.1,0.8-1.8V592.5z"/>
		<path class="st0" d="M346.7,614.9v-22.2h-3.8v-3c1.1-0.1,2.1-0.5,3.1-1.2s1.7-1.5,2.1-2.4h3.1v28.8L346.7,614.9L346.7,614.9z"/>
		<path class="st0" d="M369.2,608.3c0,1.9-0.7,3.5-2.1,4.9c-1.4,1.3-3.1,2-5,2c-2,0-3.6-0.7-5-2s-2.1-3-2.1-4.9v-15.7
			c0-1.9,0.7-3.5,2.1-4.9c1.4-1.3,3.1-2,5-2c2,0,3.6,0.7,5,2s2.1,3,2.1,4.9V608.3z M364.6,592.5c0-0.7-0.3-1.3-0.8-1.8
			s-1.1-0.7-1.8-0.7c-0.7,0-1.3,0.2-1.8,0.7s-0.7,1.1-0.7,1.8v15.7c0,0.7,0.2,1.3,0.7,1.8s1.1,0.7,1.8,0.7c0.7,0,1.3-0.2,1.8-0.7
			s0.8-1.1,0.8-1.8V592.5z"/>
		<path class="st0" d="M376.6,614.9v-22.2h-3.8v-3c1.1-0.1,2.1-0.5,3.1-1.2s1.7-1.5,2.1-2.4h3.1v28.8L376.6,614.9L376.6,614.9z"/>
		<path class="st0" d="M399.2,690c0,1.9-0.7,3.5-2.1,4.9c-1.4,1.3-3.1,2-5,2c-2,0-3.6-0.7-5-2s-2.1-3-2.1-4.9v-15.7
			c0-1.9,0.7-3.5,2.1-4.9s3.1-2,5-2c2,0,3.6,0.7,5,2s2.1,3,2.1,4.9V690z M394.6,674.3c0-0.7-0.3-1.3-0.8-1.8s-1.1-0.7-1.8-0.7
			c-0.7,0-1.3,0.2-1.8,0.7s-0.7,1.1-0.7,1.8V690c0,0.7,0.2,1.3,0.7,1.8s1.1,0.7,1.8,0.7c0.7,0,1.3-0.2,1.8-0.7s0.8-1.1,0.8-1.8
			V674.3z"/>
		<path class="st0" d="M406.6,696.6v-22.2h-3.8v-3c1.1-0.1,2.1-0.5,3.1-1.2s1.7-1.5,2.1-2.4h3.1v28.8L406.6,696.6L406.6,696.6z"/>
		<path class="st0" d="M429.2,690c0,1.9-0.7,3.5-2.1,4.9c-1.4,1.3-3.1,2-5,2c-2,0-3.6-0.7-5-2s-2.1-3-2.1-4.9v-15.7
			c0-1.9,0.7-3.5,2.1-4.9c1.4-1.3,3.1-2,5-2c2,0,3.6,0.7,5,2s2.1,3,2.1,4.9V690z M424.5,674.3c0-0.7-0.3-1.3-0.8-1.8
			s-1.1-0.7-1.8-0.7c-0.7,0-1.3,0.2-1.8,0.7s-0.7,1.1-0.7,1.8V690c0,0.7,0.2,1.3,0.7,1.8s1.1,0.7,1.8,0.7c0.7,0,1.3-0.2,1.8-0.7
			s0.8-1.1,0.8-1.8V674.3z"/>
		<path class="st0" d="M436.6,696.6v-22.2h-3.8v-3c1.1-0.1,2.1-0.5,3.1-1.2s1.7-1.5,2.1-2.4h3.1v28.8L436.6,696.6L436.6,696.6z"/>
		<path class="st0" d="M459.2,690c0,1.9-0.7,3.5-2.1,4.9c-1.4,1.3-3.1,2-5,2c-2,0-3.6-0.7-5-2s-2.1-3-2.1-4.9v-15.7
			c0-1.9,0.7-3.5,2.1-4.9s3.1-2,5-2c2,0,3.6,0.7,5,2s2.1,3,2.1,4.9V690z M454.5,674.3c0-0.7-0.3-1.3-0.8-1.8s-1.1-0.7-1.8-0.7
			c-0.7,0-1.3,0.2-1.8,0.7s-0.7,1.1-0.7,1.8V690c0,0.7,0.2,1.3,0.7,1.8s1.1,0.7,1.8,0.7c0.7,0,1.3-0.2,1.8-0.7s0.8-1.1,0.8-1.8
			V674.3z"/>
		<path class="st0" d="M355.1,783.6c0,1.9-0.7,3.5-2.1,4.9c-1.4,1.3-3.1,2-5,2c-2,0-3.6-0.7-5-2s-2.1-3-2.1-4.9v-15.7
			c0-1.9,0.7-3.5,2.1-4.9c1.4-1.3,3.1-2,5-2c2,0,3.6,0.7,5,2s2.1,3,2.1,4.9V783.6z M350.5,767.8c0-0.7-0.3-1.3-0.8-1.8
			s-1.1-0.7-1.8-0.7c-0.7,0-1.3,0.2-1.8,0.7s-0.7,1.1-0.7,1.8v15.7c0,0.7,0.2,1.3,0.7,1.8s1.1,0.7,1.8,0.7c0.7,0,1.3-0.2,1.8-0.7
			s0.8-1.1,0.8-1.8V767.8z"/>
		<path class="st0" d="M495.2,690c0,1.9-0.7,3.5-2.1,4.9c-1.4,1.3-3.1,2-5,2c-2,0-3.6-0.7-5-2s-2.1-3-2.1-4.9v-15.7
			c0-1.9,0.7-3.5,2.1-4.9s3.1-2,5-2c2,0,3.6,0.7,5,2s2.1,3,2.1,4.9V690z M490.6,674.3c0-0.7-0.3-1.3-0.8-1.8s-1.1-0.7-1.8-0.7
			c-0.7,0-1.3,0.2-1.8,0.7s-0.7,1.1-0.7,1.8V690c0,0.7,0.2,1.3,0.7,1.8s1.1,0.7,1.8,0.7c0.7,0,1.3-0.2,1.8-0.7s0.8-1.1,0.8-1.8
			V674.3z"/>
		<path class="st0" d="M513.2,690c0,1.9-0.7,3.5-2.1,4.9c-1.4,1.3-3.1,2-5,2c-2,0-3.6-0.7-5-2s-2.1-3-2.1-4.9v-15.7
			c0-1.9,0.7-3.5,2.1-4.9c1.4-1.3,3.1-2,5-2c2,0,3.6,0.7,5,2s2.1,3,2.1,4.9V690z M508.6,674.3c0-0.7-0.3-1.3-0.8-1.8
			s-1.1-0.7-1.8-0.7c-0.7,0-1.3,0.2-1.8,0.7s-0.7,1.1-0.7,1.8V690c0,0.7,0.2,1.3,0.7,1.8s1.1,0.7,1.8,0.7c0.7,0,1.3-0.2,1.8-0.7
			s0.8-1.1,0.8-1.8V674.3z"/>
		<path class="st0" d="M531.2,690c0,1.9-0.7,3.5-2.1,4.9c-1.4,1.3-3.1,2-5,2c-2,0-3.6-0.7-5-2s-2.1-3-2.1-4.9v-15.7
			c0-1.9,0.7-3.5,2.1-4.9s3.1-2,5-2c2,0,3.6,0.7,5,2s2.1,3,2.1,4.9V690z M526.6,674.3c0-0.7-0.3-1.3-0.8-1.8s-1.1-0.7-1.8-0.7
			s-1.3,0.2-1.8,0.7s-0.7,1.1-0.7,1.8V690c0,0.7,0.2,1.3,0.7,1.8s1.1,0.7,1.8,0.7s1.3-0.2,1.8-0.7s0.8-1.1,0.8-1.8V674.3z"/>
		<path class="st0" d="M549.3,690c0,1.9-0.7,3.5-2.1,4.9c-1.4,1.3-3.1,2-5,2c-2,0-3.6-0.7-5-2s-2.1-3-2.1-4.9v-15.7
			c0-1.9,0.7-3.5,2.1-4.9s3.1-2,5-2c2,0,3.6,0.7,5,2s2.1,3,2.1,4.9V690z M544.6,674.3c0-0.7-0.3-1.3-0.8-1.8s-1.1-0.7-1.8-0.7
			s-1.3,0.2-1.8,0.7s-0.7,1.1-0.7,1.8V690c0,0.7,0.2,1.3,0.7,1.8s1.1,0.7,1.8,0.7s1.3-0.2,1.8-0.7s0.8-1.1,0.8-1.8V674.3z"/>
		<path class="st0" d="M567.3,690c0,1.9-0.7,3.5-2.1,4.9c-1.4,1.3-3.1,2-5,2c-2,0-3.6-0.7-5-2s-2.1-3-2.1-4.9v-15.7
			c0-1.9,0.7-3.5,2.1-4.9c1.4-1.3,3.1-2,5-2c2,0,3.6,0.7,5,2s2.1,3,2.1,4.9V690z M562.6,674.3c0-0.7-0.3-1.3-0.8-1.8
			s-1.1-0.7-1.8-0.7s-1.3,0.2-1.8,0.7s-0.7,1.1-0.7,1.8V690c0,0.7,0.2,1.3,0.7,1.8s1.1,0.7,1.8,0.7s1.3-0.2,1.8-0.7s0.8-1.1,0.8-1.8
			V674.3z"/>
		<path class="st0" d="M574.7,614.9v-22.2h-3.8v-3c1.1-0.1,2.1-0.5,3.1-1.2s1.7-1.5,2.1-2.4h3.1v28.8L574.7,614.9L574.7,614.9z"/>
		<path class="st0" d="M586.6,614.9v-22.2h-3.8v-3c1.1-0.1,2.1-0.5,3.1-1.2s1.7-1.5,2.1-2.4h3.1v28.8L586.6,614.9L586.6,614.9z"/>
		<path class="st0" d="M598.6,614.9v-22.2h-3.8v-3c1.1-0.1,2.1-0.5,3.1-1.2s1.7-1.5,2.1-2.4h3.1v28.8L598.6,614.9L598.6,614.9z"/>
		<path class="st0" d="M610.5,614.9v-22.2h-3.8v-3c1.1-0.1,2.1-0.5,3.1-1.2s1.7-1.5,2.1-2.4h3.1v28.8L610.5,614.9L610.5,614.9z"/>
		<path class="st0" d="M622.5,614.9v-22.2h-3.8v-3c1.1-0.1,2.1-0.5,3.1-1.2s1.7-1.5,2.1-2.4h3.1v28.8L622.5,614.9L622.5,614.9z"/>
		<path class="st0" d="M634.4,614.9v-22.2h-3.8v-3c1.1-0.1,2.1-0.5,3.1-1.2s1.7-1.5,2.1-2.4h3.1v28.8L634.4,614.9L634.4,614.9z"/>
		<path class="st0" d="M657,608.3c0,1.9-0.7,3.5-2.1,4.9c-1.4,1.3-3.1,2-5,2c-2,0-3.6-0.7-5-2s-2.1-3-2.1-4.9v-15.7
			c0-1.9,0.7-3.5,2.1-4.9c1.4-1.3,3.1-2,5-2c2,0,3.6,0.7,5,2s2.1,3,2.1,4.9V608.3z M652.3,592.5c0-0.7-0.3-1.3-0.8-1.8
			s-1.1-0.7-1.8-0.7s-1.3,0.2-1.8,0.7s-0.7,1.1-0.7,1.8v15.7c0,0.7,0.2,1.3,0.7,1.8s1.1,0.7,1.8,0.7s1.3-0.2,1.8-0.7
			s0.8-1.1,0.8-1.8V592.5z"/>
		<path class="st0" d="M675,608.3c0,1.9-0.7,3.5-2.1,4.9c-1.4,1.3-3.1,2-5,2c-2,0-3.6-0.7-5-2s-2.1-3-2.1-4.9v-15.7
			c0-1.9,0.7-3.5,2.1-4.9c1.4-1.3,3.1-2,5-2c2,0,3.6,0.7,5,2s2.1,3,2.1,4.9V608.3z M670.3,592.5c0-0.7-0.3-1.3-0.8-1.8
			s-1.1-0.7-1.8-0.7s-1.3,0.2-1.8,0.7s-0.7,1.1-0.7,1.8v15.7c0,0.7,0.2,1.3,0.7,1.8s1.1,0.7,1.8,0.7s1.3-0.2,1.8-0.7
			s0.8-1.1,0.8-1.8V592.5z"/>
		<path class="st0" d="M682.4,614.9v-22.2h-3.8v-3c1.1-0.1,2.1-0.5,3.1-1.2s1.7-1.5,2.1-2.4h3.1v28.8L682.4,614.9L682.4,614.9z"/>
		<path class="st0" d="M705,608.3c0,1.9-0.7,3.5-2.1,4.9c-1.4,1.3-3.1,2-5,2c-2,0-3.6-0.7-5-2s-2.1-3-2.1-4.9v-15.7
			c0-1.9,0.7-3.5,2.1-4.9c1.4-1.3,3.1-2,5-2c2,0,3.6,0.7,5,2s2.1,3,2.1,4.9V608.3z M700.3,592.5c0-0.7-0.3-1.3-0.8-1.8
			s-1.1-0.7-1.8-0.7s-1.3,0.2-1.8,0.7s-0.7,1.1-0.7,1.8v15.7c0,0.7,0.2,1.3,0.7,1.8s1.1,0.7,1.8,0.7s1.3-0.2,1.8-0.7
			s0.8-1.1,0.8-1.8V592.5z"/>
		<path class="st0" d="M712.4,614.9v-22.2h-3.8v-3c1.1-0.1,2.1-0.5,3.1-1.2s1.7-1.5,2.1-2.4h3.1v28.8L712.4,614.9L712.4,614.9z"/>
		<path class="st0" d="M724.3,614.9v-22.2h-3.8v-3c1.1-0.1,2.1-0.5,3.1-1.2s1.7-1.5,2.1-2.4h3.1v28.8L724.3,614.9L724.3,614.9z"/>
		<path class="st0" d="M736.3,614.9v-22.2h-3.8v-3c1.1-0.1,2.1-0.5,3.1-1.2s1.7-1.5,2.1-2.4h3.1v28.8L736.3,614.9L736.3,614.9z"/>
		<path class="st0" d="M748.2,614.9v-22.2h-3.8v-3c1.1-0.1,2.1-0.5,3.1-1.2s1.7-1.5,2.1-2.4h3.1v28.8L748.2,614.9L748.2,614.9z"/>
		<path class="st0" d="M770.8,608.3c0,1.9-0.7,3.5-2.1,4.9c-1.4,1.3-3.1,2-5,2c-2,0-3.6-0.7-5-2s-2.1-3-2.1-4.9v-15.7
			c0-1.9,0.7-3.5,2.1-4.9c1.4-1.3,3.1-2,5-2c2,0,3.6,0.7,5,2s2.1,3,2.1,4.9V608.3z M766.1,592.5c0-0.7-0.3-1.3-0.8-1.8
			s-1.1-0.7-1.8-0.7s-1.3,0.2-1.8,0.7s-0.7,1.1-0.7,1.8v15.7c0,0.7,0.2,1.3,0.7,1.8s1.1,0.7,1.8,0.7s1.3-0.2,1.8-0.7
			s0.8-1.1,0.8-1.8V592.5z"/>
		<path class="st0" d="M778.2,614.9v-22.2h-3.8v-3c1.1-0.1,2.1-0.5,3.1-1.2s1.7-1.5,2.1-2.4h3.1v28.8L778.2,614.9L778.2,614.9z"/>
		<path class="st0" d="M800.8,608.3c0,1.9-0.7,3.5-2.1,4.9c-1.4,1.3-3.1,2-5,2c-2,0-3.6-0.7-5-2s-2.1-3-2.1-4.9v-15.7
			c0-1.9,0.7-3.5,2.1-4.9c1.4-1.3,3.1-2,5-2c2,0,3.6,0.7,5,2s2.1,3,2.1,4.9V608.3z M796.1,592.5c0-0.7-0.3-1.3-0.8-1.8
			s-1.1-0.7-1.8-0.7s-1.3,0.2-1.8,0.7s-0.7,1.1-0.7,1.8v15.7c0,0.7,0.2,1.3,0.7,1.8s1.1,0.7,1.8,0.7s1.3-0.2,1.8-0.7
			s0.8-1.1,0.8-1.8V592.5z"/>
		<path class="st0" d="M808.2,614.9v-22.2h-3.8v-3c1.1-0.1,2.1-0.5,3.1-1.2s1.7-1.5,2.1-2.4h3.1v28.8L808.2,614.9L808.2,614.9z"/>
		<path class="st0" d="M258.1,495c0,1.9-0.7,3.5-2.1,4.9c-1.4,1.3-3.1,2-5,2c-2,0-3.6-0.7-5-2s-2.1-3-2.1-4.9v-15.7
			c0-1.9,0.7-3.5,2.1-4.9s3.1-2,5-2c2,0,3.6,0.7,5,2s2.1,3,2.1,4.9V495z M253.4,479.2c0-0.7-0.3-1.3-0.8-1.8s-1.1-0.7-1.8-0.7
			s-1.3,0.2-1.8,0.7s-0.7,1.1-0.7,1.8V495c0,0.7,0.2,1.3,0.7,1.8s1.1,0.7,1.8,0.7s1.3-0.2,1.8-0.7s0.8-1.1,0.8-1.8V479.2z"/>
		<path class="st0" d="M75.4,117.9V95.8h-3.8v-3c1.1-0.1,2.1-0.5,3.1-1.2s1.7-1.5,2.1-2.4h3.1V118L75.4,117.9L75.4,117.9z"/>
		<path class="st0" d="M288,495c0,1.9-0.7,3.5-2.1,4.9c-1.4,1.3-3.1,2-5,2c-2,0-3.6-0.7-5-2s-2.1-3-2.1-4.9v-15.7
			c0-1.9,0.7-3.5,2.1-4.9c1.4-1.3,3.1-2,5-2c2,0,3.6,0.7,5,2s2.1,3,2.1,4.9V495z M283.4,479.2c0-0.7-0.3-1.3-0.8-1.8
			s-1.1-0.7-1.8-0.7c-0.7,0-1.3,0.2-1.8,0.7s-0.7,1.1-0.7,1.8V495c0,0.7,0.2,1.3,0.7,1.8s1.1,0.7,1.8,0.7c0.7,0,1.3-0.2,1.8-0.7
			s0.8-1.1,0.8-1.8V479.2z"/>
		<path class="st0" d="M295.5,501.6v-22.2h-3.8v-3c1.1-0.1,2.1-0.5,3.1-1.2s1.7-1.5,2.1-2.4h3.1v28.8L295.5,501.6L295.5,501.6z"/>
		<path class="st0" d="M113.6,615.3c0,1.9-0.7,3.5-2.1,4.9c-1.4,1.3-3.1,2-5,2c-2,0-3.6-0.7-5-2s-2.1-3-2.1-4.9v-15.7
			c0-1.9,0.7-3.5,2.1-4.9c1.4-1.3,3.1-2,5-2c2,0,3.6,0.7,5,2s2.1,3,2.1,4.9V615.3z M108.9,599.5c0-0.7-0.3-1.3-0.8-1.8
			s-1.1-0.7-1.8-0.7c-0.7,0-1.3,0.2-1.8,0.7s-0.7,1.1-0.7,1.8v15.7c0,0.7,0.2,1.3,0.7,1.8s1.1,0.7,1.8,0.7c0.7,0,1.3-0.2,1.8-0.7
			s0.8-1.1,0.8-1.8V599.5z"/>
		<path class="st0" d="M325.5,501.6v-22.2h-3.8v-3c1.1-0.1,2.1-0.5,3.1-1.2s1.7-1.5,2.1-2.4h3.1v28.8L325.5,501.6L325.5,501.6z"/>
		<path class="st0" d="M348,495c0,1.9-0.7,3.5-2.1,4.9c-1.4,1.3-3.1,2-5,2c-2,0-3.6-0.7-5-2s-2.1-3-2.1-4.9v-15.7
			c0-1.9,0.7-3.5,2.1-4.9s3.1-2,5-2c2,0,3.6,0.7,5,2s2.1,3,2.1,4.9V495z M343.4,479.2c0-0.7-0.3-1.3-0.8-1.8s-1.1-0.7-1.8-0.7
			c-0.7,0-1.3,0.2-1.8,0.7s-0.7,1.1-0.7,1.8V495c0,0.7,0.2,1.3,0.7,1.8s1.1,0.7,1.8,0.7c0.7,0,1.3-0.2,1.8-0.7s0.8-1.1,0.8-1.8
			V479.2z"/>
		<path class="st0" d="M366,495c0,1.9-0.7,3.5-2.1,4.9c-1.4,1.3-3.1,2-5,2c-2,0-3.6-0.7-5-2s-2.1-3-2.1-4.9v-15.7
			c0-1.9,0.7-3.5,2.1-4.9c1.4-1.3,3.1-2,5-2c2,0,3.6,0.7,5,2s2.1,3,2.1,4.9V495z M361.4,479.2c0-0.7-0.3-1.3-0.8-1.8
			s-1.1-0.7-1.8-0.7c-0.7,0-1.3,0.2-1.8,0.7s-0.7,1.1-0.7,1.8V495c0,0.7,0.2,1.3,0.7,1.8s1.1,0.7,1.8,0.7c0.7,0,1.3-0.2,1.8-0.7
			s0.8-1.1,0.8-1.8V479.2z"/>
		<path class="st0" d="M384,495c0,1.9-0.7,3.5-2.1,4.9c-1.4,1.3-3.1,2-5,2c-2,0-3.6-0.7-5-2s-2.1-3-2.1-4.9v-15.7
			c0-1.9,0.7-3.5,2.1-4.9s3.1-2,5-2c2,0,3.6,0.7,5,2s2.1,3,2.1,4.9V495z M379.4,479.2c0-0.7-0.3-1.3-0.8-1.8s-1.1-0.7-1.8-0.7
			c-0.7,0-1.3,0.2-1.8,0.7s-0.7,1.1-0.7,1.8V495c0,0.7,0.2,1.3,0.7,1.8s1.1,0.7,1.8,0.7c0.7,0,1.3-0.2,1.8-0.7s0.8-1.1,0.8-1.8
			V479.2z"/>
		<path class="st0" d="M391.5,501.6v-22.2h-3.8v-3c1.1-0.1,2.1-0.5,3.1-1.2s1.7-1.5,2.1-2.4h3.1v28.8L391.5,501.6L391.5,501.6z"/>
		<path class="st0" d="M414,495c0,1.9-0.7,3.5-2.1,4.9c-1.4,1.3-3.1,2-5,2c-2,0-3.6-0.7-5-2s-2.1-3-2.1-4.9v-15.7
			c0-1.9,0.7-3.5,2.1-4.9c1.4-1.3,3.1-2,5-2c2,0,3.6,0.7,5,2s2.1,3,2.1,4.9V495z M409.4,479.2c0-0.7-0.3-1.3-0.8-1.8
			s-1.1-0.7-1.8-0.7c-0.7,0-1.3,0.2-1.8,0.7s-0.7,1.1-0.7,1.8V495c0,0.7,0.2,1.3,0.7,1.8s1.1,0.7,1.8,0.7c0.7,0,1.3-0.2,1.8-0.7
			s0.8-1.1,0.8-1.8V479.2z"/>
		<path class="st0" d="M421.5,501.6v-22.2h-3.8v-3c1.1-0.1,2.1-0.5,3.1-1.2s1.7-1.5,2.1-2.4h3.1v28.8L421.5,501.6L421.5,501.6z"/>
		<path class="st0" d="M444,495c0,1.9-0.7,3.5-2.1,4.9c-1.4,1.3-3.1,2-5,2c-2,0-3.6-0.7-5-2s-2.1-3-2.1-4.9v-15.7
			c0-1.9,0.7-3.5,2.1-4.9s3.1-2,5-2c2,0,3.6,0.7,5,2s2.1,3,2.1,4.9V495z M439.4,479.2c0-0.7-0.3-1.3-0.8-1.8s-1.1-0.7-1.8-0.7
			c-0.7,0-1.3,0.2-1.8,0.7s-0.7,1.1-0.7,1.8V495c0,0.7,0.2,1.3,0.7,1.8s1.1,0.7,1.8,0.7c0.7,0,1.3-0.2,1.8-0.7s0.8-1.1,0.8-1.8
			V479.2z"/>
		<path class="st0" d="M39.7,522.4c0,1.9-0.7,3.5-2.1,4.9c-1.4,1.3-3.1,2-5,2c-2,0-3.6-0.7-5-2s-2.1-3-2.1-4.9v-15.7
			c0-1.9,0.7-3.5,2.1-4.9c1.4-1.3,3.1-2,5-2c2,0,3.6,0.7,5,2s2.1,3,2.1,4.9V522.4z M35.1,506.6c0-0.7-0.3-1.3-0.8-1.8
			s-1.1-0.7-1.8-0.7s-1.3,0.2-1.8,0.7s-0.7,1.1-0.7,1.8v15.7c0,0.7,0.2,1.3,0.7,1.8s1.1,0.7,1.8,0.7c0.7,0,1.3-0.2,1.8-0.7
			s0.8-1.1,0.8-1.8V506.6z"/>
		<path class="st0" d="M57.7,522.4c0,1.9-0.7,3.5-2.1,4.9c-1.4,1.3-3.1,2-5,2c-2,0-3.6-0.7-5-2s-2.1-3-2.1-4.9v-15.7
			c0-1.9,0.7-3.5,2.1-4.9c1.4-1.3,3.1-2,5-2c2,0,3.6,0.7,5,2s2.1,3,2.1,4.9V522.4z M53.1,506.6c0-0.7-0.3-1.3-0.8-1.8
			s-1.1-0.7-1.8-0.7s-1.3,0.2-1.8,0.7s-0.7,1.1-0.7,1.8v15.7c0,0.7,0.2,1.3,0.7,1.8s1.1,0.7,1.8,0.7s1.3-0.2,1.8-0.7
			s0.8-1.1,0.8-1.8V506.6z"/>
		<path class="st0" d="M65.1,529v-22.2h-3.8v-3c1.1-0.1,2.1-0.5,3.1-1.2c1-0.7,1.7-1.5,2.1-2.4h3.1V529H65.1z"/>
		<path class="st0" d="M87.7,522.4c0,1.9-0.7,3.5-2.1,4.9c-1.4,1.3-3.1,2-5,2c-2,0-3.6-0.7-5-2s-2.1-3-2.1-4.9v-15.7
			c0-1.9,0.7-3.5,2.1-4.9c1.4-1.3,3.1-2,5-2c2,0,3.6,0.7,5,2s2.1,3,2.1,4.9V522.4z M83.1,506.6c0-0.7-0.3-1.3-0.8-1.8
			s-1.1-0.7-1.8-0.7c-0.7,0-1.3,0.2-1.8,0.7s-0.7,1.1-0.7,1.8v15.7c0,0.7,0.2,1.3,0.7,1.8s1.1,0.7,1.8,0.7c0.7,0,1.3-0.2,1.8-0.7
			s0.8-1.1,0.8-1.8V506.6z"/>
		<path class="st0" d="M95.1,529v-22.2h-3.8v-3c1.1-0.1,2.1-0.5,3.1-1.2s1.7-1.5,2.1-2.4h3.1V529H95.1z"/>
		<path class="st0" d="M117.7,522.4c0,1.9-0.7,3.5-2.1,4.9c-1.4,1.3-3.1,2-5,2c-2,0-3.6-0.7-5-2s-2.1-3-2.1-4.9v-15.7
			c0-1.9,0.7-3.5,2.1-4.9c1.4-1.3,3.1-2,5-2c2,0,3.6,0.7,5,2s2.1,3,2.1,4.9V522.4z M113.1,506.6c0-0.7-0.3-1.3-0.8-1.8
			s-1.1-0.7-1.8-0.7c-0.7,0-1.3,0.2-1.8,0.7s-0.7,1.1-0.7,1.8v15.7c0,0.7,0.2,1.3,0.7,1.8s1.1,0.7,1.8,0.7c0.7,0,1.3-0.2,1.8-0.7
			s0.8-1.1,0.8-1.8V506.6z"/>
		<path class="st0" d="M451.4,501.6v-22.2h-3.8v-3c1.1-0.1,2.1-0.5,3.1-1.2s1.7-1.5,2.1-2.4h3.1v28.8L451.4,501.6L451.4,501.6z"/>
		<path class="st0" d="M474,495c0,1.9-0.7,3.5-2.1,4.9c-1.4,1.3-3.1,2-5,2c-2,0-3.6-0.7-5-2s-2.1-3-2.1-4.9v-15.7
			c0-1.9,0.7-3.5,2.1-4.9s3.1-2,5-2c2,0,3.6,0.7,5,2s2.1,3,2.1,4.9V495z M469.4,479.2c0-0.7-0.3-1.3-0.8-1.8s-1.1-0.7-1.8-0.7
			c-0.7,0-1.3,0.2-1.8,0.7s-0.7,1.1-0.7,1.8V495c0,0.7,0.2,1.3,0.7,1.8s1.1,0.7,1.8,0.7c0.7,0,1.3-0.2,1.8-0.7s0.8-1.1,0.8-1.8
			V479.2z"/>
		<path class="st0" d="M481.4,501.6v-22.2h-3.8v-3c1.1-0.1,2.1-0.5,3.1-1.2s1.7-1.5,2.1-2.4h3.1v28.8L481.4,501.6L481.4,501.6z"/>
		<path class="st0" d="M504,495c0,1.9-0.7,3.5-2.1,4.9c-1.4,1.3-3.1,2-5,2c-2,0-3.6-0.7-5-2s-2.1-3-2.1-4.9v-15.7
			c0-1.9,0.7-3.5,2.1-4.9s3.1-2,5-2c2,0,3.6,0.7,5,2s2.1,3,2.1,4.9V495z M499.3,479.2c0-0.7-0.3-1.3-0.8-1.8s-1.1-0.7-1.8-0.7
			c-0.7,0-1.3,0.2-1.8,0.7s-0.7,1.1-0.7,1.8V495c0,0.7,0.2,1.3,0.7,1.8s1.1,0.7,1.8,0.7c0.7,0,1.3-0.2,1.8-0.7s0.8-1.1,0.8-1.8
			V479.2z"/>
		<path class="st0" d="M522,495c0,1.9-0.7,3.5-2.1,4.9c-1.4,1.3-3.1,2-5,2c-2,0-3.6-0.7-5-2s-2.1-3-2.1-4.9v-15.7
			c0-1.9,0.7-3.5,2.1-4.9c1.4-1.3,3.1-2,5-2c2,0,3.6,0.7,5,2s2.1,3,2.1,4.9V495z M517.4,479.2c0-0.7-0.3-1.3-0.8-1.8
			s-1.1-0.7-1.8-0.7s-1.3,0.2-1.8,0.7s-0.7,1.1-0.7,1.8V495c0,0.7,0.2,1.3,0.7,1.8s1.1,0.7,1.8,0.7s1.3-0.2,1.8-0.7s0.8-1.1,0.8-1.8
			V479.2z"/>
		<path class="st0" d="M540,495c0,1.9-0.7,3.5-2.1,4.9c-1.4,1.3-3.1,2-5,2c-2,0-3.6-0.7-5-2s-2.1-3-2.1-4.9v-15.7
			c0-1.9,0.7-3.5,2.1-4.9s3.1-2,5-2c2,0,3.6,0.7,5,2s2.1,3,2.1,4.9V495z M535.4,479.2c0-0.7-0.3-1.3-0.8-1.8s-1.1-0.7-1.8-0.7
			s-1.3,0.2-1.8,0.7s-0.7,1.1-0.7,1.8V495c0,0.7,0.2,1.3,0.7,1.8s1.1,0.7,1.8,0.7s1.3-0.2,1.8-0.7s0.8-1.1,0.8-1.8V479.2z"/>
		<path class="st0" d="M558,495c0,1.9-0.7,3.5-2.1,4.9c-1.4,1.3-3.1,2-5,2c-2,0-3.6-0.7-5-2s-2.1-3-2.1-4.9v-15.7
			c0-1.9,0.7-3.5,2.1-4.9s3.1-2,5-2c2,0,3.6,0.7,5,2s2.1,3,2.1,4.9V495z M553.4,479.2c0-0.7-0.3-1.3-0.8-1.8s-1.1-0.7-1.8-0.7
			s-1.3,0.2-1.8,0.7s-0.7,1.1-0.7,1.8V495c0,0.7,0.2,1.3,0.7,1.8s1.1,0.7,1.8,0.7s1.3-0.2,1.8-0.7s0.8-1.1,0.8-1.8V479.2z"/>
		<path class="st0" d="M745.4,763.3c0,1.9-0.7,3.5-2.1,4.9c-1.4,1.3-3.1,2-5,2c-2,0-3.6-0.7-5-2s-2.1-3-2.1-4.9v-15.7
			c0-1.9,0.7-3.5,2.1-4.9c1.4-1.3,3.1-2,5-2c2,0,3.6,0.7,5,2s2.1,3,2.1,4.9V763.3z M740.8,747.5c0-0.7-0.3-1.3-0.8-1.8
			s-1.1-0.7-1.8-0.7s-1.3,0.2-1.8,0.7s-0.7,1.1-0.7,1.8v15.7c0,0.7,0.2,1.3,0.7,1.8s1.1,0.7,1.8,0.7s1.3-0.2,1.8-0.7
			s0.8-1.1,0.8-1.8V747.5z"/>
		<path class="st0" d="M594.1,495c0,1.9-0.7,3.5-2.1,4.9c-1.4,1.3-3.1,2-5,2c-2,0-3.6-0.7-5-2s-2.1-3-2.1-4.9v-15.7
			c0-1.9,0.7-3.5,2.1-4.9c1.4-1.3,3.1-2,5-2c2,0,3.6,0.7,5,2s2.1,3,2.1,4.9V495z M589.4,479.2c0-0.7-0.3-1.3-0.8-1.8
			s-1.1-0.7-1.8-0.7s-1.3,0.2-1.8,0.7s-0.7,1.1-0.7,1.8V495c0,0.7,0.2,1.3,0.7,1.8s1.1,0.7,1.8,0.7s1.3-0.2,1.8-0.7s0.8-1.1,0.8-1.8
			V479.2z"/>
		<path class="st0" d="M612.1,495c0,1.9-0.7,3.5-2.1,4.9c-1.4,1.3-3.1,2-5,2c-2,0-3.6-0.7-5-2s-2.1-3-2.1-4.9v-15.7
			c0-1.9,0.7-3.5,2.1-4.9c1.4-1.3,3.1-2,5-2c2,0,3.6,0.7,5,2s2.1,3,2.1,4.9V495z M607.5,479.2c0-0.7-0.3-1.3-0.8-1.8
			s-1.1-0.7-1.8-0.7s-1.3,0.2-1.8,0.7s-0.7,1.1-0.7,1.8V495c0,0.7,0.2,1.3,0.7,1.8s1.1,0.7,1.8,0.7s1.3-0.2,1.8-0.7s0.8-1.1,0.8-1.8
			V479.2z"/>
		<path class="st0" d="M619.5,501.6v-22.2h-3.8v-3c1.1-0.1,2.1-0.5,3.1-1.2s1.7-1.5,2.1-2.4h3.1v28.8L619.5,501.6L619.5,501.6z"/>
		<path class="st0" d="M631.5,501.6v-22.2h-3.8v-3c1.1-0.1,2.1-0.5,3.1-1.2s1.7-1.5,2.1-2.4h3.1v28.8L631.5,501.6L631.5,501.6z"/>
		<path class="st0" d="M643.4,501.6v-22.2h-3.8v-3c1.1-0.1,2.1-0.5,3.1-1.2s1.7-1.5,2.1-2.4h3.1v28.8L643.4,501.6L643.4,501.6z"/>
		<path class="st0" d="M655.3,501.6v-22.2h-3.8v-3c1.1-0.1,2.1-0.5,3.1-1.2s1.7-1.5,2.1-2.4h3.1v28.8L655.3,501.6L655.3,501.6z"/>
		<path class="st0" d="M670.8,337.2V315H667v-3c1.1-0.1,2.1-0.5,3.1-1.2s1.7-1.5,2.1-2.4h3.1v28.8L670.8,337.2L670.8,337.2z"/>
		<path class="st0" d="M679.2,501.6v-22.2h-3.8v-3c1.1-0.1,2.1-0.5,3.1-1.2s1.7-1.5,2.1-2.4h3.1v28.8L679.2,501.6L679.2,501.6z"/>
		<path class="st0" d="M701.8,495c0,1.9-0.7,3.5-2.1,4.9c-1.4,1.3-3.1,2-5,2c-2,0-3.6-0.7-5-2s-2.1-3-2.1-4.9v-15.7
			c0-1.9,0.7-3.5,2.1-4.9s3.1-2,5-2c2,0,3.6,0.7,5,2s2.1,3,2.1,4.9V495z M697.1,479.2c0-0.7-0.3-1.3-0.8-1.8s-1.1-0.7-1.8-0.7
			s-1.3,0.2-1.8,0.7s-0.7,1.1-0.7,1.8V495c0,0.7,0.2,1.3,0.7,1.8s1.1,0.7,1.8,0.7s1.3-0.2,1.8-0.7s0.8-1.1,0.8-1.8V479.2z"/>
		<path class="st0" d="M719.8,495c0,1.9-0.7,3.5-2.1,4.9c-1.4,1.3-3.1,2-5,2c-2,0-3.6-0.7-5-2s-2.1-3-2.1-4.9v-15.7
			c0-1.9,0.7-3.5,2.1-4.9s3.1-2,5-2c2,0,3.6,0.7,5,2s2.1,3,2.1,4.9V495z M715.2,479.2c0-0.7-0.3-1.3-0.8-1.8s-1.1-0.7-1.8-0.7
			s-1.3,0.2-1.8,0.7s-0.7,1.1-0.7,1.8V495c0,0.7,0.2,1.3,0.7,1.8s1.1,0.7,1.8,0.7s1.3-0.2,1.8-0.7s0.8-1.1,0.8-1.8V479.2z"/>
		<path class="st0" d="M727.2,501.6v-22.2h-3.8v-3c1.1-0.1,2.1-0.5,3.1-1.2s1.7-1.5,2.1-2.4h3.1v28.8L727.2,501.6L727.2,501.6z"/>
		<path class="st0" d="M749.8,495c0,1.9-0.7,3.5-2.1,4.9c-1.4,1.3-3.1,2-5,2c-2,0-3.6-0.7-5-2s-2.1-3-2.1-4.9v-15.7
			c0-1.9,0.7-3.5,2.1-4.9s3.1-2,5-2c2,0,3.6,0.7,5,2s2.1,3,2.1,4.9V495z M745.1,479.2c0-0.7-0.3-1.3-0.8-1.8s-1.1-0.7-1.8-0.7
			s-1.3,0.2-1.8,0.7s-0.7,1.1-0.7,1.8V495c0,0.7,0.2,1.3,0.7,1.8s1.1,0.7,1.8,0.7s1.3-0.2,1.8-0.7s0.8-1.1,0.8-1.8V479.2z"/>
		<path class="st0" d="M757.2,501.6v-22.2h-3.8v-3c1.1-0.1,2.1-0.5,3.1-1.2s1.7-1.5,2.1-2.4h3.1v28.8L757.2,501.6L757.2,501.6z"/>
		<path class="st0" d="M906.3,413v-22.2h-3.8v-3c1.1-0.1,2.1-0.5,3.1-1.2s1.7-1.5,2.1-2.4h3.1V413H906.3z"/>
		<path class="st0" d="M781.1,501.6v-22.2h-3.8v-3c1.1-0.1,2.1-0.5,3.1-1.2s1.7-1.5,2.1-2.4h3.1v28.8L781.1,501.6L781.1,501.6z"/>
		<path class="st0" d="M793,501.6v-22.2h-3.8v-3c1.1-0.1,2.1-0.5,3.1-1.2s1.7-1.5,2.1-2.4h3.1v28.8L793,501.6L793,501.6z"/>
		<path class="st0" d="M815.6,495c0,1.9-0.7,3.5-2.1,4.9c-1.4,1.3-3.1,2-5,2c-2,0-3.6-0.7-5-2s-2.1-3-2.1-4.9v-15.7
			c0-1.9,0.7-3.5,2.1-4.9c1.4-1.3,3.1-2,5-2c2,0,3.6,0.7,5,2s2.1,3,2.1,4.9V495z M811,479.2c0-0.7-0.3-1.3-0.8-1.8s-1.1-0.7-1.8-0.7
			s-1.3,0.2-1.8,0.7s-0.7,1.1-0.7,1.8V495c0,0.7,0.2,1.3,0.7,1.8s1.1,0.7,1.8,0.7s1.3-0.2,1.8-0.7s0.8-1.1,0.8-1.8V479.2z"/>
		<path class="st0" d="M258.2,922.4c0,1.9-0.7,3.5-2.1,4.9c-1.4,1.3-3.1,2-5,2c-2,0-3.6-0.7-5-2s-2.1-3-2.1-4.9v-15.7
			c0-1.9,0.7-3.5,2.1-4.9c1.4-1.3,3.1-2,5-2c2,0,3.6,0.7,5,2s2.1,3,2.1,4.9V922.4z M253.6,906.6c0-0.7-0.3-1.3-0.8-1.8
			s-1.1-0.7-1.8-0.7s-1.3,0.2-1.8,0.7s-0.7,1.1-0.7,1.8v15.7c0,0.7,0.2,1.3,0.7,1.8s1.1,0.7,1.8,0.7s1.3-0.2,1.8-0.7
			s0.8-1.1,0.8-1.8V906.6z"/>
		<path class="st0" d="M265.6,929v-22.2h-3.8v-3c1.1-0.1,2.1-0.5,3.1-1.2s1.7-1.5,2.1-2.4h3.1V929H265.6z"/>
		<path class="st0" d="M288.2,922.4c0,1.9-0.7,3.5-2.1,4.9c-1.4,1.3-3.1,2-5,2c-2,0-3.6-0.7-5-2s-2.1-3-2.1-4.9v-15.7
			c0-1.9,0.7-3.5,2.1-4.9c1.4-1.3,3.1-2,5-2c2,0,3.6,0.7,5,2s2.1,3,2.1,4.9V922.4z M283.6,906.6c0-0.7-0.3-1.3-0.8-1.8
			s-1.1-0.7-1.8-0.7c-0.7,0-1.3,0.2-1.8,0.7s-0.7,1.1-0.7,1.8v15.7c0,0.7,0.2,1.3,0.7,1.8s1.1,0.7,1.8,0.7c0.7,0,1.3-0.2,1.8-0.7
			s0.8-1.1,0.8-1.8V906.6z"/>
		<path class="st0" d="M295.6,929v-22.2h-3.8v-3c1.1-0.1,2.1-0.5,3.1-1.2s1.7-1.5,2.1-2.4h3.1V929H295.6z"/>
		<path class="st0" d="M318,665c0,1.9-0.7,3.5-2.1,4.9c-1.4,1.3-3.1,2-5,2c-2,0-3.6-0.7-5-2s-2.1-3-2.1-4.9v-15.7
			c0-1.9,0.7-3.5,2.1-4.9c1.4-1.3,3.1-2,5-2c2,0,3.6,0.7,5,2s2.1,3,2.1,4.9V665z M313.4,649.2c0-0.7-0.3-1.3-0.8-1.8
			s-1.1-0.7-1.8-0.7c-0.7,0-1.3,0.2-1.8,0.7s-0.7,1.1-0.7,1.8v15.7c0,0.7,0.2,1.3,0.7,1.8s1.1,0.7,1.8,0.7c0.7,0,1.3-0.2,1.8-0.7
			s0.8-1.1,0.8-1.8V649.2z"/>
		<path class="st0" d="M325.5,671.5v-22.2h-3.8v-3c1.1-0.1,2.1-0.5,3.1-1.2s1.7-1.5,2.1-2.4h3.1v28.8L325.5,671.5L325.5,671.5z"/>
		<path class="st0" d="M218.4,793.9c0,1.9-0.7,3.5-2.1,4.9c-1.4,1.3-3.1,2-5,2c-2,0-3.6-0.7-5-2s-2.1-3-2.1-4.9v-15.7
			c0-1.9,0.7-3.5,2.1-4.9c1.4-1.3,3.1-2,5-2c2,0,3.6,0.7,5,2s2.1,3,2.1,4.9V793.9z M213.8,778.1c0-0.7-0.3-1.3-0.8-1.8
			s-1.1-0.7-1.8-0.7s-1.3,0.2-1.8,0.7s-0.7,1.1-0.7,1.8v15.7c0,0.7,0.2,1.3,0.7,1.8s1.1,0.7,1.8,0.7s1.3-0.2,1.8-0.7
			s0.8-1.1,0.8-1.8V778.1z"/>
		<path class="st0" d="M366,665c0,1.9-0.7,3.5-2.1,4.9c-1.4,1.3-3.1,2-5,2c-2,0-3.6-0.7-5-2s-2.1-3-2.1-4.9v-15.7
			c0-1.9,0.7-3.5,2.1-4.9c1.4-1.3,3.1-2,5-2c2,0,3.6,0.7,5,2s2.1,3,2.1,4.9V665z M361.4,649.2c0-0.7-0.3-1.3-0.8-1.8
			s-1.1-0.7-1.8-0.7c-0.7,0-1.3,0.2-1.8,0.7s-0.7,1.1-0.7,1.8v15.7c0,0.7,0.2,1.3,0.7,1.8s1.1,0.7,1.8,0.7c0.7,0,1.3-0.2,1.8-0.7
			s0.8-1.1,0.8-1.8V649.2z"/>
		<path class="st0" d="M384,665c0,1.9-0.7,3.5-2.1,4.9c-1.4,1.3-3.1,2-5,2c-2,0-3.6-0.7-5-2s-2.1-3-2.1-4.9v-15.7
			c0-1.9,0.7-3.5,2.1-4.9c1.4-1.3,3.1-2,5-2c2,0,3.6,0.7,5,2s2.1,3,2.1,4.9V665z M379.4,649.2c0-0.7-0.3-1.3-0.8-1.8
			s-1.1-0.7-1.8-0.7c-0.7,0-1.3,0.2-1.8,0.7s-0.7,1.1-0.7,1.8v15.7c0,0.7,0.2,1.3,0.7,1.8s1.1,0.7,1.8,0.7c0.7,0,1.3-0.2,1.8-0.7
			s0.8-1.1,0.8-1.8V649.2z"/>
		<path class="st0" d="M391.5,753.3v-22.2h-3.8v-3c1.1-0.1,2.1-0.5,3.1-1.2s1.7-1.5,2.1-2.4h3.1v28.8L391.5,753.3L391.5,753.3z"/>
		<path class="st0" d="M414,746.7c0,1.9-0.7,3.5-2.1,4.9c-1.4,1.3-3.1,2-5,2c-2,0-3.6-0.7-5-2s-2.1-3-2.1-4.9V731
			c0-1.9,0.7-3.5,2.1-4.9c1.4-1.3,3.1-2,5-2c2,0,3.6,0.7,5,2s2.1,3,2.1,4.9V746.7z M409.4,730.9c0-0.7-0.3-1.3-0.8-1.8
			s-1.1-0.7-1.8-0.7c-0.7,0-1.3,0.2-1.8,0.7s-0.7,1.1-0.7,1.8v15.7c0,0.7,0.2,1.3,0.7,1.8s1.1,0.7,1.8,0.7c0.7,0,1.3-0.2,1.8-0.7
			s0.8-1.1,0.8-1.8V730.9z"/>
		<path class="st0" d="M421.5,753.3v-22.2h-3.8v-3c1.1-0.1,2.1-0.5,3.1-1.2s1.7-1.5,2.1-2.4h3.1v28.8L421.5,753.3L421.5,753.3z"/>
		<path class="st0" d="M444,746.7c0,1.9-0.7,3.5-2.1,4.9c-1.4,1.3-3.1,2-5,2c-2,0-3.6-0.7-5-2s-2.1-3-2.1-4.9V731
			c0-1.9,0.7-3.5,2.1-4.9c1.4-1.3,3.1-2,5-2c2,0,3.6,0.7,5,2s2.1,3,2.1,4.9V746.7z M439.4,730.9c0-0.7-0.3-1.3-0.8-1.8
			s-1.1-0.7-1.8-0.7c-0.7,0-1.3,0.2-1.8,0.7s-0.7,1.1-0.7,1.8v15.7c0,0.7,0.2,1.3,0.7,1.8s1.1,0.7,1.8,0.7c0.7,0,1.3-0.2,1.8-0.7
			s0.8-1.1,0.8-1.8V730.9z"/>
		<path class="st0" d="M451.4,753.3v-22.2h-3.8v-3c1.1-0.1,2.1-0.5,3.1-1.2s1.7-1.5,2.1-2.4h3.1v28.8L451.4,753.3L451.4,753.3z"/>
		<path class="st0" d="M474,746.7c0,1.9-0.7,3.5-2.1,4.9c-1.4,1.3-3.1,2-5,2c-2,0-3.6-0.7-5-2s-2.1-3-2.1-4.9V731
			c0-1.9,0.7-3.5,2.1-4.9c1.4-1.3,3.1-2,5-2c2,0,3.6,0.7,5,2s2.1,3,2.1,4.9V746.7z M469.4,730.9c0-0.7-0.3-1.3-0.8-1.8
			s-1.1-0.7-1.8-0.7c-0.7,0-1.3,0.2-1.8,0.7s-0.7,1.1-0.7,1.8v15.7c0,0.7,0.2,1.3,0.7,1.8s1.1,0.7,1.8,0.7c0.7,0,1.3-0.2,1.8-0.7
			s0.8-1.1,0.8-1.8V730.9z"/>
		<path class="st0" d="M481.4,753.3v-22.2h-3.8v-3c1.1-0.1,2.1-0.5,3.1-1.2s1.7-1.5,2.1-2.4h3.1v28.8L481.4,753.3L481.4,753.3z"/>
		<path class="st0" d="M504,746.7c0,1.9-0.7,3.5-2.1,4.9c-1.4,1.3-3.1,2-5,2c-2,0-3.6-0.7-5-2s-2.1-3-2.1-4.9V731
			c0-1.9,0.7-3.5,2.1-4.9c1.4-1.3,3.1-2,5-2c2,0,3.6,0.7,5,2s2.1,3,2.1,4.9V746.7z M499.3,730.9c0-0.7-0.3-1.3-0.8-1.8
			s-1.1-0.7-1.8-0.7c-0.7,0-1.3,0.2-1.8,0.7s-0.7,1.1-0.7,1.8v15.7c0,0.7,0.2,1.3,0.7,1.8s1.1,0.7,1.8,0.7c0.7,0,1.3-0.2,1.8-0.7
			s0.8-1.1,0.8-1.8V730.9z"/>
		<path class="st0" d="M454.8,873.9c0,1.9-0.7,3.5-2.1,4.9c-1.4,1.3-3.1,2-5,2c-2,0-3.6-0.7-5-2s-2.1-3-2.1-4.9v-15.7
			c0-1.9,0.7-3.5,2.1-4.9c1.4-1.3,3.1-2,5-2c2,0,3.6,0.7,5,2s2.1,3,2.1,4.9V873.9z M450.1,858.1c0-0.7-0.3-1.3-0.8-1.8
			s-1.1-0.7-1.8-0.7c-0.7,0-1.3,0.2-1.8,0.7s-0.7,1.1-0.7,1.8v15.7c0,0.7,0.2,1.3,0.7,1.8s1.1,0.7,1.8,0.7c0.7,0,1.3-0.2,1.8-0.7
			s0.8-1.1,0.8-1.8V858.1z"/>
		<path class="st0" d="M472.8,873.9c0,1.9-0.7,3.5-2.1,4.9c-1.4,1.3-3.1,2-5,2c-2,0-3.6-0.7-5-2s-2.1-3-2.1-4.9v-15.7
			c0-1.9,0.7-3.5,2.1-4.9c1.4-1.3,3.1-2,5-2c2,0,3.6,0.7,5,2s2.1,3,2.1,4.9V873.9z M468.2,858.1c0-0.7-0.3-1.3-0.8-1.8
			s-1.1-0.7-1.8-0.7c-0.7,0-1.3,0.2-1.8,0.7s-0.7,1.1-0.7,1.8v15.7c0,0.7,0.2,1.3,0.7,1.8s1.1,0.7,1.8,0.7c0.7,0,1.3-0.2,1.8-0.7
			s0.8-1.1,0.8-1.8V858.1z"/>
		<path class="st0" d="M490.8,873.9c0,1.9-0.7,3.5-2.1,4.9c-1.4,1.3-3.1,2-5,2c-2,0-3.6-0.7-5-2s-2.1-3-2.1-4.9v-15.7
			c0-1.9,0.7-3.5,2.1-4.9c1.4-1.3,3.1-2,5-2c2,0,3.6,0.7,5,2s2.1,3,2.1,4.9V873.9z M486.2,858.1c0-0.7-0.3-1.3-0.8-1.8
			s-1.1-0.7-1.8-0.7c-0.7,0-1.3,0.2-1.8,0.7s-0.7,1.1-0.7,1.8v15.7c0,0.7,0.2,1.3,0.7,1.8s1.1,0.7,1.8,0.7c0.7,0,1.3-0.2,1.8-0.7
			s0.8-1.1,0.8-1.8V858.1z"/>
		<path class="st0" d="M510,1056.3c0,1.9-0.7,3.5-2.1,4.9c-1.4,1.3-3.1,2-5,2c-2,0-3.6-0.7-5-2s-2.1-3-2.1-4.9v-15.7
			c0-1.9,0.7-3.5,2.1-4.9c1.4-1.3,3.1-2,5-2c2,0,3.6,0.7,5,2s2.1,3,2.1,4.9V1056.3z M505.4,1040.5c0-0.7-0.3-1.3-0.8-1.8
			s-1.1-0.7-1.8-0.7c-0.7,0-1.3,0.2-1.8,0.7s-0.7,1.1-0.7,1.8v15.7c0,0.7,0.2,1.3,0.7,1.8s1.1,0.7,1.8,0.7c0.7,0,1.3-0.2,1.8-0.7
			s0.8-1.1,0.8-1.8V1040.5z"/>
		<path class="st0" d="M526.8,873.9c0,1.9-0.7,3.5-2.1,4.9c-1.4,1.3-3.1,2-5,2c-2,0-3.6-0.7-5-2s-2.1-3-2.1-4.9v-15.7
			c0-1.9,0.7-3.5,2.1-4.9c1.4-1.3,3.1-2,5-2c2,0,3.6,0.7,5,2s2.1,3,2.1,4.9V873.9z M522.2,858.1c0-0.7-0.3-1.3-0.8-1.8
			s-1.1-0.7-1.8-0.7s-1.3,0.2-1.8,0.7s-0.7,1.1-0.7,1.8v15.7c0,0.7,0.2,1.3,0.7,1.8s1.1,0.7,1.8,0.7s1.3-0.2,1.8-0.7
			s0.8-1.1,0.8-1.8V858.1z"/>
		<path class="st0" d="M544.9,873.9c0,1.9-0.7,3.5-2.1,4.9c-1.4,1.3-3.1,2-5,2c-2,0-3.6-0.7-5-2s-2.1-3-2.1-4.9v-15.7
			c0-1.9,0.7-3.5,2.1-4.9c1.4-1.3,3.1-2,5-2c2,0,3.6,0.7,5,2s2.1,3,2.1,4.9V873.9z M540.2,858.1c0-0.7-0.3-1.3-0.8-1.8
			s-1.1-0.7-1.8-0.7s-1.3,0.2-1.8,0.7s-0.7,1.1-0.7,1.8v15.7c0,0.7,0.2,1.3,0.7,1.8s1.1,0.7,1.8,0.7s1.3-0.2,1.8-0.7
			s0.8-1.1,0.8-1.8V858.1z"/>
		<path class="st0" d="M619.5,671.5v-22.2h-3.8v-3c1.1-0.1,2.1-0.5,3.1-1.2s1.7-1.5,2.1-2.4h3.1v28.8L619.5,671.5L619.5,671.5z"/>
		<path class="st0" d="M631.5,671.5v-22.2h-3.8v-3c1.1-0.1,2.1-0.5,3.1-1.2s1.7-1.5,2.1-2.4h3.1v28.8L631.5,671.5L631.5,671.5z"/>
		<path class="st0" d="M643.4,671.5v-22.2h-3.8v-3c1.1-0.1,2.1-0.5,3.1-1.2s1.7-1.5,2.1-2.4h3.1v28.8L643.4,671.5L643.4,671.5z"/>
		<path class="st0" d="M655.3,671.5v-22.2h-3.8v-3c1.1-0.1,2.1-0.5,3.1-1.2s1.7-1.5,2.1-2.4h3.1v28.8L655.3,671.5L655.3,671.5z"/>
		<path class="st0" d="M667.3,671.5v-22.2h-3.8v-3c1.1-0.1,2.1-0.5,3.1-1.2s1.7-1.5,2.1-2.4h3.1v28.8L667.3,671.5L667.3,671.5z"/>
		<path class="st0" d="M588.2,790.1V768h-3.8v-3c1.1-0.1,2.1-0.5,3.1-1.2s1.7-1.5,2.1-2.4h3.1v28.8L588.2,790.1L588.2,790.1z"/>
		<path class="st0" d="M701.8,665c0,1.9-0.7,3.5-2.1,4.9c-1.4,1.3-3.1,2-5,2c-2,0-3.6-0.7-5-2s-2.1-3-2.1-4.9v-15.7
			c0-1.9,0.7-3.5,2.1-4.9c1.4-1.3,3.1-2,5-2c2,0,3.6,0.7,5,2s2.1,3,2.1,4.9V665z M697.1,649.2c0-0.7-0.3-1.3-0.8-1.8
			s-1.1-0.7-1.8-0.7s-1.3,0.2-1.8,0.7s-0.7,1.1-0.7,1.8v15.7c0,0.7,0.2,1.3,0.7,1.8s1.1,0.7,1.8,0.7s1.3-0.2,1.8-0.7
			s0.8-1.1,0.8-1.8V649.2z"/>
		<path class="st0" d="M719.8,665c0,1.9-0.7,3.5-2.1,4.9c-1.4,1.3-3.1,2-5,2c-2,0-3.6-0.7-5-2s-2.1-3-2.1-4.9v-15.7
			c0-1.9,0.7-3.5,2.1-4.9c1.4-1.3,3.1-2,5-2c2,0,3.6,0.7,5,2s2.1,3,2.1,4.9V665z M715.2,649.2c0-0.7-0.3-1.3-0.8-1.8
			s-1.1-0.7-1.8-0.7s-1.3,0.2-1.8,0.7s-0.7,1.1-0.7,1.8v15.7c0,0.7,0.2,1.3,0.7,1.8s1.1,0.7,1.8,0.7s1.3-0.2,1.8-0.7
			s0.8-1.1,0.8-1.8V649.2z"/>
		<path class="st0" d="M727.2,671.5v-22.2h-3.8v-3c1.1-0.1,2.1-0.5,3.1-1.2s1.7-1.5,2.1-2.4h3.1v28.8L727.2,671.5L727.2,671.5z"/>
		<path class="st0" d="M749.8,665c0,1.9-0.7,3.5-2.1,4.9c-1.4,1.3-3.1,2-5,2c-2,0-3.6-0.7-5-2s-2.1-3-2.1-4.9v-15.7
			c0-1.9,0.7-3.5,2.1-4.9c1.4-1.3,3.1-2,5-2c2,0,3.6,0.7,5,2s2.1,3,2.1,4.9V665z M745.1,649.2c0-0.7-0.3-1.3-0.8-1.8
			s-1.1-0.7-1.8-0.7s-1.3,0.2-1.8,0.7s-0.7,1.1-0.7,1.8v15.7c0,0.7,0.2,1.3,0.7,1.8s1.1,0.7,1.8,0.7s1.3-0.2,1.8-0.7
			s0.8-1.1,0.8-1.8V649.2z"/>
		<path class="st0" d="M757.2,671.5v-22.2h-3.8v-3c1.1-0.1,2.1-0.5,3.1-1.2s1.7-1.5,2.1-2.4h3.1v28.8L757.2,671.5L757.2,671.5z"/>
		<path class="st0" d="M769.1,671.5v-22.2h-3.8v-3c1.1-0.1,2.1-0.5,3.1-1.2s1.7-1.5,2.1-2.4h3.1v28.8L769.1,671.5L769.1,671.5z"/>
		<path class="st0" d="M862.8,953.9v-22.2H859v-3c1.1-0.1,2.1-0.5,3.1-1.2s1.7-1.5,2.1-2.4h3.1v28.8L862.8,953.9L862.8,953.9z"/>
		<path class="st0" d="M874.7,953.9v-22.2h-3.8v-3c1.1-0.1,2.1-0.5,3.1-1.2s1.7-1.5,2.1-2.4h3.1v28.8L874.7,953.9L874.7,953.9z"/>
		<path class="st0" d="M897.3,947.3c0,1.9-0.7,3.5-2.1,4.9c-1.4,1.3-3.1,2-5,2c-2,0-3.6-0.7-5-2s-2.1-3-2.1-4.9v-15.7
			c0-1.9,0.7-3.5,2.1-4.9c1.4-1.3,3.1-2,5-2c2,0,3.6,0.7,5,2s2.1,3,2.1,4.9V947.3z M892.6,931.5c0-0.7-0.3-1.3-0.8-1.8
			s-1.1-0.7-1.8-0.7s-1.3,0.2-1.8,0.7s-0.7,1.1-0.7,1.8v15.7c0,0.7,0.2,1.3,0.7,1.8s1.1,0.7,1.8,0.7s1.3-0.2,1.8-0.7
			s0.8-1.1,0.8-1.8V931.5z"/>
		<path class="st0" d="M600.2,973c0,1.9-0.7,3.5-2.1,4.9c-1.4,1.3-3.1,2-5,2c-2,0-3.6-0.7-5-2s-2.1-3-2.1-4.9v-15.7
			c0-1.9,0.7-3.5,2.1-4.9c1.4-1.3,3.1-2,5-2c2,0,3.6,0.7,5,2s2.1,3,2.1,4.9V973z M595.6,957.2c0-0.7-0.3-1.3-0.8-1.8
			s-1.1-0.7-1.8-0.7s-1.3,0.2-1.8,0.7s-0.7,1.1-0.7,1.8V973c0,0.7,0.2,1.3,0.7,1.8s1.1,0.7,1.8,0.7s1.3-0.2,1.8-0.7s0.8-1.1,0.8-1.8
			V957.2z"/>
		<path class="st0" d="M268.4,445v-22.2h-3.8v-3c1.1-0.1,2.1-0.5,3.1-1.2s1.7-1.5,2.1-2.4h3.1V445H268.4z"/>
		<path class="st0" d="M291,438.4c0,1.9-0.7,3.5-2.1,4.9c-1.4,1.3-3.1,2-5,2c-2,0-3.6-0.7-5-2s-2.1-3-2.1-4.9v-15.7
			c0-1.9,0.7-3.5,2.1-4.9c1.4-1.3,3.1-2,5-2c2,0,3.6,0.7,5,2s2.1,3,2.1,4.9V438.4z M286.3,422.6c0-0.7-0.3-1.3-0.8-1.8
			s-1.1-0.7-1.8-0.7c-0.7,0-1.3,0.2-1.8,0.7s-0.7,1.1-0.7,1.8v15.7c0,0.7,0.2,1.3,0.7,1.8s1.1,0.7,1.8,0.7c0.7,0,1.3-0.2,1.8-0.7
			s0.8-1.1,0.8-1.8V422.6z"/>
		<path class="st0" d="M298.4,445v-22.2h-3.8v-3c1.1-0.1,2.1-0.5,3.1-1.2s1.7-1.5,2.1-2.4h3.1V445H298.4z"/>
		<path class="st0" d="M162.5,484.6c0,1.9-0.7,3.5-2.1,4.9c-1.4,1.3-3.1,2-5,2c-2,0-3.6-0.7-5-2s-2.1-3-2.1-4.9v-15.7
			c0-1.9,0.7-3.5,2.1-4.9c1.4-1.3,3.1-2,5-2c2,0,3.6,0.7,5,2s2.1,3,2.1,4.9V484.6z M157.8,468.8c0-0.7-0.3-1.3-0.8-1.8
			s-1.1-0.7-1.8-0.7s-1.3,0.2-1.8,0.7s-0.7,1.1-0.7,1.8v15.7c0,0.7,0.2,1.3,0.7,1.8s1.1,0.7,1.8,0.7s1.3-0.2,1.8-0.7
			s0.8-1.1,0.8-1.8V468.8z"/>
		<path class="st0" d="M328.4,445v-22.2h-3.8v-3c1.1-0.1,2.1-0.5,3.1-1.2s1.7-1.5,2.1-2.4h3.1V445H328.4z"/>
		<path class="st0" d="M350.9,438.4c0,1.9-0.7,3.5-2.1,4.9c-1.4,1.3-3.1,2-5,2c-2,0-3.6-0.7-5-2s-2.1-3-2.1-4.9v-15.7
			c0-1.9,0.7-3.5,2.1-4.9c1.4-1.3,3.1-2,5-2c2,0,3.6,0.7,5,2s2.1,3,2.1,4.9V438.4z M346.3,422.6c0-0.7-0.3-1.3-0.8-1.8
			s-1.1-0.7-1.8-0.7c-0.7,0-1.3,0.2-1.8,0.7s-0.7,1.1-0.7,1.8v15.7c0,0.7,0.2,1.3,0.7,1.8s1.1,0.7,1.8,0.7c0.7,0,1.3-0.2,1.8-0.7
			s0.8-1.1,0.8-1.8V422.6z"/>
		<path class="st0" d="M369,438.4c0,1.9-0.7,3.5-2.1,4.9c-1.4,1.3-3.1,2-5,2c-2,0-3.6-0.7-5-2s-2.1-3-2.1-4.9v-15.7
			c0-1.9,0.7-3.5,2.1-4.9c1.4-1.3,3.1-2,5-2c2,0,3.6,0.7,5,2s2.1,3,2.1,4.9V438.4z M364.3,422.6c0-0.7-0.3-1.3-0.8-1.8
			s-1.1-0.7-1.8-0.7c-0.7,0-1.3,0.2-1.8,0.7s-0.7,1.1-0.7,1.8v15.7c0,0.7,0.2,1.3,0.7,1.8s1.1,0.7,1.8,0.7c0.7,0,1.3-0.2,1.8-0.7
			s0.8-1.1,0.8-1.8V422.6z"/>
		<path class="st0" d="M286.2,141.9c0,1.9-0.7,3.5-2.1,4.9c-1.4,1.3-3.1,2-5,2c-2,0-3.6-0.7-5-2s-2.1-3-2.1-4.9v-15.7
			c0-1.9,0.7-3.5,2.1-4.9c1.4-1.3,3.1-2,5-2c2,0,3.6,0.7,5,2s2.1,3,2.1,4.9V141.9z M281.6,126.1c0-0.7-0.3-1.3-0.8-1.8
			s-1.1-0.7-1.8-0.7c-0.7,0-1.3,0.2-1.8,0.7s-0.7,1.1-0.7,1.8v15.7c0,0.7,0.2,1.3,0.7,1.8s1.1,0.7,1.8,0.7c0.7,0,1.3-0.2,1.8-0.7
			s0.8-1.1,0.8-1.8V126.1z"/>
		<path class="st0" d="M293.7,148.4v-22.2h-3.8v-3c1.1-0.1,2.1-0.5,3.1-1.2s1.7-1.5,2.1-2.4h3.1v28.8H293.7z"/>
		<path class="st0" d="M417,438.4c0,1.9-0.7,3.5-2.1,4.9c-1.4,1.3-3.1,2-5,2c-2,0-3.6-0.7-5-2s-2.1-3-2.1-4.9v-15.7
			c0-1.9,0.7-3.5,2.1-4.9c1.4-1.3,3.1-2,5-2c2,0,3.6,0.7,5,2s2.1,3,2.1,4.9V438.4z M412.3,422.6c0-0.7-0.3-1.3-0.8-1.8
			s-1.1-0.7-1.8-0.7c-0.7,0-1.3,0.2-1.8,0.7s-0.7,1.1-0.7,1.8v15.7c0,0.7,0.2,1.3,0.7,1.8s1.1,0.7,1.8,0.7c0.7,0,1.3-0.2,1.8-0.7
			s0.8-1.1,0.8-1.8V422.6z"/>
		<path class="st0" d="M424.4,445v-22.2h-3.8v-3c1.1-0.1,2.1-0.5,3.1-1.2s1.7-1.5,2.1-2.4h3.1V445H424.4z"/>
		<path class="st0" d="M373.9,330.7c0,1.9-0.7,3.5-2.1,4.9c-1.4,1.3-3.1,2-5,2c-2,0-3.6-0.7-5-2s-2.1-3-2.1-4.9V315
			c0-1.9,0.7-3.5,2.1-4.9c1.4-1.3,3.1-2,5-2c2,0,3.6,0.7,5,2s2.1,3,2.1,4.9V330.7z M369.2,314.9c0-0.7-0.3-1.3-0.8-1.8
			s-1.1-0.7-1.8-0.7c-0.7,0-1.3,0.2-1.8,0.7s-0.7,1.1-0.7,1.8v15.7c0,0.7,0.2,1.3,0.7,1.8s1.1,0.7,1.8,0.7c0.7,0,1.3-0.2,1.8-0.7
			s0.8-1.1,0.8-1.8V314.9z"/>
		<path class="st0" d="M381.3,337.2V315h-3.8v-3c1.1-0.1,2.1-0.5,3.1-1.2s1.7-1.5,2.1-2.4h3.1v28.8L381.3,337.2L381.3,337.2z"/>
		<path class="st0" d="M403.9,330.7c0,1.9-0.7,3.5-2.1,4.9c-1.4,1.3-3.1,2-5,2c-2,0-3.6-0.7-5-2s-2.1-3-2.1-4.9V315
			c0-1.9,0.7-3.5,2.1-4.9c1.4-1.3,3.1-2,5-2c2,0,3.6,0.7,5,2s2.1,3,2.1,4.9V330.7z M399.2,314.9c0-0.7-0.3-1.3-0.8-1.8
			s-1.1-0.7-1.8-0.7c-0.7,0-1.3,0.2-1.8,0.7s-0.7,1.1-0.7,1.8v15.7c0,0.7,0.2,1.3,0.7,1.8s1.1,0.7,1.8,0.7c0.7,0,1.3-0.2,1.8-0.7
			s0.8-1.1,0.8-1.8V314.9z"/>
		<path class="st0" d="M411.3,337.2V315h-3.8v-3c1.1-0.1,2.1-0.5,3.1-1.2s1.7-1.5,2.1-2.4h3.1v28.8L411.3,337.2L411.3,337.2z"/>
		<path class="st0" d="M308.1,41.4c0,1.9-0.7,3.5-2.1,4.9c-1.4,1.3-3.1,2-5,2c-2,0-3.6-0.7-5-2s-2.1-3-2.1-4.9V25.7
			c0-1.9,0.7-3.5,2.1-4.9c1.4-1.3,3.1-2,5-2c2,0,3.6,0.7,5,2s2.1,3,2.1,4.9V41.4z M303.5,25.6c0-0.7-0.3-1.3-0.8-1.8
			s-1.1-0.7-1.8-0.7c-0.7,0-1.3,0.2-1.8,0.7s-0.7,1.1-0.7,1.8v15.7c0,0.7,0.2,1.3,0.7,1.8s1.1,0.7,1.8,0.7c0.7,0,1.3-0.2,1.8-0.7
			s0.8-1.1,0.8-1.8V25.6z"/>
		<path class="st0" d="M315.5,48V25.8h-3.8v-3c1.1-0.1,2.1-0.5,3.1-1.2s1.7-1.5,2.1-2.4h3.1V48H315.5z"/>
		<path class="st0" d="M338.1,41.4c0,1.9-0.7,3.5-2.1,4.9c-1.4,1.3-3.1,2-5,2c-2,0-3.6-0.7-5-2s-2.1-3-2.1-4.9V25.7
			c0-1.9,0.7-3.5,2.1-4.9c1.4-1.3,3.1-2,5-2c2,0,3.6,0.7,5,2s2.1,3,2.1,4.9V41.4z M333.5,25.6c0-0.7-0.3-1.3-0.8-1.8
			s-1.1-0.7-1.8-0.7c-0.7,0-1.3,0.2-1.8,0.7s-0.7,1.1-0.7,1.8v15.7c0,0.7,0.2,1.3,0.7,1.8s1.1,0.7,1.8,0.7c0.7,0,1.3-0.2,1.8-0.7
			s0.8-1.1,0.8-1.8V25.6z"/>
		<path class="st0" d="M345.5,48V25.8h-3.8v-3c1.1-0.1,2.1-0.5,3.1-1.2s1.7-1.5,2.1-2.4h3.1V48H345.5z"/>
		<path class="st0" d="M506.9,438.4c0,1.9-0.7,3.5-2.1,4.9c-1.4,1.3-3.1,2-5,2c-2,0-3.6-0.7-5-2s-2.1-3-2.1-4.9v-15.7
			c0-1.9,0.7-3.5,2.1-4.9c1.4-1.3,3.1-2,5-2c2,0,3.6,0.7,5,2s2.1,3,2.1,4.9V438.4z M502.3,422.6c0-0.7-0.3-1.3-0.8-1.8
			s-1.1-0.7-1.8-0.7c-0.7,0-1.3,0.2-1.8,0.7s-0.7,1.1-0.7,1.8v15.7c0,0.7,0.2,1.3,0.7,1.8s1.1,0.7,1.8,0.7c0.7,0,1.3-0.2,1.8-0.7
			s0.8-1.1,0.8-1.8V422.6z"/>
		<path class="st0" d="M514.3,445v-22.2h-3.8v-3c1.1-0.1,2.1-0.5,3.1-1.2s1.7-1.5,2.1-2.4h3.1V445H514.3z"/>
		<path class="st0" d="M536.9,438.4c0,1.9-0.7,3.5-2.1,4.9c-1.4,1.3-3.1,2-5,2c-2,0-3.6-0.7-5-2s-2.1-3-2.1-4.9v-15.7
			c0-1.9,0.7-3.5,2.1-4.9c1.4-1.3,3.1-2,5-2c2,0,3.6,0.7,5,2s2.1,3,2.1,4.9V438.4z M532.3,422.6c0-0.7-0.3-1.3-0.8-1.8
			s-1.1-0.7-1.8-0.7s-1.3,0.2-1.8,0.7s-0.7,1.1-0.7,1.8v15.7c0,0.7,0.2,1.3,0.7,1.8s1.1,0.7,1.8,0.7s1.3-0.2,1.8-0.7
			s0.8-1.1,0.8-1.8V422.6z"/>
		<path class="st0" d="M544.3,445v-22.2h-3.8v-3c1.1-0.1,2.1-0.5,3.1-1.2s1.7-1.5,2.1-2.4h3.1V445H544.3z"/>
		<path class="st0" d="M566.9,438.4c0,1.9-0.7,3.5-2.1,4.9c-1.4,1.3-3.1,2-5,2c-2,0-3.6-0.7-5-2s-2.1-3-2.1-4.9v-15.7
			c0-1.9,0.7-3.5,2.1-4.9c1.4-1.3,3.1-2,5-2c2,0,3.6,0.7,5,2s2.1,3,2.1,4.9V438.4z M562.2,422.6c0-0.7-0.3-1.3-0.8-1.8
			s-1.1-0.7-1.8-0.7s-1.3,0.2-1.8,0.7s-0.7,1.1-0.7,1.8v15.7c0,0.7,0.2,1.3,0.7,1.8s1.1,0.7,1.8,0.7s1.3-0.2,1.8-0.7
			s0.8-1.1,0.8-1.8V422.6z"/>
		<path class="st0" d="M574.3,445v-22.2h-3.8v-3c1.1-0.1,2.1-0.5,3.1-1.2s1.7-1.5,2.1-2.4h3.1V445H574.3z"/>
		<path class="st0" d="M596.9,438.4c0,1.9-0.7,3.5-2.1,4.9c-1.4,1.3-3.1,2-5,2c-2,0-3.6-0.7-5-2s-2.1-3-2.1-4.9v-15.7
			c0-1.9,0.7-3.5,2.1-4.9c1.4-1.3,3.1-2,5-2c2,0,3.6,0.7,5,2s2.1,3,2.1,4.9V438.4z M592.2,422.6c0-0.7-0.3-1.3-0.8-1.8
			s-1.1-0.7-1.8-0.7s-1.3,0.2-1.8,0.7s-0.7,1.1-0.7,1.8v15.7c0,0.7,0.2,1.3,0.7,1.8s1.1,0.7,1.8,0.7s1.3-0.2,1.8-0.7
			s0.8-1.1,0.8-1.8V422.6z"/>
		<path class="st0" d="M604.3,445v-22.2h-3.8v-3c1.1-0.1,2.1-0.5,3.1-1.2s1.7-1.5,2.1-2.4h3.1V445H604.3z"/>
		<path class="st0" d="M626.8,438.4c0,1.9-0.7,3.5-2.1,4.9c-1.4,1.3-3.1,2-5,2c-2,0-3.6-0.7-5-2s-2.1-3-2.1-4.9v-15.7
			c0-1.9,0.7-3.5,2.1-4.9c1.4-1.3,3.1-2,5-2c2,0,3.6,0.7,5,2s2.1,3,2.1,4.9V438.4z M622.2,422.6c0-0.7-0.3-1.3-0.8-1.8
			s-1.1-0.7-1.8-0.7s-1.3,0.2-1.8,0.7s-0.7,1.1-0.7,1.8v15.7c0,0.7,0.2,1.3,0.7,1.8s1.1,0.7,1.8,0.7s1.3-0.2,1.8-0.7
			s0.8-1.1,0.8-1.8V422.6z"/>
		<path class="st0" d="M634.3,445v-22.2h-3.8v-3c1.1-0.1,2.1-0.5,3.1-1.2s1.7-1.5,2.1-2.4h3.1V445H634.3z"/>
		<path class="st0" d="M656.8,438.4c0,1.9-0.7,3.5-2.1,4.9c-1.4,1.3-3.1,2-5,2c-2,0-3.6-0.7-5-2s-2.1-3-2.1-4.9v-15.7
			c0-1.9,0.7-3.5,2.1-4.9c1.4-1.3,3.1-2,5-2c2,0,3.6,0.7,5,2s2.1,3,2.1,4.9V438.4z M652.2,422.6c0-0.7-0.3-1.3-0.8-1.8
			s-1.1-0.7-1.8-0.7s-1.3,0.2-1.8,0.7s-0.7,1.1-0.7,1.8v15.7c0,0.7,0.2,1.3,0.7,1.8s1.1,0.7,1.8,0.7s1.3-0.2,1.8-0.7
			s0.8-1.1,0.8-1.8V422.6z"/>
		<path class="st0" d="M674.8,438.4c0,1.9-0.7,3.5-2.1,4.9c-1.4,1.3-3.1,2-5,2c-2,0-3.6-0.7-5-2s-2.1-3-2.1-4.9v-15.7
			c0-1.9,0.7-3.5,2.1-4.9c1.4-1.3,3.1-2,5-2c2,0,3.6,0.7,5,2s2.1,3,2.1,4.9V438.4z M670.2,422.6c0-0.7-0.3-1.3-0.8-1.8
			s-1.1-0.7-1.8-0.7s-1.3,0.2-1.8,0.7s-0.7,1.1-0.7,1.8v15.7c0,0.7,0.2,1.3,0.7,1.8s1.1,0.7,1.8,0.7s1.3-0.2,1.8-0.7
			s0.8-1.1,0.8-1.8V422.6z"/>
		<path class="st0" d="M692.9,438.4c0,1.9-0.7,3.5-2.1,4.9c-1.4,1.3-3.1,2-5,2c-2,0-3.6-0.7-5-2s-2.1-3-2.1-4.9v-15.7
			c0-1.9,0.7-3.5,2.1-4.9c1.4-1.3,3.1-2,5-2c2,0,3.6,0.7,5,2s2.1,3,2.1,4.9V438.4z M688.2,422.6c0-0.7-0.3-1.3-0.8-1.8
			s-1.1-0.7-1.8-0.7s-1.3,0.2-1.8,0.7s-0.7,1.1-0.7,1.8v15.7c0,0.7,0.2,1.3,0.7,1.8s1.1,0.7,1.8,0.7s1.3-0.2,1.8-0.7
			s0.8-1.1,0.8-1.8V422.6z"/>
		<path class="st0" d="M710.9,438.4c0,1.9-0.7,3.5-2.1,4.9c-1.4,1.3-3.1,2-5,2c-2,0-3.6-0.7-5-2s-2.1-3-2.1-4.9v-15.7
			c0-1.9,0.7-3.5,2.1-4.9c1.4-1.3,3.1-2,5-2c2,0,3.6,0.7,5,2s2.1,3,2.1,4.9V438.4z M706.3,422.6c0-0.7-0.3-1.3-0.8-1.8
			s-1.1-0.7-1.8-0.7s-1.3,0.2-1.8,0.7s-0.7,1.1-0.7,1.8v15.7c0,0.7,0.2,1.3,0.7,1.8s1.1,0.7,1.8,0.7s1.3-0.2,1.8-0.7
			s0.8-1.1,0.8-1.8V422.6z"/>
		<path class="st0" d="M1209,472.6v-22.2h-3.8v-3c1.1-0.1,2.1-0.5,3.1-1.2s1.7-1.5,2.1-2.4h3.1v28.8L1209,472.6L1209,472.6z"/>
		<path class="st0" d="M1231.5,466c0,1.9-0.7,3.5-2.1,4.9c-1.4,1.3-3.1,2-5,2c-2,0-3.6-0.7-5-2s-2.1-3-2.1-4.9v-15.7
			c0-1.9,0.7-3.5,2.1-4.9s3.1-2,5-2c2,0,3.6,0.7,5,2s2.1,3,2.1,4.9V466z M1226.9,450.2c0-0.7-0.3-1.3-0.8-1.8s-1.1-0.7-1.8-0.7
			c-0.7,0-1.3,0.2-1.8,0.7s-0.7,1.1-0.7,1.8V466c0,0.7,0.2,1.3,0.7,1.8s1.1,0.7,1.8,0.7c0.7,0,1.3-0.2,1.8-0.7s0.8-1.1,0.8-1.8
			V450.2z"/>
		<path class="st0" d="M1238.9,472.6v-22.2h-3.8v-3c1.1-0.1,2.1-0.5,3.1-1.2s1.7-1.5,2.1-2.4h3.1v28.8L1238.9,472.6L1238.9,472.6z"
			/>
		<path class="st0" d="M1261.5,466c0,1.9-0.7,3.5-2.1,4.9c-1.4,1.3-3.1,2-5,2c-2,0-3.6-0.7-5-2s-2.1-3-2.1-4.9v-15.7
			c0-1.9,0.7-3.5,2.1-4.9s3.1-2,5-2c2,0,3.6,0.7,5,2s2.1,3,2.1,4.9V466z M1256.9,450.2c0-0.7-0.3-1.3-0.8-1.8s-1.1-0.7-1.8-0.7
			c-0.7,0-1.3,0.2-1.8,0.7s-0.7,1.1-0.7,1.8V466c0,0.7,0.2,1.3,0.7,1.8s1.1,0.7,1.8,0.7c0.7,0,1.3-0.2,1.8-0.7s0.8-1.1,0.8-1.8
			V450.2z"/>
		<path class="st0" d="M1268.9,472.6v-22.2h-3.8v-3c1.1-0.1,2.1-0.5,3.1-1.2s1.7-1.5,2.1-2.4h3.1v28.8L1268.9,472.6L1268.9,472.6z"
			/>
		<path class="st0" d="M1385,546.2c0,1.9-0.7,3.5-2.1,4.9c-1.4,1.3-3.1,2-5,2c-2,0-3.6-0.7-5-2s-2.1-3-2.1-4.9v-15.7
			c0-1.9,0.7-3.5,2.1-4.9c1.4-1.3,3.1-2,5-2c2,0,3.6,0.7,5,2s2.1,3,2.1,4.9V546.2z M1380.4,530.4c0-0.7-0.3-1.3-0.8-1.8
			s-1.1-0.7-1.8-0.7c-0.7,0-1.3,0.2-1.8,0.7s-0.7,1.1-0.7,1.8v15.7c0,0.7,0.2,1.3,0.7,1.8s1.1,0.7,1.8,0.7c0.7,0,1.3-0.2,1.8-0.7
			s0.8-1.1,0.8-1.8V530.4z"/>
		<path class="st0" d="M1309.5,466c0,1.9-0.7,3.5-2.1,4.9c-1.4,1.3-3.1,2-5,2c-2,0-3.6-0.7-5-2s-2.1-3-2.1-4.9v-15.7
			c0-1.9,0.7-3.5,2.1-4.9s3.1-2,5-2c2,0,3.6,0.7,5,2s2.1,3,2.1,4.9V466z M1304.9,450.2c0-0.7-0.3-1.3-0.8-1.8s-1.1-0.7-1.8-0.7
			c-0.7,0-1.3,0.2-1.8,0.7s-0.7,1.1-0.7,1.8V466c0,0.7,0.2,1.3,0.7,1.8s1.1,0.7,1.8,0.7c0.7,0,1.3-0.2,1.8-0.7s0.8-1.1,0.8-1.8
			V450.2z"/>
		<path class="st0" d="M1327.5,466c0,1.9-0.7,3.5-2.1,4.9c-1.4,1.3-3.1,2-5,2c-2,0-3.6-0.7-5-2s-2.1-3-2.1-4.9v-15.7
			c0-1.9,0.7-3.5,2.1-4.9s3.1-2,5-2c2,0,3.6,0.7,5,2s2.1,3,2.1,4.9V466z M1322.9,450.2c0-0.7-0.3-1.3-0.8-1.8s-1.1-0.7-1.8-0.7
			c-0.7,0-1.3,0.2-1.8,0.7s-0.7,1.1-0.7,1.8V466c0,0.7,0.2,1.3,0.7,1.8s1.1,0.7,1.8,0.7c0.7,0,1.3-0.2,1.8-0.7s0.8-1.1,0.8-1.8
			V450.2z"/>
		<path class="st0" d="M1377.9,347.7c0,1.9-0.7,3.5-2.1,4.9c-1.4,1.3-3.1,2-5,2c-2,0-3.6-0.7-5-2s-2.1-3-2.1-4.9V332
			c0-1.9,0.7-3.5,2.1-4.9c1.4-1.3,3.1-2,5-2c2,0,3.6,0.7,5,2s2.1,3,2.1,4.9V347.7z M1373.3,331.9c0-0.7-0.3-1.3-0.8-1.8
			s-1.1-0.7-1.8-0.7c-0.7,0-1.3,0.2-1.8,0.7s-0.7,1.1-0.7,1.8v15.7c0,0.7,0.2,1.3,0.7,1.8s1.1,0.7,1.8,0.7c0.7,0,1.3-0.2,1.8-0.7
			s0.8-1.1,0.8-1.8V331.9z"/>
		<path class="st0" d="M857.8,345.1c0,1.9-0.7,3.5-2.1,4.9c-1.4,1.3-3.1,2-5,2c-2,0-3.6-0.7-5-2s-2.1-3-2.1-4.9v-15.7
			c0-1.9,0.7-3.5,2.1-4.9s3.1-2,5-2c2,0,3.6,0.7,5,2s2.1,3,2.1,4.9V345.1z M853.2,329.3c0-0.7-0.3-1.3-0.8-1.8s-1.1-0.7-1.8-0.7
			s-1.3,0.2-1.8,0.7s-0.7,1.1-0.7,1.8V345c0,0.7,0.2,1.3,0.7,1.8s1.1,0.7,1.8,0.7s1.3-0.2,1.8-0.7s0.8-1.1,0.8-1.8V329.3z"/>
		<path class="st0" d="M755.6,169.2c0,1.9-0.7,3.5-2.1,4.9c-1.4,1.3-3.1,2-5,2c-2,0-3.6-0.7-5-2s-2.1-3-2.1-4.9v-15.7
			c0-1.9,0.7-3.5,2.1-4.9c1.4-1.3,3.1-2,5-2c2,0,3.6,0.7,5,2s2.1,3,2.1,4.9V169.2z M751,153.4c0-0.7-0.3-1.3-0.8-1.8
			s-1.1-0.7-1.8-0.7s-1.3,0.2-1.8,0.7s-0.7,1.1-0.7,1.8v15.7c0,0.7,0.2,1.3,0.7,1.8s1.1,0.7,1.8,0.7s1.3-0.2,1.8-0.7
			s0.8-1.1,0.8-1.8V153.4z"/>
		<path class="st0" d="M893.9,345.1c0,1.9-0.7,3.5-2.1,4.9c-1.4,1.3-3.1,2-5,2c-2,0-3.6-0.7-5-2s-2.1-3-2.1-4.9v-15.7
			c0-1.9,0.7-3.5,2.1-4.9s3.1-2,5-2c2,0,3.6,0.7,5,2s2.1,3,2.1,4.9V345.1z M889.2,329.3c0-0.7-0.3-1.3-0.8-1.8s-1.1-0.7-1.8-0.7
			s-1.3,0.2-1.8,0.7s-0.7,1.1-0.7,1.8V345c0,0.7,0.2,1.3,0.7,1.8s1.1,0.7,1.8,0.7s1.3-0.2,1.8-0.7s0.8-1.1,0.8-1.8V329.3z"/>
		<path class="st0" d="M901.3,351.6v-22.2h-3.8v-3c1.1-0.1,2.1-0.5,3.1-1.2s1.7-1.5,2.1-2.4h3.1v28.8L901.3,351.6L901.3,351.6z"/>
		<path class="st0" d="M913.2,351.6v-22.2h-3.8v-3c1.1-0.1,2.1-0.5,3.1-1.2s1.7-1.5,2.1-2.4h3.1v28.8L913.2,351.6L913.2,351.6z"/>
		<path class="st0" d="M925.2,351.6v-22.2h-3.8v-3c1.1-0.1,2.1-0.5,3.1-1.2s1.7-1.5,2.1-2.4h3.1v28.8L925.2,351.6L925.2,351.6z"/>
		<path class="st0" d="M987.8,246.9v-22.2H984v-3c1.1-0.1,2.1-0.5,3.1-1.2s1.7-1.5,2.1-2.4h3.1v28.8L987.8,246.9L987.8,246.9z"/>
	</g>
</g>
</svg>
