<?xml version="1.0" encoding="utf-8"?>
<!-- Generator: Adobe Illustrator 24.0.0, SVG Export Plug-In . SVG Version: 6.00 Build 0)  -->
<svg version="1.1" id="Layer_1" xmlns="http://www.w3.org/2000/svg" xmlns:xlink="http://www.w3.org/1999/xlink" x="0px" y="0px"
	 viewBox="0 0 700 500" style="enable-background:new 0 0 700 500;" xml:space="preserve">
<style type="text/css">
	.st0{fill:#E0E0E0;}
	.st1{fill:#EBEBEB;}
	.st2{fill:#F5F5F5;}
	.st3{fill:#7D1EFF;}
	.st4{opacity:0.8;}
	.st5{fill:#FFFFFF;}
	.st6{opacity:0.3;}
	.st7{fill:#FFBE9D;}
	.st8{fill:#EB996E;}
	.st9{opacity:0.6;}
	.st10{fill:#263238;}
	.st11{fill:#455A64;}
	.st12{fill:#FAFAFA;}
</style>
<g id="freepik--background-complete--inject-6">
	<path class="st0" d="M224.9,359.3c-2-2.1-5-2.9-7.7-3.9c-21.4-7.9-32.3-31.6-24.4-52.9c1.4-3.7,3.2-7.1,5.5-10.3l-0.4-2.1
		c-0.9-9.9-12.8-16.9-21.9-13c-9.1,3.9-12.2,17.4-5.7,24.8c-10.7,0.9-17.7,13-16.2,23.6s9.3,19.3,17.9,25.6
		c14.3,10.4,31.5,16.1,49.2,16.3c1.2,0.1,2.4-0.1,3.5-0.6C227.2,365.4,226.9,361.5,224.9,359.3z"/>
	<path class="st0" d="M522.2,316.2c2.5-4,2.8-9.4,0.3-13.3s-8-6-12.2-4c2.6-4.2,1.3-9.7-2.9-12.3c-4.2-2.6-9.7-1.3-12.3,2.9
		c-2.8,4.4-1.3,10.3,1.1,14.9s5.8,9,6.6,14.1s-1.2,10.7-4.4,15s-7.4,7.7-11.5,11l-0.8,0.8c7.6,2.6,16,1.9,23-2
		c3.9-2.2,7.5-5.8,7.8-10.2c0.1-2.5-0.8-5-0.4-7.5C517.1,322,520.3,319.4,522.2,316.2z"/>
	<path class="st0" d="M307.1,479.7c-3.9-0.5-7.8-2.2-10.1-5.4c-1.5-2-2.2-4.5-3.4-6.7c-1.3-2.2-3.5-4.1-6-3.9
		c-3.9,0.4-6.5,5.7-10.2,4.8c-2.3-0.6-3.3-3.2-3.4-5.6s0.7-4.7,0.4-7c-0.8-6.5-9.2-9.7-15.4-7.7c-6.2,2-15.7,9.5-19.8,14.7
		c4.3,7.1,13.1,9.9,21.1,11.9c13.5,3.4,27.1,6.3,40.9,8.6c3.2,0.5,6.5,1.1,9.7,0.6c3.2-0.5,6.4-2.2,7.9-5.1
		C315,479.6,311,480.2,307.1,479.7z"/>
	<path class="st0" d="M462,429.5c-1-5.6-6.5-10.5-12-9.2c4.6-3.8,4.6-11.3,1-16s-9.9-6.7-15.8-6.5s-11.6,2.3-17.1,4.5
		c2.7-3.4-1.3-8.8-5.6-9s-8.2,2.5-11.8,5s-7.6,5.2-11.9,4.5l4,1.6c9.6,1.5,19.4,3.7,27.7,8.8s15.2,13.3,16.7,22.9
		s-3.6,20.5-12.8,23.8c12.6,0.7,24.7-4.8,32.5-14.7C460.4,440.8,463,435.1,462,429.5z"/>
	<path class="st0" d="M144.9,285.4c-0.3-3.1-0.3-6.2-0.3-9.3c-0.1-3.1,0-6.2,0.3-9.3c0.3,3.1,0.4,6.2,0.3,9.3
		C145.3,279.1,145.2,282.3,144.9,285.4z"/>
	<path class="st0" d="M154.6,276c-3.2,0.3-6.4,0.3-9.6,0.3c-3.2,0.1-6.4,0-9.6-0.3c3.2-0.3,6.4-0.4,9.6-0.3
		C148.1,275.6,151.4,275.7,154.6,276z"/>
	<path class="st0" d="M516.4,381.1c-0.3-3.1-0.4-6.2-0.3-9.3c-0.1-3.1,0-6.2,0.3-9.3c0.3,3.1,0.3,6.2,0.3,9.3
		C516.8,374.9,516.7,378,516.4,381.1z"/>
	<path class="st0" d="M526,371.8c-3.2,0.3-6.4,0.4-9.6,0.3c-3.2,0.1-6.4,0-9.6-0.3c3.2-0.3,6.4-0.3,9.6-0.3
		C519.6,371.4,522.8,371.5,526,371.8z"/>
	<path class="st0" d="M459.9,61.5c-0.3-3.1-0.4-6.2-0.3-9.3c-0.1-3.1,0-6.2,0.3-9.3c0.3,3.1,0.3,6.2,0.3,9.3
		C460.3,55.2,460.2,58.4,459.9,61.5z"/>
	<path class="st0" d="M469.5,52.1c-3.2,0.3-6.4,0.4-9.6,0.3c-3.2,0.1-6.4,0-9.6-0.3c3.2-0.3,6.4-0.3,9.6-0.3
		C463.1,51.8,466.3,51.9,469.5,52.1z"/>
	<circle class="st0" cx="155.6" cy="197.9" r="5.7"/>
	<path class="st0" d="M382.8,440.2c0,3.1-2.5,5.7-5.7,5.7c-3.1,0-5.7-2.5-5.7-5.7s2.5-5.7,5.7-5.7c0,0,0,0,0,0
		C380.2,434.5,382.8,437.1,382.8,440.2C382.8,440.2,382.8,440.2,382.8,440.2z"/>
	<path class="st0" d="M435.7,332.7c0,3.1-2.5,5.7-5.7,5.7c-3.1,0-5.7-2.5-5.7-5.7c0-3.1,2.5-5.7,5.7-5.7
		C433.1,327,435.7,329.5,435.7,332.7C435.7,332.7,435.7,332.7,435.7,332.7z"/>
	<path class="st0" d="M266.6,49.3c0,3.1-2.5,5.7-5.7,5.7c-3.1,0-5.7-2.5-5.7-5.7c0-3.1,2.5-5.7,5.7-5.7
		C264.1,43.6,266.6,46.1,266.6,49.3L266.6,49.3z"/>
	<circle class="st0" cx="290.7" cy="386" r="2.9"/>
	<path class="st0" d="M224.9,371.8c0,1.6-1.3,2.9-2.8,2.9c-1.6,0-2.9-1.3-2.9-2.8c0-1.6,1.3-2.9,2.8-2.9c0,0,0,0,0,0
		C223.6,368.9,224.9,370.2,224.9,371.8C224.9,371.8,224.9,371.8,224.9,371.8z"/>
	<path class="st0" d="M295.1,55c0,1.6-1.3,2.9-2.9,2.9s-2.9-1.3-2.9-2.8s1.3-2.8,2.9-2.9C293.8,52.2,295.1,53.4,295.1,55z"/>
	<path class="st0" d="M420.4,208.9c0,1.6-1.3,2.8-2.9,2.8s-2.9-1.3-2.9-2.9c0-1.6,1.3-2.8,2.9-2.8S420.4,207.4,420.4,208.9
		L420.4,208.9z"/>
	<path class="st1" d="M147.1,46.5c0,0-6.3,3.3,2.5,16.5c8.9,13.3,14.7,19.7,14.7,19.7s1.7,3.1-1,4c-2.7,0.9-8.9,0.6-9.7,4.1
		c-0.8,3.5,2.1,6.7,7.6,9c5.5,2.3,17.3,7.7,18.4,8.2s2.2,1.9,0.5,2.8s-15.3,3.9-13.4,10.2c1.8,6.3,18.2,10.2,20,10.6
		c1.8,0.5,2.3,1.1,2.3,2.1s-4.7,1.6-8.5,2.6c-3.8,1-8,2.9-6.7,6.4s11.6,10.2,34.4,9.7l10.6-0.9l4.7-9.6c8.8-21.1,6.4-33,3.5-35.6
		s-6.1,0.7-8.4,3.9c-2.3,3.2-4.6,7.3-5.5,7s-1.3-1-1.1-2.9s2.6-18.5-2.6-22.5s-13,7.4-14.4,8.8c-1.4,1.3-2.3-0.3-2.4-1.4
		s-0.8-14.3-0.9-20.2s-1.9-9.8-5.6-10.4s-5.6,5.4-7.4,7.6c-1.8,2.2-4.1-0.5-4.1-0.5s-3.8-7.8-13-20.9S147,46.6,147,46.6"/>
	<path class="st0" d="M219.6,153.9c-6.7-9.6-18.2-27-28.2-41.9s-19-28.3-25.6-38l-7.8-11.4c-0.9-1.3-1.6-2.4-2.1-3.1
		c-0.2-0.4-0.4-0.6-0.6-0.8c-0.1-0.2-0.2-0.3-0.2-0.3l0.2,0.3l0.6,0.8l2.2,3.1c1.9,2.7,4.6,6.6,7.9,11.4c6.7,9.7,15.8,23,25.8,37.9
		c10,14.9,21.5,32.2,28.1,41.9"/>
	<path class="st0" d="M162.3,91.5c0.3,0,0.5,0.1,0.8,0.1c0.5,0.1,1.2,0.3,2,0.5c1.7,0.4,4.1,1,6.7,1.8l6.6,1.9l2,0.6
		c0.3,0,0.5,0.1,0.7,0.2c-0.3,0-0.5-0.1-0.8-0.1c-0.5-0.1-1.2-0.3-2-0.5c-1.7-0.4-4.1-1.1-6.7-1.8l-6.6-1.9l-2-0.6
		C162.7,91.7,162.5,91.6,162.3,91.5z"/>
	<path class="st0" d="M181.7,95.8c-0.1,0,1-4.9,2.4-11c1.4-6.1,2.6-10.9,2.7-10.9c0.1,0-1,4.9-2.4,11S181.8,95.8,181.7,95.8z"/>
	<path class="st0" d="M196,119.3c0.1-0.2,0.2-0.5,0.4-0.7l1-1.9c0.9-1.6,2.1-3.7,3.3-6.2s2.3-4.7,3-6.3l0.9-1.9
		c0.1-0.2,0.2-0.5,0.4-0.7c0,0.3-0.1,0.5-0.2,0.7c-0.2,0.5-0.4,1.2-0.8,2c-0.7,1.7-1.7,3.9-3,6.4s-2.5,4.6-3.4,6.2
		c-0.5,0.8-0.9,1.4-1.1,1.8C196.2,118.9,196.1,119.1,196,119.3z"/>
	<path class="st0" d="M177.6,119.3c0.2-0.1,0.5-0.1,0.7-0.1l2-0.1c1.7,0,4-0.1,6.5-0.1s4.8,0,6.5,0h2c0.2,0,0.5,0,0.7,0
		c-0.2,0.1-0.5,0.1-0.7,0.1l-2,0.1c-1.7,0.1-4,0.1-6.5,0.1s-4.8,0-6.5,0h-2C178.1,119.3,177.8,119.3,177.6,119.3z"/>
	<path class="st0" d="M187.6,141.6c0.3-0.1,0.6-0.1,0.9-0.1l2.5-0.1c2.1-0.1,5.1-0.2,8.3-0.2s6.2-0.1,8.3-0.1h2.5c0.3,0,0.6,0,0.9,0
		c-0.3,0.1-0.6,0.1-0.9,0.1l-2.5,0.1c-2.1,0.1-5.1,0.2-8.3,0.2s-6.2,0.1-8.3,0.1h-2.5C188.2,141.7,187.9,141.7,187.6,141.6z"/>
	<path class="st0" d="M210.6,141c0.1-0.3,0.3-0.6,0.4-0.9l1.2-2.4c1.1-2,2.5-4.8,4-8c1.5-3.2,2.8-6,3.7-8.1l1.1-2.5
		c0.1-0.3,0.3-0.6,0.4-0.9c-0.1,0.3-0.2,0.6-0.3,0.9c-0.2,0.6-0.6,1.5-1,2.5c-0.9,2.1-2.1,5-3.6,8.2c-1.5,3.2-3,5.9-4.1,7.9
		c-0.6,1-1,1.8-1.3,2.4C210.9,140.4,210.8,140.7,210.6,141z"/>
	<path class="st2" d="M490.5,237c-11.3-9.8-12.3-25.9-10.3-40.1c0.3-2.4,0.3-4.9,1.7-6.9s4.1-3.1,6.1-1.9c1.7,1,2.2,3.1,3,5
		c1.1,2.4,2.8,4.4,5,5.9c1.4,0.9,3.3,1.6,4.8,1c2.2-0.9,2.7-3.7,3-6.1c0.5-4.4,0.9-8.8,1.3-13.2c0.1-2.4,0.6-4.7,1.5-6.9
		c0.9-2.2,2.8-3.9,5.1-4.4c2.3-0.4,5,1.2,5.2,3.6c0,1-0.1,2-0.3,2.9c-0.1,1,0.3,2,1.2,2.5c1,0.2,2-0.1,2.7-0.8
		c2.6-2.3,4.8-4.9,6.5-7.9c1.7-3,3.8-5.7,6.2-8.2c2.5-2.4,5.8-4.1,9.2-3.9s6.8,2.6,7.3,6s-1.8,6.6-4.2,9.1
		c-3.6,3.7-7.6,6.8-12.1,9.3c-0.9,0.4-1.6,1-2,1.8c-0.7,1.5,0.6,3.2,2.1,3.9c1.7,0.8,3.6,0.8,5.4,1.2s3.7,1.4,4.2,3.3
		c0.7,2.5-1.6,4.8-3.8,6.3c-4.3,2.9-9.1,5-14.2,6.3c-1.8,0.3-3.6,0.9-5.2,1.9c-1.5,1.1-2.6,3.1-1.9,4.9s2.8,2.5,4.6,2.4
		c1.8-0.3,3.6-0.8,5.4-1.4c3.4-0.9,7.5-0.2,9.3,2.8c1.1,2.1,1.1,4.6,0.1,6.7c-1,2.1-2.5,3.9-4.2,5.4c-5.8,5.6-13,9.6-20.8,11.5
		C504.7,240.6,497.7,240.6,490.5,237"/>
	<path class="st0" d="M495.1,228.5c3.2-7.5,6.8-14.8,10.9-21.9l3.1-5.6c1-1.8,2.1-3.6,3.2-5.4c2.2-3.3,4.5-6.5,7-9.5
		c2.4-2.9,4.7-5.6,6.9-8.1s4.3-4.8,6.3-6.7c3.2-3.2,6.6-6.1,10.2-8.7c1.3-0.9,2.3-1.6,3-2.1l0.8-0.5l0.3-0.2
		c-0.1,0.1-0.2,0.1-0.3,0.2l-0.8,0.6c-0.7,0.5-1.7,1.2-2.9,2.1c-3.6,2.7-6.9,5.6-10.1,8.8c-2,2-4.1,4.3-6.3,6.8s-4.5,5.2-6.9,8.1
		c-2.5,3-4.8,6.2-6.9,9.5c-1.1,1.7-2.1,3.5-3.2,5.3l-3.1,5.6c-4,7.1-7.6,14.3-10.9,21.8"/>
	<path class="st0" d="M512.4,195.7c-0.1-0.3-0.1-0.7-0.1-1c-0.1-0.7-0.1-1.6-0.1-2.8c-0.1-2.4-0.1-5.7-0.1-9.3c0-3.6,0-6.9-0.1-9.3
		c-0.1-1.2-0.1-2.1-0.2-2.8c0-0.3,0-0.7,0-1c0.1,0.3,0.2,0.7,0.2,1c0.1,0.7,0.2,1.6,0.3,2.8c0.2,2.4,0.3,5.7,0.3,9.3s0,6.8-0.1,9.3
		v2.8C512.5,195,512.5,195.3,512.4,195.7z"/>
	<path class="st0" d="M543.3,193.3c-0.4,0-0.8,0-1.2,0c-0.8,0-1.9,0-3.3,0c-2.8,0-6.7,0.1-11,0.5c-4.3,0.3-8.1,0.8-10.9,1.3
		c-1.4,0.2-2.5,0.4-3.3,0.5c-0.4,0.1-0.8,0.1-1.2,0.2c0.4-0.2,0.8-0.3,1.2-0.3c0.8-0.2,1.9-0.4,3.3-0.7c2.8-0.5,6.6-1,10.9-1.4
		c3.7-0.3,7.3-0.4,11-0.4c1.4,0,2.5,0.1,3.3,0.2C542.5,193.1,542.9,193.2,543.3,193.3z"/>
	<path class="st0" d="M495.6,228c-0.1-0.1-0.1-0.3-0.2-0.4c-0.1-0.3-0.2-0.7-0.4-1.1c-0.3-1-0.8-2.5-1.3-4.3
		c-1.1-3.6-2.4-8.7-3.9-14.3s-2.7-10.7-3.7-14.3c-0.5-1.8-0.9-3.2-1.2-4.3c-0.1-0.5-0.2-0.9-0.3-1.2c0-0.1-0.1-0.3-0.1-0.4
		c0.1,0.1,0.1,0.3,0.2,0.4l0.4,1.1c0.4,1,0.8,2.5,1.4,4.3c1.1,3.6,2.4,8.7,3.8,14.3s2.7,10.7,3.7,14.3c0.5,1.8,0.9,3.2,1.2,4.3
		l0.3,1.2C495.5,227.7,495.6,227.9,495.6,228z"/>
	<path class="st0" d="M537.3,219.3c-0.1,0.1-0.3,0.1-0.4,0.1l-1.2,0.3l-4.5,0.9c-3.8,0.8-9,1.9-14.7,3.2c-5.7,1.3-10.9,2.4-14.7,3.1
		c-1.9,0.4-3.4,0.6-4.5,0.8l-1.2,0.2c-0.1,0-0.3,0-0.4,0l0.4-0.1l1.2-0.3l4.5-0.9c3.8-0.8,9-1.9,14.7-3.2c5.7-1.3,11-2.4,14.7-3.1
		c1.9-0.4,3.4-0.6,4.5-0.8l1.2-0.2C537,219.3,537.1,219.3,537.3,219.3z"/>
	<path class="st0" d="M403.6,68c1.8-10.4,6.8-25.7,12.7-34.4S431.5,18,442,16.5s22,3.5,26.7,12.9c2.5,5.1,3,10.9,4.8,16.3
		s5.9,10.7,11.5,11.2c5,0.4,9.8-3.2,14.8-2.3c6.4,1.3,8.9,9.1,8.9,15.7s-0.9,13.8,3.1,18.9c3.3,4.2,8.9,5.7,13.4,8.5
		c9.8,6.1,14,18.8,13,30.3s-6.3,22.2-11.9,32.3c-4.7-16.6-11.1-32.6-19-47.9c-4.5-8.7-12.9-16.1-20.2-22.7
		c-11.3-10-36.1-14.8-51-16.7S418.5,70.8,403.6,68"/>
</g>
<g id="freepik--back-screens--inject-6">
	<path class="st3" d="M303.7,80.3c-37.1,2.7-77.6,7.6-107.2,19l9.4,63.4c0,0,57.5-20.6,104.3-19.2L303.7,80.3z"/>
	<g class="st4">
		<path class="st5" d="M303.7,80.3c-37.1,2.7-77.6,7.6-107.2,19l9.4,63.4c0,0,57.5-20.6,104.3-19.2L303.7,80.3z"/>
	</g>
	<path class="st3" d="M301,135.2l-0.4,0.1l-1.1,0.1l-4,0.5c-1.8,0.2-3.9,0.5-6.4,0.8s-5.3,0.7-8.5,1.2c-12.5,1.9-29.7,5.1-48.4,10
		c-6.5,1.7-12.8,3.4-18.5,5.2l-0.3,0.1V153c-2-14.5-3.9-27.1-5.4-36c-0.8-4.4-1.4-8-1.8-10.4c-0.2-1.2-0.4-2.1-0.5-2.8
		c0-0.3-0.1-0.5-0.1-0.7c0-0.1,0-0.2,0-0.3c0,0.1,0.1,0.2,0.1,0.2c0,0.2,0.1,0.4,0.2,0.7c0.1,0.7,0.3,1.6,0.6,2.8
		c0.5,2.4,1.1,5.9,1.9,10.4c1.6,8.9,3.6,21.4,5.6,36l-0.3-0.2c5.8-1.8,12-3.6,18.5-5.2c16-4.1,32.2-7.4,48.5-9.8
		c3.1-0.5,6-0.8,8.5-1.1s4.6-0.6,6.4-0.8l4.1-0.4l1.1-0.1C300.8,135.2,300.9,135.2,301,135.2z"/>
	<path class="st3" d="M302.3,119.8c0,0-0.1-0.4-0.4-1.3c-0.5-1.2-1.1-2.3-1.9-3.3c-1.2-1.6-2.8-2.9-4.5-3.9
		c-0.5-0.3-1.1-0.6-1.6-0.8c-0.6-0.3-1.2-0.5-1.8-0.7c-1.3-0.4-2.7-0.6-4.1-0.4c-1.5,0.2-3,0.7-4.2,1.7c-1.3,1-2.5,2.2-3.4,3.7
		c-2,2.9-3.2,6.4-4.7,10.1c-0.7,1.9-1.9,3.6-3.5,5c-0.8,0.7-1.8,1.2-2.9,1.4c-1.1,0.2-2.2,0.1-3.3-0.4c-4.2-1.7-6.1-6.5-10.4-8
		c-2.1-0.7-4.4-0.5-6.3,0.5c-1,0.5-1.8,1.1-2.5,1.9c-0.7,0.8-1.2,1.7-1.7,2.7c-0.9,1.9-1.7,4-3.3,5.4c-0.8,0.7-1.8,1.2-2.9,1.3
		c-1,0.1-2.1-0.2-3-0.6c-1.7-1-3.2-2.4-4.1-4.1c-0.9-1.6-1.6-3.3-2.2-5c-0.6-1.6-1.3-3.1-2.2-4.5c-0.8-1.3-2-2.4-3.3-3.1
		c-2.4-1.3-5.2-1.3-7.6-0.2c-1.9,0.8-3.5,2-4.8,3.5c-0.8,1-1.4,2.1-1.8,3.3c-0.3,0.8-0.3,1.3-0.3,1.3c0-0.4,0.1-0.9,0.2-1.3
		c0.3-1.2,0.9-2.4,1.8-3.4c1.3-1.6,3-2.8,4.9-3.6c2.5-1.2,5.4-1.1,7.9,0.2c1.4,0.7,2.6,1.8,3.5,3.2c0.9,1.4,1.7,3,2.2,4.6
		c0.6,1.7,1.3,3.3,2.2,4.9c1,1.6,2.3,3,4,3.9c0.8,0.4,1.8,0.6,2.8,0.6c1-0.1,1.9-0.5,2.6-1.2c1.5-1.4,2.2-3.4,3.1-5.3
		c0.5-1,1-1.9,1.7-2.8c0.7-0.9,1.7-1.6,2.7-2.1c2.1-1.1,4.5-1.3,6.7-0.6c2.3,0.8,3.9,2.5,5.4,4.1c1.4,1.7,3.1,3,5,4
		c0.9,0.4,2,0.5,3,0.4c1-0.2,1.9-0.6,2.7-1.3c1.5-1.3,2.6-3,3.4-4.8c1.5-3.6,2.8-7.2,4.8-10.1c0.9-1.4,2.1-2.7,3.5-3.7
		c1.3-0.9,2.8-1.5,4.4-1.7c1.4-0.2,2.9,0,4.3,0.4c0.6,0.2,1.2,0.4,1.9,0.7c2.4,1.2,4.5,2.9,6.1,5c0.8,1,1.4,2.2,1.8,3.4
		c0.1,0.3,0.2,0.7,0.3,1C302.3,119.7,302.3,119.7,302.3,119.8z"/>
	<path class="st3" d="M204.1,111.4c0,0.1-0.5,0.3-1.1,0.5s-1.1,0.1-1.2,0s0.4-0.3,1.1-0.5C203.5,111.3,204,111.3,204.1,111.4z"/>
	<path class="st3" d="M205.7,123c0.1,0.1-0.3,0.4-0.8,0.7s-1,0.3-1,0.2s0.3-0.4,0.8-0.7C205.2,123,205.6,122.9,205.7,123z"/>
	<path class="st3" d="M207.7,135.7c0,0.1-0.3,0.4-0.8,0.6c-0.5,0.2-1,0.2-1,0.1s0.3-0.4,0.8-0.6
		C207.3,135.6,207.7,135.6,207.7,135.7z"/>
	<path class="st3" d="M210.2,148.1c0,0.1-0.4,0.4-1,0.6s-1.1,0.2-1.1,0.1c0-0.1,0.4-0.4,0.9-0.6C209.6,148,210.1,148,210.2,148.1z"
		/>
	<path class="st3" d="M280.1,88.4c0.4-0.1,0.8-0.2,1.2-0.3c0.8-0.1,2-0.3,3.5-0.5c3-0.4,7.2-1,12.3-1.6h0.2v0.2
		c0.4,4.3,0.8,9.2,1.3,14.4v0.2v0.3h-0.3l-16.6,2h-0.2v-0.2c-0.5-4.3-0.8-8-1.1-10.6c-0.1-1.2-0.2-2.2-0.3-2.9
		C280.1,89,280.1,88.6,280.1,88.4c0,0.3,0.1,0.6,0.1,1c0.1,0.7,0.2,1.7,0.4,3c0.3,2.6,0.8,6.2,1.3,10.5l-0.3-0.2l16.6-2.1l-0.2,0.3
		v-0.2c-0.5-5.2-0.9-10.1-1.3-14.4l0.3,0.2L280.1,88.4z"/>
	<path class="st3" d="M295.5,90.9c0,0.2-2.9,0.2-6.3,0.5s-6.3,1-6.3,0.8C286.9,90.9,291.2,90.4,295.5,90.9z"/>
	<path class="st3" d="M295.7,94.6c0,0.2-2.7,0.3-5.9,0.6s-5.9,0.7-5.9,0.6c1.9-0.6,3.9-1,5.9-1.1C291.7,94.4,293.7,94.4,295.7,94.6z
		"/>
	<path class="st3" d="M291.7,97.8c-1.1,0.4-2.2,0.6-3.4,0.7c-1.1,0.2-2.3,0.3-3.4,0.2c1.1-0.4,2.2-0.6,3.4-0.7
		C289.4,97.8,290.6,97.7,291.7,97.8z"/>
	<path class="st3" d="M484.4,99c-36.3-11.1-66.9-20.5-108-20.3l-6.3,64.6c42.7,3.8,57,6.6,96.4,20.9L484.4,99z"/>
	<g class="st4">
		<path class="st5" d="M484.4,99c-36.3-11.1-66.9-20.5-108-20.3l-6.3,64.6c42.7,3.8,57,6.6,96.4,20.9L484.4,99z"/>
	</g>
	<path class="st3" d="M402.3,110.1l1.6-13.7c-4-0.4-8,0.7-11.2,3.1c-4.3,3.2-6.9,8.2-6.9,13.5c0,0.7,0,1.3,0,2l0,0l0,0l16-1.8
		L402.3,110.1z"/>
	<path class="st3" d="M418.8,107.8c-1.6-5.4-5.9-9.6-11.4-10.8l-0.5-0.1l-0.3-0.1l-0.9-0.1h-0.1l-1.6,13.6l-0.4,3.2l15.1,5.5l0,0
		c0.4-1.1,0.6-2.3,0.8-3.5C419.8,113,419.6,110.3,418.8,107.8z"/>
	<g class="st6">
		<path d="M418.8,107.8c-1.6-5.4-5.9-9.6-11.4-10.8l-0.5-0.1l-0.3-0.1l-0.9-0.1h-0.1l-1.6,13.6l-0.4,3.2l15.1,5.5l0,0
			c0.4-1.1,0.6-2.3,0.8-3.5C419.8,113,419.6,110.3,418.8,107.8z"/>
	</g>
	<path class="st3" d="M402.5,115.1l-16,1.8c0.7,7.8,6.3,14.2,13.9,15.1s14.7-4,17.2-11.4L402.5,115.1"/>
	<path class="st3" d="M470.4,111.3c-0.5-0.1-1-0.3-1.4-0.6c-0.9-0.4-2.2-1-3.8-1.7c-4.2-1.8-8.5-3.3-12.9-4.5
		c-4.4-1.3-8.8-2.3-13.3-3c-1.7-0.3-3.1-0.5-4.1-0.6c-0.5,0-1-0.1-1.5-0.3c0.5,0,1,0,1.5,0.1c1,0.1,2.4,0.2,4.1,0.4
		c9.1,1.2,17.9,3.8,26.3,7.5c1.6,0.7,2.9,1.3,3.8,1.8C469.5,110.7,470,111,470.4,111.3z"/>
	<path class="st3" d="M469.3,118c-0.5-0.2-1-0.3-1.4-0.6c-0.9-0.4-2.2-1-3.8-1.6c-8.4-3.5-17.2-6.1-26.2-7.5
		c-1.7-0.3-3.1-0.5-4.1-0.6c-0.5,0-1-0.1-1.5-0.3c0.5,0,1,0,1.5,0.1c1,0.1,2.4,0.2,4.1,0.4c4.5,0.6,9,1.6,13.4,2.8
		c4.4,1.3,8.7,2.8,12.9,4.7c1.6,0.7,2.9,1.3,3.8,1.8C468.4,117.4,468.9,117.7,469.3,118z"/>
	<path class="st3" d="M468.2,124.8c-0.5-0.1-1-0.3-1.4-0.6c-0.9-0.4-2.2-1-3.8-1.7c-4.2-1.8-8.5-3.3-12.9-4.5
		c-4.4-1.3-8.8-2.3-13.3-3c-1.7-0.3-3.1-0.5-4.1-0.6c-0.5,0-1-0.1-1.5-0.3c0.5,0,1,0,1.5,0.1c1,0.1,2.4,0.2,4.1,0.4
		c4.5,0.6,9,1.6,13.4,2.8c4.4,1.3,8.7,2.8,12.9,4.7c1.6,0.7,2.9,1.3,3.8,1.8C467.3,124.2,467.8,124.5,468.2,124.8z"/>
	<path class="st3" d="M466,131.5c-0.5-0.2-0.9-0.3-1.4-0.6c-0.9-0.4-2.1-1-3.7-1.6c-8.1-3.5-16.7-6-25.4-7.5c-1.7-0.3-3-0.5-4-0.6
		c-0.5,0-1-0.1-1.5-0.3c0.5,0,1,0,1.5,0.1c1,0.1,2.3,0.2,4,0.4c4.4,0.6,8.8,1.6,13,2.8c4.3,1.3,8.5,2.8,12.5,4.7
		c1.5,0.7,2.8,1.3,3.6,1.8C465.2,131,465.6,131.2,466,131.5z"/>
	<path class="st3" d="M461.2,136.9c-0.4-0.1-0.8-0.3-1.2-0.5l-3.3-1.5c-7.2-3.3-14.9-5.5-22.8-6.5l-3.6-0.5c-0.4,0-0.9-0.1-1.3-0.2
		c0.4-0.1,0.9-0.1,1.3,0c0.9,0,2.1,0.2,3.6,0.3c8,0.8,15.7,3.1,22.9,6.5c1.4,0.7,2.5,1.2,3.3,1.6
		C460.5,136.4,460.9,136.6,461.2,136.9z"/>
	<path class="st3" d="M445.1,137.7c-0.9-0.1-1.7-0.3-2.6-0.5c-1.6-0.4-3.8-0.9-6.2-1.3s-4.7-0.7-6.3-1c-0.9-0.1-1.7-0.2-2.6-0.4
		c0.9-0.1,1.8,0,2.6,0.1c1.6,0.1,3.9,0.4,6.3,0.8c2.1,0.4,4.2,0.8,6.2,1.4C443.5,136.9,444.3,137.3,445.1,137.7z"/>
	<path class="st3" d="M382.7,86.4l0.8-0.1l2.5-0.1c2.2,0,5.4,0,9.5,0.2c11.3,0.8,22.5,2.8,33.3,6l0.2,0.1v0.2
		c-2.5,14.3-5.5,31.4-8.7,49.6c-0.1,0.7-0.3,1.5-0.4,2.2v0.3l-0.3-0.1c-7.3-1.9-14.7-3.5-22.2-4.6c-7.2-1.1-14-1.9-20.4-2.3h-0.3
		v-0.2c1.8-15.3,3.2-28.1,4.3-37.1c0.5-4.5,0.9-8,1.2-10.4c0.1-1.2,0.3-2.1,0.3-2.7c0-0.3,0.1-0.5,0.1-0.7S382.7,86.4,382.7,86.4
		c0,0.1,0,0.2,0,0.3c0,0.2,0,0.4-0.1,0.7c-0.1,0.7-0.2,1.6-0.3,2.8c-0.3,2.4-0.6,6-1.1,10.5c-1,9-2.4,21.8-4,37l-0.2-0.3
		c6.4,0.4,13.3,1.1,20.4,2.2c7.5,1.1,14.9,2.7,22.3,4.6l-0.3,0.2c0.1-0.7,0.3-1.5,0.4-2.2c3.2-18.2,6.2-35.2,8.7-49.6l0.1,0.3
		c-10.8-3.2-21.9-5.3-33.2-6.1c-4.1-0.3-7.3-0.3-9.4-0.3L382.7,86.4L382.7,86.4z"/>
</g>
<g id="freepik--Character--inject-6">
	<polyline class="st3" points="343,218.4 378.4,226.3 383.9,218.4 383,208.4 377.6,203.4 359.1,203.4 341.7,219 	"/>
	<g class="st6">
		<polyline points="343,218.4 378.4,226.3 383.9,218.4 383,208.4 377.6,203.4 359.1,203.4 341.7,219 		"/>
	</g>
	<path class="st7" d="M397,145.5l44.7-6l7-2c0,0,16.1-3.5,17.6-4.1c1.7-0.6,2.5,0.1,2.6,0.7c0.3,1-0.7,2.2-2.2,2.8
		c-0.5,0.2-8.7,3-8.7,3c0.9,0.2,1.9,0.5,2.8,0.8c2,0.7,3.8,3.2,4.8,6.1s1,3.8-0.2,4.3c-0.4,0.1-0.9,0.1-1.3-0.2
		c-0.6-0.4-1.1-1-1.3-1.7c-1.6-4.7-4.5-5.1-4.5-5.1l-0.9,0.3c0,0,3,2.1,3,4.7c0,0.4-0.1,0.7-0.2,1.1c0.7,2-0.4,4.2-2.4,4.9
		c-0.6,0.2-1.3,0.3-1.9,0.2c-0.6-0.1-1.3-0.5-1.4-1.1c0-0.3,0.1-0.7,0.2-1c0.1-0.2,0.1-0.4,0.2-0.5l-2.7,0.4c0,0-6.1,0.5-8.7,1
		l-41.8,12.6c-5.7,1.7-11.8-1.5-13.5-7.2c0-0.1,0-0.1,0-0.2l0,0c-1.6-5.8,1.7-11.7,7.5-13.4C396,145.7,396.5,145.6,397,145.5z"/>
	<path class="st7" d="M442.7,140.7c0.2,0.9,1,1.7,1.9,1.8c0.9,0.2,1.9,0.1,2.8,0.2c2.8,0.4,5,2.9,7.7,3.1c0.4,0,0.9,0,1-0.4
		s-0.2-0.7-0.5-0.9l-7-6.2"/>
	<path class="st8" d="M448.8,138.3c0.3,0.2,0.6,0.4,0.8,0.6c0.5,0.4,1.2,1,2.1,1.8l3.1,2.6l0.9,0.8c0.3,0.3,0.7,0.5,0.8,1.1
		c0,0.3-0.2,0.6-0.5,0.7c-0.2,0.1-0.5,0.1-0.8,0.1c-0.5,0-0.9-0.1-1.3-0.3c-1.5-0.6-3-1.4-4.5-2.3c-0.6-0.3-1.3-0.5-2-0.7
		c-0.6-0.1-1.3-0.1-1.9-0.1c-1,0-1.9-0.4-2.5-1.1c-0.4-0.6-0.3-1-0.3-1c0.1,0.3,0.3,0.6,0.5,0.8c0.6,0.6,1.5,0.9,2.4,0.9
		c0.6,0,1.3,0,1.9,0.1c0.7,0.1,1.5,0.3,2.1,0.6c1.4,0.8,2.9,1.6,4.4,2.2c0.4,0.1,0.8,0.2,1.2,0.2c0.4,0,0.7-0.1,0.7-0.3
		s-0.3-0.5-0.6-0.8l-0.9-0.8l-3-2.7l-2-1.9C449,138.6,448.8,138.3,448.8,138.3z"/>
	<path class="st8" d="M457.4,144.4c0.6-0.1,1.2-0.1,1.8,0c0.6,0.2,1.1,0.5,1.5,1c0.5,0.6,0.8,1.3,1.1,2.1c0.3,0.8,0.6,1.5,1,2.2
		c0.4,0.6,0.9,1.1,1.5,1.4c0.4,0.2,0.9,0.2,1.4,0c0.3-0.1,0.4-0.3,0.4-0.3s-0.2,0.1-0.4,0.2c-0.4,0.1-0.8,0.1-1.2-0.1
		c-0.5-0.3-1-0.8-1.3-1.4c-0.4-0.7-0.7-1.4-1-2.2c-0.3-0.8-0.7-1.5-1.2-2.2c-0.4-0.5-1-0.9-1.7-1.1c-0.4-0.1-0.9-0.1-1.4,0
		C457.5,144.3,457.3,144.4,457.4,144.4z"/>
	<path class="st8" d="M467.4,136.7c-0.6,0.1-1.1,0.3-1.6,0.6l-3.9,1.4l-3.9,1.4c-0.6,0.1-1.1,0.4-1.6,0.6c0.6-0.1,1.1-0.2,1.7-0.4
		c1-0.3,2.4-0.7,3.9-1.3s2.9-1.1,3.9-1.5C466.4,137.3,466.9,137,467.4,136.7z"/>
	<path class="st8" d="M456.2,146.9c0,0,0.1,0.2,0.4,0.4c0.3,0.3,0.5,0.8,0.5,1.2c0,0.3-0.2,0.5-0.5,0.7c-0.3,0.1-0.7,0.2-1.1,0.3
		c-0.5,0.1-0.9,0.3-1.2,0.6c-0.3,0.4-0.4,1-0.2,1.5c0.2,0.5,0.5,0.9,1,1.1c0.4,0.2,0.9,0.3,1.3,0.2c0.7-0.2,1.4-0.4,2.1-0.8
		c0.4-0.2,0.9-0.5,1.2-0.9c0.1-0.1,0.2-0.3,0.3-0.5c0,0-0.1,0.1-0.4,0.4c-0.4,0.3-0.8,0.6-1.2,0.8c-0.6,0.3-1.3,0.5-2,0.7
		c-0.8,0.1-1.7-0.3-2-1.1c-0.1-0.4-0.1-0.8,0.1-1.2c0.3-0.3,0.6-0.5,1-0.5c0.4-0.1,0.8-0.2,1.1-0.4c0.3-0.2,0.6-0.5,0.6-0.9
		c0-0.5-0.2-1-0.6-1.4C456.4,147,456.2,146.9,456.2,146.9z"/>
	<path class="st8" d="M455.2,152.4c0,0-0.2,0-0.4,0.2c-0.4,0.3-0.5,0.8-0.5,1.2c0.1,0.7,0.5,1.3,1.2,1.6c0.8,0.3,1.6,0.3,2.4,0
		c0.8-0.3,1.5-0.8,1.9-1.5c0.4-0.6,0.6-1.2,0.6-1.9c0-0.4,0-0.9-0.1-1.3c0-0.2-0.1-0.3-0.2-0.4c0.1,0.6,0.1,1.2,0.1,1.7
		c-0.2,1.4-1.1,2.5-2.5,3c-0.7,0.3-1.5,0.3-2.2,0c-0.6-0.2-1-0.7-1.1-1.3c-0.1-0.4,0.1-0.8,0.4-1.1
		C455.1,152.5,455.2,152.5,455.2,152.4z"/>
	<path class="st8" d="M447.8,148.8c0,0,0-0.3-0.3-0.8c-0.4-0.6-1-1.1-1.6-1.3v0.3c0.3-0.2,0.7-0.3,1-0.6c1.2-0.7,2.2-1.7,2.8-2.9
		c-0.9,1-1.9,1.8-3,2.6c-0.3,0.2-0.7,0.4-1,0.6l-0.3,0.2l0.4,0.1c0.6,0.2,1.2,0.6,1.6,1.1C447.6,148.5,447.7,148.8,447.8,148.8z"/>
	<path class="st8" d="M461.7,144c-0.1-0.1-0.5,0.5-0.6,1.3s0.3,1.4,0.4,1.4s-0.1-0.6-0.1-1.3S461.8,144.1,461.7,144z"/>
	<path class="st7" d="M253.2,159.6c0,0-6.5-10.6-7.7-11.5s-11.5-4.7-12.4-4.4s-13.4,2.4-12,3.9s10.2-0.1,10.2-0.1l1.2,0.6
		c0,0-7.6,1.2-9.1,2.1s-1,2.6,0.4,2.5c1.4-0.1,7.9-1.4,8.3-1.1s-7.1,1.8-7.9,2.2c-1.1,0.6-1.2,2.6,0.2,2.5c0.8-0.1,7.9-1.9,7.9-1.9
		c-2.1,0.8-4.1,1.7-6.1,2.7c-0.9,0.8-0.2,2,1,1.8c0.8-0.2,4.8-2.1,5.9-2.3c0,0,1,0.3,2,2.4c0.4,1,2.5,7.1,6.1,7.1
		c3.3-0.1,6.5,2.6,6.5,2.6L253.2,159.6z"/>
	<path class="st8" d="M221.2,147.6c0.7,0.4,1.5,0.6,2.3,0.6c0.9,0.1,1.7,0.2,2.6,0.1c1-0.1,2-0.3,3.1-0.4l2.3-0.3h-0.1
		c1.7,0.7,3.6,1.3,5.4,1.7c-1.7-0.9-3.4-1.6-5.2-2.2h-0.1h-0.1l-2.3,0.3l-3.1,0.4c-0.8,0.1-1.7,0.1-2.5,0
		C222.1,147.7,221.2,147.5,221.2,147.6z"/>
	<path class="st7" d="M248.3,158.3c-0.9,0.6-2,0.6-2.9,0c-0.9-0.5-1.6-1.4-2.4-2c-2.5-1.8-6.2-1.4-8.7-3.3c-0.3-0.3-0.7-0.7-0.5-1.1
		s0.7-0.4,1.1-0.4l10.3,0.2"/>
	<path class="st8" d="M245.2,151.8c-0.4-0.1-0.7-0.1-1.1-0.1c-0.7,0-1.8-0.1-3-0.2l-4.5-0.2h-1.3c-0.5-0.1-1.1,0-1.5,0.3
		c-0.3,0.3-0.3,0.7-0.2,1c0.1,0.3,0.3,0.5,0.5,0.7c0.4,0.3,0.8,0.6,1.3,0.8c1.7,0.6,3.5,1.1,5.4,1.5c0.7,0.2,1.5,0.6,2.1,1
		c0.6,0.4,1.1,0.9,1.6,1.3c0.8,0.7,1.8,1.1,2.9,1c0.8-0.1,1-0.6,1-0.6c-0.3,0.2-0.7,0.3-1,0.3c-1,0-1.9-0.4-2.6-1.1
		c-0.5-0.4-1-0.9-1.6-1.4c-0.7-0.5-1.4-0.8-2.2-1.1c-1.8-0.4-3.5-0.9-5.3-1.5c-0.4-0.2-0.8-0.4-1.2-0.7c-0.3-0.3-0.5-0.6-0.3-0.8
		s0.6-0.2,1.1-0.2h1.3h4.5c1.3,0,2.3,0,3,0C244.4,152,244.8,151.9,245.2,151.8z"/>
	<path class="st3" d="M304,393.8l-2.4,26.2l-7.9,20.2c-0.5,1.4,0.2,3,1.5,3.5c0.1,0,0.1,0,0.2,0.1l0,0c0.8,0.3,1.7,0.1,2.4-0.4
		c4.4-3.4,20.7-15.9,20.7-17.8c0.1-2.2,4.4-27.5,4.4-27.5L304,393.8z"/>
	<g class="st9">
		<path class="st5" d="M295.5,443.8l23.4-20l-0.1,1.1c-0.1,1-0.6,1.8-1.3,2.5c-1.9,1.8-7.2,6.5-19.5,16
			C297.3,443.9,296.3,444.1,295.5,443.8L295.5,443.8z"/>
	</g>
	<g class="st9">
		<path class="st5" d="M314.4,414.7c-0.7,0.4-1,1.3-0.7,2.1c0.4,0.7,1.3,1,2,0.7c0.8-0.4,1.1-1.4,0.7-2.2c-0.5-0.7-1.5-0.9-2.2-0.5"
			/>
	</g>
	<path class="st10" d="M302.8,433c-0.2,0.1-0.6-1.4-2.1-2.3c-0.9-0.5-1.9-0.8-2.9-0.9c0-0.1,0.3-0.2,1-0.3c0.8,0,1.6,0.2,2.3,0.7
		c0.7,0.4,1.2,1.1,1.6,1.8C302.8,432.6,302.8,433,302.8,433z"/>
	<path class="st10" d="M300.5,436.3c-0.1,0.1-0.9-0.9-2.2-1.4c-0.8-0.3-1.7-0.5-2.5-0.6c0.9-0.4,1.9-0.4,2.7,0.1
		C300,435,300.6,436.3,300.5,436.3z"/>
	<path class="st10" d="M306.7,428.9c-1-0.9-2.1-1.7-3.2-2.4c-1.9-1-3.8-1.2-3.8-1.4c1.4-0.2,2.8,0.1,4.1,0.8
		C305.1,426.6,306.1,427.6,306.7,428.9z"/>
	<path class="st10" d="M308.1,421c-0.1,0.1-1.5-0.6-3.3-0.9s-3.4,0-3.4-0.2C303.6,419,306.2,419.4,308.1,421z"/>
	<path class="st10" d="M309,413.3c-1.1-0.5-2.3-0.8-3.5-1c-1.2,0-2.4,0.2-3.6,0.5c0-0.1,0.3-0.4,0.9-0.6c0.8-0.4,1.8-0.5,2.7-0.4
		c0.9,0.1,1.8,0.4,2.6,0.8C308.8,412.9,309.1,413.3,309,413.3z"/>
	<path class="st10" d="M305.8,410.8c-0.1-0.3,0-0.7,0.1-1c0.2-0.9,0.6-1.7,1.1-2.5c0.3-0.6,0.9-1,1.5-1.3c0.4-0.1,0.9,0,1.2,0.4
		c0.2,0.4,0.3,0.8,0.3,1.2c-0.3,1.8-1.9,3.1-3.7,3.1c-1.8,0-3.4-1.1-4.1-2.8c-0.2-0.4-0.1-0.9,0.1-1.3c0.3-0.4,0.7-0.6,1.2-0.4
		c0.6,0.2,1.2,0.6,1.6,1.1c0.7,0.6,1.2,1.4,1.6,2.2c0.2,0.3,0.3,0.6,0.3,1c-0.6-1.1-1.3-2-2.1-2.9c-0.4-0.4-0.9-0.7-1.4-0.9
		c-0.2-0.1-0.5,0-0.6,0.2c-0.1,0.3-0.1,0.6,0,0.8c0.6,1.4,2,2.4,3.5,2.4c1.5,0,2.9-1.1,3.2-2.6c0.1-0.3,0-0.6-0.2-0.9
		c-0.1-0.2-0.4-0.3-0.7-0.2c-0.5,0.2-1,0.6-1.3,1.1C306.6,408.6,306.1,409.7,305.8,410.8z"/>
	<path class="st10" d="M328.1,409.2l19.6-155.4l-6.3-36.1l-37,2l-4.6,186.7c0,1.4,0.9,2.6,2.3,2.9l21.6,3.3
		C325.8,412.8,327.8,411.4,328.1,409.2C328.1,409.2,328.1,409.2,328.1,409.2z"/>
	<path class="st10" d="M347.2,258.9l35.7,35.3l-51.4,12.5l3.6,25.9l69.5-9.5c5.9-0.8,11.3-4,14.8-8.9l0,0c5.4-7.5,5.5-17.5,0.3-25.1
		l-54.2-79.5l-24.2,7.9L347.2,258.9z"/>
	<path class="st11" d="M345.2,249.9c0.6,1.4,1,2.9,1.2,4.4c0.4,1.5,0.7,3,0.7,4.5c-0.6-1.4-1-2.9-1.2-4.4
		C345.5,253,345.3,251.5,345.2,249.9z"/>
	<path class="st11" d="M340,310l0.9-0.3l2.5-0.8l9.6-2.9l34.9-10.5l-0.1,0.3l-42.9-45.6l0.4-0.1c-0.9,7.2-1.7,14.7-2.6,22.3
		c-4.4,37-8.6,70.5-11.8,94.7c-1.6,12.1-3,21.9-4,28.7c-0.6,3.4-1,6-1.3,7.8c-0.2,0.9-0.3,1.5-0.4,2s-0.2,0.7-0.2,0.7s0-0.2,0.1-0.7
		c0.1-0.5,0.2-1.1,0.4-2c0.4-1.8,0.7-4.4,1.2-7.8c1-6.8,2.3-16.6,3.9-28.7c3.1-24.2,7.2-57.7,11.6-94.8c0.9-7.6,1.8-15.1,2.6-22.3
		l0.1-0.6l0.4,0.4l42.7,45.7l0.2,0.2l-0.3,0.1L353,306.3l-9.6,2.8l-2.5,0.7C340.3,310,340,310,340,310z"/>
	<path class="st11" d="M328.5,406.2c-0.1,0,3.9-33,9.1-73.7c5.2-40.7,9.5-73.6,9.6-73.6c0.1,0-3.9,33-9.1,73.7
		C332.9,373.3,328.6,406.3,328.5,406.2z"/>
	<path class="st11" d="M341.4,233.5c0.4,0.8,0.6,1.6,0.8,2.4c0.4,1.5,1,3.6,1.5,5.9s0.9,4.5,1.1,6c0.2,0.8,0.3,1.7,0.3,2.5
		c-0.3-0.8-0.5-1.6-0.6-2.5c-0.4-1.7-0.8-3.7-1.3-6s-1-4.3-1.3-6C341.6,235.1,341.5,234.3,341.4,233.5z"/>
	<path class="st11" d="M343.7,230.4c0,0,0.5-0.5,1.4-0.2c0.6,0.2,1,0.7,1.1,1.3c0.1,0.7-0.2,1.5-0.8,1.9c-0.6,0.3-1.4,0.3-2-0.2
		c-0.5-0.4-0.6-1-0.5-1.6c0.1-0.4,0.3-0.7,0.7-0.9c0.2-0.1,0.4-0.1,0.4-0.1c-0.3,0.3-0.6,0.6-0.7,1.1c-0.1,0.4,0.1,0.9,0.4,1.2
		c0.4,0.3,1,0.4,1.5,0.1c0.4-0.3,0.7-0.8,0.6-1.4c-0.1-0.4-0.4-0.8-0.8-1C344.6,230.5,344.2,230.4,343.7,230.4z"/>
	<path class="st11" d="M393.4,300.3c-0.1,0.1-2.1-1.7-5-3.4s-5.5-2.5-5.4-2.7c2,0.4,4,1.1,5.7,2.2
		C390.5,297.4,392.1,298.7,393.4,300.3z"/>
	<path class="st3" d="M316.3,111.6l-20.5,9.9l8.8,61.7l-3.5,27.7c-0.5,3.6,0.9,7.1,3.6,9.5l0,0l33.1-0.6L361,207l10.6-1.8l-4.4-21.1
		l2-29.9l24.2,12.9c1.9,1,4,1.3,6.1,0.7l44.4-11.5l-2.3-17.1l-40.2,4.6l-30.6-27.1l-22.8-5.1l-4-6.7h-23.3l-1.7,1.2
		c-0.8,0.6-1.4,1.4-1.7,2.3L316.3,111.6z"/>
	<path class="st3" d="M295.8,121.5c-4.3,2.9-7.5,7.1-9.2,12c-2.3,7.3-7.6,36.7-7.6,36.7l-23.3-14.4l-13.4,14.1l31,27.4
		c4.8,4.2,11.6,5.1,17.3,2.4l0,0c4.8-2.3,8.1-6.8,8.8-12.1l3.8-27.9L295.8,121.5z"/>
	<polygon class="st7" points="365.7,209.7 364.3,207.6 348.9,210.4 346.1,216.9 	"/>
	<path class="st3" d="M304.7,220.4c13.7,5.5,28.3,3.5,41.4-3.4c3.9-2.1,7.6-4.7,11.6-6.7s8.3-3.6,12.8-3.3s8.9,2.8,10.7,6.9
		s0,9.6-4.2,11.2l1.5,1.3c6.1-2.9,9.1-11.1,6.1-17.2c-2.3-4.7-7.1-7.4-10.7-11.3c-5.2-5.6-5.8-16.4-5.8-24.9"/>
	<path class="st10" d="M334.8,123.5c-0.3,0-0.7,0-1,0c-0.9,0.1-1.8,0.5-2.4,1.1c-0.9,1.1-1.3,2.5-1.2,3.9c0,1.8,0.4,3.6,1.1,5.3
		l0.4,0.9l-0.8-0.6c-1.9-1.4-3.6-2.9-5.2-4.6c-3.4-3.5-6.1-7.6-7.9-12.2c-0.5-1.4-1-2.8-1.3-4.2c-0.1-0.5-0.2-1.1-0.2-1.6
		c0.5,1.9,1.1,3.8,1.9,5.7c1.9,4.4,4.6,8.5,8,11.9c1.6,1.6,3.3,3.2,5.1,4.5l-0.4,0.3c-0.4-0.9-0.7-1.8-0.9-2.8
		c-0.2-0.9-0.2-1.8-0.2-2.6c-0.1-1.5,0.4-3,1.4-4.1c0.7-0.7,1.6-1.1,2.6-1.1C334.1,123.4,334.5,123.4,334.8,123.5z"/>
	<path class="st3" d="M336,123.5c1.7-0.7,4.2,0.3,5.4,1.7c0.8,0.9,1.3,2.2,2.3,2.8c1,0.6,4.4,1.1,5.4,0.3c0,0,0.6-2.8,0.9-4
		c1.1-4.5,1.9-9.1,2.3-13.7c-3.2-1.6-2.3-3.6-8.1-3.2c0.8,2.7,0.9,5.5,0.2,8.2"/>
	<path class="st10" d="M344.3,115.6c-0.1,0,0.2-0.8,0.3-2.2c0.1-2-0.1-4-0.7-5.9l-0.1-0.2h0.2c1.4-0.2,2.9-0.1,4.3,0.4
		c0.8,0.3,1.4,0.8,2,1.4c0.6,0.6,1.3,1,2,1.4l0.2,0.1v0.2c-0.3,2.4-0.6,5.1-1,7.8c-0.3,1.8-0.7,3.5-1.1,5.2
		c-0.4,1.7-0.8,3.2-1.1,4.7v0.1l-0.1,0.1c-0.5,0.3-1.1,0.4-1.7,0.4c-0.5,0-1.1,0-1.6-0.1c-0.5-0.1-1-0.2-1.5-0.3
		c-0.5-0.1-0.9-0.4-1.3-0.7c-0.6-0.7-1.1-1.4-1.5-2.1c-0.4-0.6-1-1.1-1.6-1.4c-0.9-0.6-1.9-0.9-2.9-0.9c-0.4,0-0.7,0.1-1.1,0.2
		c0.3-0.2,0.7-0.3,1.1-0.3c1.1,0,2.1,0.2,3,0.8c0.7,0.4,1.2,0.9,1.7,1.5c0.4,0.7,1,1.4,1.5,2c0.8,0.5,1.7,0.9,2.6,0.9
		c0.5,0.1,1,0.1,1.5,0.1c0.5,0,1-0.1,1.4-0.3l-0.1,0.1c0.3-1.5,0.7-3.1,1.1-4.8s0.8-3.4,1.1-5.1c0.5-2.7,0.8-5.4,1-7.8l0.1,0.3
		c-0.8-0.4-1.5-0.9-2.2-1.5c-0.5-0.6-1.1-1-1.8-1.4c-1.3-0.4-2.7-0.6-4.1-0.4l0.2-0.3c0.6,2,0.8,4,0.6,6.1c-0.1,0.6-0.2,1.1-0.3,1.6
		C344.5,115.3,344.4,115.4,344.3,115.6z"/>
	<path class="st10" d="M378.5,210c0,0,0-0.4,0-1.1c-0.1-1.1-0.4-2.2-1-3.1c-0.9-1.5-2.2-2.7-3.7-3.6c-2-1.1-4.3-1.7-6.6-1.8
		c-2.5-0.2-5.4-0.1-8.4-0.3c-3.2-0.2-6.4-0.9-9.5-2c-3.4-1.3-6.3-3.5-8.5-6.4c-1.1-1.5-2-3.3-2.4-5.1c-0.5-1.9-0.7-3.9-0.6-5.8
		c0.1-4,1.1-7.7,1.6-11.4c0.5-3.5,0.9-7,1-10.6c0.3-10.1-1.2-20.1-4.3-29.7c-0.4-1.4-0.8-2.4-1.1-3.1c-0.1-0.3-0.2-0.6-0.3-0.8
		c0-0.1-0.1-0.2-0.1-0.3c0,0,0,0.1,0.1,0.3c0.1,0.2,0.2,0.5,0.3,0.8c0.3,0.7,0.7,1.7,1.2,3.1c1.3,3.8,2.4,7.8,3.1,11.8
		c1.1,5.9,1.6,12,1.4,18c-0.1,3.6-0.4,7.1-1,10.6c-0.5,3.7-1.4,7.4-1.6,11.3c-0.3,3.8,0.7,7.5,2.9,10.6c2.1,2.8,5,5,8.3,6.2
		c3,1.1,6.1,1.8,9.3,2c3,0.2,5.8,0.1,8.4,0.4c2.4,0.1,4.7,0.8,6.7,2c1.5,0.9,2.8,2.2,3.7,3.7c0.6,1,0.9,2.1,0.9,3.2
		c0,0.3,0,0.6,0,0.9C378.5,209.9,378.5,210,378.5,210z"/>
	<path class="st10" d="M363.5,191.8c-0.3,0.4-0.7,0.8-1.1,1.2c-0.4,0.4-0.9,0.8-1.4,1.3s-1.2,1.1-2,1.6c-1.8,1.4-3.6,2.7-5.5,3.8
		c-4.7,2.8-9.8,5-15.2,6.4c-2.2,0.6-4.4,1-6.6,1.3c-1,0.1-1.8,0.2-2.6,0.3s-1.4,0.1-2,0.1c-0.6,0-1.1,0-1.7,0
		c0.5-0.1,1.1-0.2,1.6-0.2c0.5,0,1.2-0.1,1.9-0.2s1.6-0.2,2.5-0.3c2.2-0.3,4.4-0.8,6.5-1.4c2.6-0.7,5.2-1.6,7.7-2.6
		c2.5-1.1,4.9-2.3,7.3-3.7c1.9-1.1,3.8-2.4,5.6-3.7c0.8-0.6,1.4-1.1,2-1.6s1.1-0.9,1.5-1.2C362.6,192.5,363.1,192.1,363.5,191.8z"/>
	<path class="st10" d="M357.1,159c0,0.2,0,0.4-0.1,0.6l-0.4,1.6c-0.2,0.8-0.4,1.6-0.7,2.4c-0.3,0.9-0.6,2-1.1,3.2
		c-0.2,0.6-0.5,1.2-0.7,1.8s-0.6,1.3-0.9,1.9c-0.6,1.4-1.3,2.7-2.1,4.2c-3.5,6.2-8.1,11.8-13.7,16.3c-1.3,1-2.5,2-3.7,2.8
		c-0.6,0.4-1.2,0.8-1.8,1.2l-1.7,1c-1,0.7-2.1,1.1-3,1.6c-0.7,0.4-1.5,0.8-2.3,1.1l-1.5,0.6c-0.2,0.1-0.3,0.1-0.5,0.2
		c0.2-0.1,0.3-0.2,0.5-0.3l1.4-0.7c0.6-0.3,1.4-0.7,2.2-1.1s1.9-1,2.9-1.7l1.6-1c0.6-0.4,1.1-0.8,1.7-1.2c1.2-0.8,2.4-1.8,3.7-2.8
		c2.7-2.3,5.2-4.8,7.5-7.5c2.2-2.7,4.3-5.6,6.1-8.7c0.8-1.4,1.6-2.8,2.1-4.1c0.3-0.7,0.6-1.3,0.9-1.9l0.7-1.8
		c0.5-1.1,0.8-2.2,1.1-3.1s0.6-1.7,0.8-2.4l0.4-1.5C356.9,159.4,357,159.2,357.1,159z"/>
	<path class="st10" d="M314.9,225.4c-0.7-0.3-1.3-0.8-1.8-1.4c-2.7-2.6-4.2-6.2-4.2-9.9c0-0.8,0.1-1.5,0.3-2.3c0.1,0,0,0.9,0.1,2.2
		c0.2,3.6,1.6,7,4.1,9.7C314.3,224.8,315,225.3,314.9,225.4z"/>
	<path class="st10" d="M314.2,217.6c0.1,0-0.1,1.3,0,2.9s0.6,2.8,0.5,2.9C313.5,221.6,313.3,219.5,314.2,217.6L314.2,217.6z"/>
	<path class="st10" d="M304.3,181.8c-0.1-0.1-0.1-0.3-0.1-0.5c-0.1-0.4-0.1-0.8-0.3-1.4c-0.2-1.3-0.5-3-0.8-5
		c-0.7-4.2-1.7-10.1-2.9-16.5s-2.4-12.2-3.2-16.5c-0.4-2-0.8-3.7-1-5c-0.1-0.5-0.2-1-0.3-1.4c0-0.2-0.1-0.3-0.1-0.5
		c0.1,0.1,0.1,0.3,0.2,0.5c0.1,0.4,0.2,0.8,0.3,1.3c0.3,1.2,0.7,2.9,1.2,4.9c1,4.2,2.2,10,3.4,16.4c1.2,6.4,2.1,12.3,2.7,16.5
		c0.3,2.1,0.5,3.9,0.7,5c0.1,0.6,0.1,1,0.1,1.4C304.4,181.4,304.4,181.6,304.3,181.8z"/>
	<path class="st10" d="M368.3,181.8c0-0.2,0-0.3,0-0.5c0-0.4,0-0.9,0-1.4c0-1.2,0-3,0-5.2c0-4.4,0.2-10.5,0.8-17.2
		s1.2-12.8,1.7-17.1c0.3-2.1,0.5-3.9,0.7-5.2c0.1-0.6,0.1-1,0.2-1.4c0-0.2,0-0.3,0.1-0.5c0,0.2,0,0.3,0,0.5c0,0.4-0.1,0.9-0.1,1.4
		c-0.1,1.3-0.3,3.1-0.5,5.2c-0.4,4.4-1,10.4-1.5,17.1s-0.8,12.8-0.9,17.2c-0.1,2.1-0.1,3.9-0.1,5.2l0,1.4
		C368.4,181.5,368.4,181.6,368.3,181.8z"/>
	<path class="st10" d="M288.4,184.4c-0.2,0.1-1.5-3.6-4-7.5s-5.6-6.4-5.4-6.6c0.7,0.4,1.4,1,2,1.6c1.5,1.4,2.8,3,3.9,4.7
		c1.1,1.7,2,3.5,2.8,5.4C288,182.7,288.2,183.5,288.4,184.4z"/>
	<path class="st10" d="M290.1,180c-0.4-0.6-0.8-1.3-1.1-2c-0.9-1.5-2.1-2.9-3.5-4c-1.4-1.1-2.9-2.1-4.6-2.8c-0.7-0.3-1.4-0.6-2-1
		c0.8,0.1,1.5,0.3,2.2,0.6c1.7,0.7,3.3,1.6,4.8,2.7c1.4,1.2,2.6,2.6,3.5,4.3C289.7,178.5,289.9,179.2,290.1,180z"/>
	<path class="st12" d="M300.4,156c0,0,0,0.2-0.2,0.4c-0.2,0.4-0.5,0.8-0.9,1.1c-1.4,1.1-3.2,1.6-4.9,1.3c-2.6-0.5-4.8-2.1-6.2-4.4
		c-0.8-1.3-1.5-2.6-2-4c-0.3-0.7-0.6-1.5-0.8-2.3c-0.3-0.8-0.4-1.7-0.3-2.5c0.1-0.9,0.5-1.7,1.2-2.3c0.7-0.5,1.6-0.7,2.5-0.4
		c1.5,0.4,2.8,1.6,3.3,3.1c0.5,1.4,0.3,2.9-0.4,4.1c-0.7,1.1-1.7,1.8-2.9,2.2c-1,0.3-2,0.2-3-0.1c-0.7-0.3-1.3-0.7-1.8-1.3
		c-0.3-0.3-0.6-0.7-0.8-1.2c-0.1-0.3-0.2-0.5-0.1-0.5c0.3,0.5,0.6,1.1,1.1,1.5c0.5,0.5,1.1,0.9,1.8,1.1c0.9,0.3,1.9,0.3,2.8,0.1
		c1.1-0.4,2-1.1,2.6-2.1c0.7-1.1,0.8-2.5,0.3-3.7c-0.5-1.4-1.6-2.4-3-2.8c-0.7-0.2-1.4-0.1-2,0.4c-0.6,0.5-0.9,1.2-1,1.9
		c-0.2,1.6,0.5,3.1,1,4.5c0.5,1.4,1.2,2.7,2,4c1.3,2.2,3.4,3.7,5.8,4.3c1.7,0.3,3.4-0.1,4.7-1.1C299.6,157,300,156.5,300.4,156z"/>
	<path class="st12" d="M339.7,171.3l-0.3,0.2c-0.2,0.2-0.5,0.4-0.8,0.6c-1.1,0.8-2.2,1.5-3.4,2.2c-0.9,0.4-1.8,0.8-2.8,0.9
		c-1.2,0.2-2.4,0.1-3.5-0.2c-2.7-1.1-4.9-3-6.3-5.6c-3.9-6.6-3.9-14.8,0.2-21.3c1.1-1.9,2.7-3.4,4.7-4.4c1.1-0.5,2.2-0.6,3.4-0.4
		c1.2,0.2,2.3,0.8,3,1.7c0.7,1,1.1,2.2,0.9,3.4c-0.1,1.2-0.5,2.4-1.1,3.4c-1.3,2.1-3.3,3.7-5.6,4.5c-2.3,0.8-4.7,1.1-7.1,0.7
		c-2.3-0.4-4.5-1.3-6.4-2.7c-3.5-2.7-6.2-6.4-7.6-10.6c-0.8-1.9-1.1-4-0.9-6.1c0.2-1,0.6-2,1.2-2.8c0.6-0.8,1.5-1.4,2.4-1.6
		c1.9-0.3,3.8,0.3,5,1.7c1.1,1.3,1.6,3.1,1.2,4.8c-0.3,1.5-1,2.9-2,4c-1,1-2.1,1.7-3.4,2.2c-2,0.8-4.2,1.1-6.4,1
		c-1.3-0.1-2.7-0.2-4-0.4l-1.1-0.2l-0.3-0.1h0.4l1,0.1c0.9,0.1,2.3,0.3,4,0.3c2.1,0.1,4.3-0.2,6.2-1c1.2-0.5,2.3-1.2,3.3-2.2
		c1-1.1,1.7-2.4,1.9-3.9c0.3-1.6-0.1-3.2-1.1-4.5c-1.2-1.3-2.9-1.9-4.6-1.6c-1.8,0.5-3.1,2.1-3.3,4c-0.2,2,0.1,4,0.9,5.8
		c1.4,4.1,4,7.7,7.4,10.4c1.8,1.3,4,2.2,6.2,2.6c2.3,0.4,4.7,0.1,6.9-0.7c2.2-0.8,4.1-2.3,5.3-4.3c0.6-1,0.9-2.1,1-3.2
		c0.1-1.1-0.2-2.2-0.8-3.1c-0.7-0.8-1.6-1.4-2.7-1.5c-1-0.2-2.1,0-3.1,0.4c-1.9,0.9-3.4,2.4-4.5,4.2c-2.1,3.3-3.2,7.2-3.1,11.1
		c0.1,3.4,1,6.8,2.8,9.7c1.3,2.5,3.5,4.4,6.1,5.5c2,0.6,4.2,0.4,6.1-0.6c1.2-0.6,2.4-1.3,3.5-2.1l0.9-0.6
		C339.4,171.4,339.6,171.4,339.7,171.3z"/>
	<path class="st12" d="M312.1,115.2c-0.1,0.3-0.2,0.6-0.3,0.9c-0.4,0.8-0.8,1.5-1.3,2.3c-3.3,4.8-9,7.5-14.8,7.1
		c-0.9-0.1-1.7-0.2-2.6-0.4c-0.3-0.1-0.6-0.2-0.9-0.3c0-0.1,1.3,0.3,3.5,0.4c5.7,0.2,11.1-2.4,14.5-6.9
		C311.5,116.4,312,115.2,312.1,115.2z"/>
	<path class="st12" d="M326.9,119.5c-1,0.3-2,0.8-2.8,1.4c-0.8,0.7-1.4,1.6-1.8,2.6c-0.1,0-0.1-0.4,0.1-1c0.6-1.6,1.9-2.7,3.5-3
		C326.5,119.3,326.9,119.4,326.9,119.5z"/>
	<path class="st12" d="M348,125.3c-0.3-0.1-0.6-0.2-0.9-0.4c-0.7-0.5-1.4-1-1.9-1.7c-0.8-1-1.3-2.3-1.4-3.5
		c-0.1-0.8,0.2-1.6,0.6-2.3c0.5-0.8,1.4-1.2,2.3-1c0.9,0.2,1.6,0.9,1.8,1.8c0.3,0.8,0.1,1.7-0.5,2.3c-0.9,1.1-2.3,1.5-3.6,1
		c-0.8-0.3-1.5-0.9-2-1.6c-0.2-0.3-0.3-0.5-0.4-0.9c0,0,0.2,0.3,0.5,0.7c0.5,0.6,1.2,1.1,1.9,1.4c1.1,0.4,2.4,0,3.1-0.9
		c0.4-0.5,0.6-1.2,0.4-1.8c-0.2-0.7-0.8-1.2-1.5-1.4c-0.7-0.1-1.4,0.2-1.8,0.8c-0.4,0.6-0.6,1.2-0.5,1.9c0.1,1.2,0.5,2.4,1.2,3.4
		C346.2,123.9,347.1,124.7,348,125.3z"/>
	<path class="st12" d="M352,113.7c-1-0.9-2.1-1.7-3.3-2.3c-1.3-0.4-2.6-0.7-4-0.7c0-0.1,0.4-0.2,1.2-0.3c1-0.1,2.1,0.1,3,0.5
		c0.9,0.4,1.8,1,2.5,1.7C351.9,113.2,352.1,113.7,352,113.7z"/>
	<path class="st12" d="M379.5,125.3c0,0-0.1,0.1-0.2,0.1l-0.6,0.3c-0.5,0.3-1.3,0.6-2.4,1c-3,1.1-6.2,1.7-9.4,1.8
		c-1.1,0-2.1-0.1-3.2-0.3c-1.2-0.2-2.2-0.8-3.1-1.5c-1-0.9-1.5-2.1-1.5-3.4c0-1.4,0.5-2.7,1.3-3.8c2.1-2.2,5.2-2.9,8-2
		c3,0.8,5.4,3.2,6.4,6.2c0.9,3,0.2,6.3-1.9,8.7c-2,2.1-4.6,3.5-7.4,4c-2.5,0.5-5,0.7-7.6,0.8c-2.2,0-4.4,0.3-6.5,0.6
		c-3.1,0.5-6,2.1-8.1,4.6c-0.7,0.9-1.2,2-1.5,3.1c0-0.1,0-0.2,0-0.2c0-0.1,0.1-0.4,0.2-0.7c0.3-0.8,0.7-1.6,1.2-2.3
		c2-2.6,4.9-4.3,8.1-4.8c2.2-0.4,4.4-0.7,6.6-0.7c2.5,0,5-0.3,7.5-0.8c2.7-0.5,5.2-1.9,7.1-3.9c2-2.2,2.6-5.3,1.8-8.2
		c-0.9-2.8-3.1-5-6-5.8c-2.6-0.9-5.5-0.1-7.5,1.9c-0.8,1-1.2,2.2-1.2,3.4c0,1.2,0.5,2.3,1.4,3.1c0.9,0.7,1.9,1.2,3,1.5
		c1,0.2,2.1,0.3,3.1,0.3c3.2,0,6.3-0.6,9.4-1.6c1.1-0.4,1.9-0.7,2.4-0.9C379,125.6,379.2,125.4,379.5,125.3z"/>
	<path class="st12" d="M354.6,164.6c-0.1,0-0.4-0.8-1.4-2c-2.4-3.1-6.4-4.6-10.2-3.8c-1.5,0.3-2.3,0.7-2.3,0.6
		c0.7-0.5,1.4-0.8,2.3-1c4-1,8.3,0.6,10.6,4C354,163,354.4,163.8,354.6,164.6z"/>
	<path class="st12" d="M366.2,172.1c-0.3,0.8-0.8,1.5-1.4,2c-2.9,3-7.6,3.4-11,0.9c-0.7-0.4-1.3-1.1-1.7-1.8
		c0.1-0.1,0.6,0.7,1.9,1.5c1.6,1,3.5,1.5,5.4,1.4c1.9-0.2,3.7-1,5.1-2.2C365.7,172.9,366.2,172.1,366.2,172.1z"/>
	<path class="st12" d="M369.3,152.3c0,0.1-0.6-0.3-1.7-0.6c-2.8-0.8-5.8,0.2-7.7,2.4c-0.7,0.9-1,1.5-1.1,1.5
		c0.1-0.6,0.4-1.2,0.8-1.7c1.8-2.6,5.1-3.6,8.1-2.6C368.3,151.5,368.8,151.8,369.3,152.3z"/>
	<path class="st12" d="M406.5,143.1c0.1,0.2,0.1,0.5,0.2,0.7c0.1,0.3,0.1,0.6,0.1,0.9c0,0.4,0,0.8,0,1.3c-0.1,2.7-1.1,5.3-2.9,7.4
		c-1.2,1.5-2.6,2.7-4.3,3.6c-1.9,1-4.1,1.5-6.2,1.4c-5-0.1-9.7-2.4-12.9-6.4c-0.8-1-1.4-2.2-1.8-3.5c-0.4-1.2-0.3-2.6,0.1-3.8
		c0.4-1.2,1.2-2.2,2.3-2.9c1.1-0.5,2.3-0.7,3.5-0.4c1.1,0.2,2.2,0.8,3,1.6c0.7,0.8,1.3,1.7,1.6,2.7c0.6,1.8,0.5,3.8,0,5.6
		c-0.5,1.5-1.3,2.9-2.4,4c-0.8,0.8-1.7,1.6-2.8,2.1c-0.6,0.3-1.3,0.6-2,0.8c-0.2,0.1-0.5,0.1-0.8,0.1c0.9-0.3,1.8-0.7,2.7-1.1
		c2.3-1.3,4-3.5,4.9-6c0.6-1.7,0.6-3.6,0-5.3c-0.3-0.9-0.8-1.8-1.5-2.5c-0.8-0.7-1.7-1.2-2.7-1.4c-1.1-0.2-2.2-0.1-3.2,0.4
		c-1,0.6-1.8,1.5-2.1,2.6c-0.4,1.1-0.4,2.4,0,3.5c0.4,1.2,0.9,2.3,1.7,3.3c3,3.8,7.6,6.1,12.4,6.2c4,0.1,7.8-1.6,10.3-4.7
		c1.7-2,2.7-4.6,3-7.2C406.8,145,406.7,144,406.5,143.1z"/>
	<path class="st12" d="M414.3,163.8c-0.2-0.2-0.4-0.4-0.6-0.7c-0.5-0.7-0.9-1.4-1.1-2.3c-0.3-1.2-0.4-2.5-0.1-3.7
		c0.2-1.5,0.6-3,1-4.4c0.9-2.6,2.1-5.1,3.6-7.4c0.6-0.9,1-1.6,1.4-2.1c0.2-0.3,0.4-0.5,0.6-0.7c-0.5,1-1,2-1.6,3
		c-1.4,2.3-2.5,4.8-3.4,7.3c-0.4,1.4-0.7,2.9-1,4.3c-0.2,1.2-0.2,2.4,0,3.6C413.2,161.8,413.7,162.8,414.3,163.8z"/>
	<path class="st12" d="M433.2,140.8c0.1,0.2,0.2,0.5,0.3,0.7c0.2,0.7,0.4,1.4,0.5,2.1c0.8,4.7-0.3,9.5-3,13.4
		c-0.4,0.6-0.8,1.1-1.3,1.6c-0.4,0.4-0.5,0.6-0.6,0.5s0.7-0.9,1.6-2.4c1.2-1.9,2.1-4.1,2.6-6.3c0.5-2.2,0.6-4.5,0.3-6.8
		C433.4,141.8,433.1,140.8,433.2,140.8z"/>
	<path class="st12" d="M367.8,187.5c-0.2-0.1-0.3-0.1-0.4-0.2c-0.4-0.2-0.8-0.5-1.2-0.7c-1.5-0.7-3.2-1.2-4.9-1.4
		c-2.5-0.2-5,0.2-7.3,1.2c-1.4,0.6-2.6,1.4-3.7,2.4c-0.6,0.5-1.1,1.1-1.4,1.8c-0.4,0.7-0.6,1.4-0.5,2.2c0.1,0.7,0.5,1.4,1.1,1.9
		c0.6,0.4,1.4,0.4,2,0.1c1.3-0.7,2-2.1,1.9-3.5c-0.1-2.5-1.5-4.8-3.7-6c-1.5-0.8-3.2-1-4.9-0.6c-0.6,0.2-1.2,0.3-1.8,0.6
		c0.1-0.1,0.3-0.2,0.4-0.3c0.4-0.2,0.9-0.4,1.3-0.5c1.7-0.5,3.5-0.3,5.1,0.5c2.4,1.2,3.9,3.7,4,6.3c0,0.8-0.1,1.5-0.4,2.3
		c-0.3,0.8-0.9,1.4-1.7,1.7c-0.8,0.4-1.8,0.3-2.5-0.1c-0.7-0.5-1.2-1.3-1.3-2.3c-0.1-0.9,0.1-1.8,0.6-2.5c0.4-0.7,0.9-1.4,1.5-1.9
		c1.1-1.1,2.4-1.9,3.8-2.5c2.4-1,5-1.4,7.6-1.1c1.7,0.2,3.4,0.7,4.9,1.6c0.4,0.2,0.8,0.5,1.2,0.8
		C367.6,187.4,367.8,187.5,367.8,187.5z"/>
	<path class="st12" d="M371.4,195.8c-0.2,0.8-0.7,1.6-1.2,2.3c-0.8,1.2-1.5,2.1-1.6,2c0.2-0.8,0.7-1.6,1.2-2.3
		C370.5,196.6,371.3,195.7,371.4,195.8z"/>
	<path class="st12" d="M384.1,210.1c-0.1,0-0.2-0.4-0.6-0.9c-0.9-1.4-2.4-2.2-4.1-2.3c-0.6,0-1,0.1-1,0s0.4-0.3,1-0.3
		c1.8-0.1,3.6,0.8,4.4,2.4C384.1,209.7,384.1,210.1,384.1,210.1z"/>
	<path class="st12" d="M342.8,205c0,0.1-1.2,0.7-3.1,1.8c-2.5,1.4-4.8,3.1-6.8,5.3c-1.9,2.1-3.2,4.8-3.6,7.6
		c-0.1,1.2-0.1,2.4,0.1,3.6c-0.1-0.3-0.2-0.6-0.3-0.9c-0.2-0.9-0.2-1.8-0.1-2.7c0.3-3,1.6-5.7,3.6-7.9c2-2.2,4.4-3.9,7-5.2
		c1-0.5,1.8-0.9,2.4-1.1C342.1,205.2,342.4,205.1,342.8,205z"/>
	<path class="st12" d="M357.5,209.9c0,0-0.6-0.3-1.1-1.2c-1.3-2.4-1.1-5.3,0.6-7.5c0.3-0.4,0.8-0.8,1.3-1c0.1,0.1-0.4,0.4-1,1.2
		c-1.4,2.1-1.7,4.8-0.6,7.1C357.1,209.4,357.5,209.8,357.5,209.9z"/>
	<path class="st12" d="M334.5,191.8c0,0-0.2-0.2-0.6-0.6c-0.6-0.5-1.3-0.8-2.1-0.9c-1.2-0.2-2.4,0.1-3.5,0.7
		c-1.4,0.9-2.5,2.1-3.3,3.5c-1,1.5-1.8,3.4-3.1,5.1c-1.3,1.9-3.3,3.4-5.5,4.1c-2.5,0.8-5.2,0.7-7.6-0.4c-2.6-1.2-4.6-3.3-5.6-5.9
		c-0.5-1.3-0.6-2.8-0.2-4.2c0.5-1.3,1.4-2.5,2.6-3.2c1.1-0.7,2.5-1,3.9-0.9c1.3,0.2,2.5,0.8,3.4,1.6c1.8,1.6,2.7,3.9,2.7,6.3
		c0,2-0.7,4-1.9,5.7c-0.9,1.4-2.2,2.5-3.6,3.4c-1.1,0.6-2.2,1.1-3.4,1.5c-0.8,0.2-1.5,0.4-2.3,0.5l-0.6,0.1h-0.2
		c0.3-0.1,0.5-0.1,0.8-0.2c0.8-0.1,1.5-0.3,2.3-0.6c1.2-0.4,2.3-0.9,3.3-1.6c1.4-0.9,2.6-2,3.5-3.4c1.1-1.6,1.7-3.5,1.7-5.5
		c0-2.3-0.9-4.4-2.6-5.9c-0.9-0.8-2-1.3-3.2-1.5c-1.2-0.1-2.5,0.2-3.5,0.8c-1.1,0.7-1.9,1.7-2.4,2.9c-0.4,1.3-0.3,2.6,0.2,3.9
		c1,2.5,2.9,4.5,5.3,5.6c2.3,1.1,4.8,1.2,7.2,0.4c2.1-0.7,4-2.1,5.3-3.9c1.3-1.7,2.1-3.5,3.1-5.1c0.9-1.4,2.1-2.7,3.5-3.6
		c1.1-0.7,2.4-0.9,3.7-0.7c0.8,0.1,1.5,0.5,2.1,1C334.2,191.3,334.4,191.5,334.5,191.8z"/>
	<path class="st12" d="M334.8,207.4c-0.6-0.3-1.2-0.7-1.6-1.3c-2.3-2.5-3.3-5.9-2.8-9.3c0.1-0.7,0.3-1.4,0.6-2c0.1,0-0.1,0.8-0.3,2
		c-0.3,3.2,0.6,6.5,2.7,9C334.3,206.8,334.9,207.3,334.8,207.4z"/>
	<path class="st12" d="M338.5,184.3c0,0-0.7-0.3-2-0.9c-4.6-1.8-9.6-2.2-14.4-1.1c-1.7,0.4-3.3,1-4.8,1.8c-0.8,0.4-1.3,1.1-1.6,1.9
		c-0.2,0.8,0.2,1.6,1,2c0.4,0.1,0.7,0,1-0.3c0.3-0.3,0.5-0.7,0.6-1.1c0.2-0.9,0.3-1.8,0.2-2.7c-0.1-1.7-0.5-3.4-1.3-4.9
		c-0.7-1.4-1.6-2.6-2.8-3.6c-1-0.9-2.2-1.5-3.5-2c-1.9-0.7-3.8-0.9-5.8-0.6c-1.4,0.2-2.1,0.5-2.1,0.5c0.2-0.1,0.3-0.2,0.5-0.2
		c2.4-0.9,5.1-0.9,7.5,0c1.3,0.4,2.6,1.1,3.6,2c1.2,1,2.3,2.3,3,3.7c0.8,1.6,1.3,3.3,1.4,5.1c0.1,0.9,0,1.9-0.2,2.8
		c-0.1,0.5-0.4,1-0.7,1.3c-0.4,0.4-1,0.6-1.6,0.4c-0.5-0.2-1-0.6-1.2-1.1c-0.2-0.5-0.3-1-0.2-1.5c0.3-1,0.9-1.8,1.8-2.2
		c1.6-0.8,3.2-1.4,5-1.8c2.9-0.7,5.9-0.8,8.9-0.3c2,0.3,3.9,0.9,5.7,1.7c0.5,0.2,1,0.5,1.5,0.8C338.3,184.2,338.5,184.3,338.5,184.3
		z"/>
	<path class="st12" d="M260.6,187.2c0,0,0.6-0.5,1.6-1.5c1.4-1.4,2.5-3.1,3.1-5c1.1-2.7,1-5.8-0.3-8.5c-0.7-1.5-1.8-2.9-3.2-3.9
		c-1.4-1.1-3.2-1.8-5-1.9c-0.9,0-1.8,0.2-2.6,0.6c-0.8,0.3-1.4,1-1.8,1.8c-0.3,0.8-0.1,1.6,0.4,2.3c0.5,0.7,1.1,1.2,1.9,1.4
		c1.5,0.4,3.1,0.1,4.3-0.7c1.1-0.7,2-1.8,2.6-3c0.8-1.8,1.2-3.8,1.3-5.7c0-0.7,0-1.2,0.1-1.6c0-0.2,0-0.4,0.1-0.6c0,0.2,0,0.4,0,0.6
		c0,0.4,0,0.9,0,1.6c0.1,2.1-0.3,4.1-1.1,6c-0.6,1.3-1.5,2.4-2.7,3.2c-1.4,1-3.1,1.3-4.7,0.8c-0.9-0.3-1.6-0.8-2.2-1.6
		c-0.6-0.8-0.7-1.8-0.4-2.8c0.4-0.9,1.1-1.7,2-2.1c0.9-0.4,1.9-0.6,2.9-0.6c1.9,0.1,3.8,0.8,5.3,2c1.4,1.1,2.6,2.5,3.3,4.1
		c0.7,1.5,1,3.1,1,4.7c0,1.4-0.3,2.8-0.8,4.1c-0.7,1.9-1.9,3.6-3.4,5c-0.4,0.4-0.8,0.7-1.3,1C260.8,187.1,260.6,187.2,260.6,187.2z"
		/>
	<path class="st12" d="M281.3,202.1c-0.3-0.2-0.6-0.5-0.8-0.8c-0.7-0.8-1.2-1.7-1.7-2.6c-3.4-6.2-2.9-13.8,1.3-19.6
		c0.6-0.8,1.3-1.6,2-2.4c0.3-0.3,0.6-0.5,0.9-0.7c0.1,0.1-1.2,1.1-2.6,3.3c-3.9,5.7-4.4,13-1.3,19.2
		C279.8,199.7,280.5,200.9,281.3,202.1z"/>
	<path class="st12" d="M300.8,180.3c-0.1,0-0.5-1.5-1.8-3.7c-3.3-5.8-9.1-9.7-15.8-10.4c-2.5-0.3-4.1-0.1-4.1-0.2
		c0.4-0.1,0.7-0.2,1.1-0.2c1-0.1,2-0.1,3,0c6.9,0.5,12.9,4.5,16.1,10.6c0.5,0.9,0.9,1.8,1.2,2.8
		C300.7,179.6,300.8,179.9,300.8,180.3z"/>
	<g class="st6">
		<path d="M328.2,208.3c-1,0.4-0.9,1.9-0.1,2.6c0.9,0.6,2,0.8,3,0.6c11.9-0.7,22.9-6.8,29.6-16.6c-9,7.4-20.9,10.2-32.3,12.8"/>
	</g>
	<g class="st6">
		<path d="M326.4,198.1c-1-1.5-0.3-3.6,1-4.9c1.4-1.2,2.9-2.1,4.6-2.8c5.9-2.9,10.7-7.8,13.5-13.8c1.8-3.9,3.2-8.8,7.2-10.4
			c-2.3,14.2-12.2,25.9-25.7,30.7"/>
	</g>
	<g class="st6">
		<path d="M298,146.2c1,10.9,0.2,22-2.3,32.7c-0.7,2.2-1,4.6-1.1,6.9c0.2,2.5,1.4,4.9,3.3,6.5c1.7-3.8,1.7-7.5,2.4-11.6
			c0.6-3.7,1.7-12.4,1.7-12.5c0.2-7.6-1.6-14.1-4.6-20.9"/>
	</g>
	<g class="st6">
		<path d="M316.8,113.4c1.5,8.1,5.5,15.5,11.3,21.2c2.2,2.1,5,4.1,8.1,4c-1.8-3.7-2.3-7.8-1.6-11.8c2.6,1.8,5.4,3.3,8.2,4.5
			c2.9,1.2,6.1,1.6,9.2,1l1.9-16.5c0.1-0.6,0.1-1.3-0.2-1.9c-0.3-0.5-0.9-0.7-1.4-0.5c-0.1,0-0.1,0.1-0.2,0.1
			c-0.2,0.2-0.3,0.5-0.3,0.7c-1.1,4.8-1.8,9.2-2.9,14.1c-0.8,0.8-3.3,0.5-4.9-0.1c-1.4-0.5-2-1.7-2.9-2.9s-0.8-1-2.2-1.6
			c-2.6-1.1-7.5-0.2-8.6,2.1c-1.1,2.3-0.3,5.4,0.5,7.6c-7.2-4.7-12.4-11.9-14.6-20.2"/>
	</g>
	<g class="st6">
		<path d="M371.4,136.9c-0.2,0.4,6.2,22.1,6.2,22.1l-8.3-4.8L371.4,136.9z"/>
	</g>
	<path class="st7" d="M319.6,74v34.5c0,2,0.7,3.9,2,5.4l0,0c1.9,2.3,4.3,4.3,6.9,5.7l7,3.9l5.8-5.2c1.7-1.5,2.7-3.6,2.8-5.9
		c0.1-2.5,0.1-5,0.1-5s9.8-0.7,10.7-10.3c0.4-4.5,0.6-13.8,0.6-22.4c0.1-9.8-7.5-18.1-17.3-18.8h-0.3c-9.9-0.2-18.1,7.6-18.3,17.5
		C319.6,73.6,319.6,73.8,319.6,74z"/>
	<path class="st8" d="M344.1,107.4c-4.4-0.4-8.7-2-12.2-4.8c0,0,2.5,7.3,12.2,7.2L344.1,107.4z"/>
	<path class="st10" d="M352.5,80.9c-0.1,0.7-0.7,1.3-1.4,1.3c-0.7,0-1.3-0.6-1.3-1.3c0,0,0,0,0,0c0.1-0.7,0.7-1.3,1.4-1.3
		C351.9,79.6,352.5,80.2,352.5,80.9C352.5,80.9,352.5,80.9,352.5,80.9z"/>
	<path class="st10" d="M352.9,78.6c-0.2,0.2-1.2-0.7-2.6-0.8s-2.6,0.5-2.8,0.3c-0.1-0.2,0.1-0.4,0.6-0.7c0.7-0.4,1.5-0.6,2.2-0.5
		c0.8,0.1,1.5,0.4,2.1,0.9C352.9,78.2,353,78.6,352.9,78.6z"/>
	<path class="st10" d="M338.6,80.2c-0.1,0.7-0.7,1.3-1.4,1.3c-0.7,0-1.3-0.6-1.3-1.3c0,0,0,0,0,0c0.1-0.7,0.7-1.3,1.4-1.3
		C338,78.9,338.6,79.5,338.6,80.2C338.6,80.2,338.6,80.2,338.6,80.2z"/>
	<path class="st10" d="M338.4,77.7c-0.2,0.2-1.2-0.7-2.6-0.8s-2.6,0.5-2.8,0.3c-0.1-0.2,0.1-0.4,0.6-0.7c0.7-0.4,1.5-0.6,2.2-0.5
		c0.8,0.1,1.5,0.4,2.1,0.9C338.3,77.3,338.4,77.6,338.4,77.7z"/>
	<path class="st10" d="M342.8,89.1c0.8-0.2,1.6-0.3,2.4-0.2c0.4,0,0.8,0,0.8-0.3c0.1-0.4,0-0.8-0.2-1.1c-0.3-1-0.6-1.9-0.9-3
		c-1.2-4.2-2-7.7-1.9-7.7s1.3,3.3,2.5,7.6c0.3,1,0.6,2,0.8,3c0.2,0.5,0.2,1,0.1,1.5c-0.1,0.3-0.4,0.4-0.7,0.5c-0.2,0-0.4,0-0.6,0
		C344.4,89.3,343.6,89.3,342.8,89.1z"/>
	<path class="st10" d="M338.4,89.8c0.2,0,0.1,1.6,1.4,2.9c1.3,1.3,3,1.2,3,1.4s-0.4,0.3-1.1,0.3c-0.9-0.1-1.8-0.5-2.5-1.1
		c-0.7-0.6-1-1.5-1.1-2.4C338,90.2,338.3,89.8,338.4,89.8z"/>
	<path class="st10" d="M339.2,71.9c-0.2,0.4-1.6,0.1-3.4,0.1s-3.2,0.4-3.4,0c-0.1-0.2,0.2-0.5,0.8-0.9c1.6-0.8,3.5-0.9,5.2-0.1
		C339,71.4,339.3,71.7,339.2,71.9z"/>
	<path class="st10" d="M352.7,74.3c-0.3,0.3-1.3-0.1-2.5-0.2c-1.2-0.1-2.3,0-2.5-0.3c-0.1-0.2,0.1-0.5,0.6-0.8
		c1.3-0.7,2.9-0.5,4,0.5C352.8,73.8,352.9,74.1,352.7,74.3z"/>
	<path class="st10" d="M330.9,64.3L330.9,64.3c-1.7,1.1-2.9,2.8-3.3,4.7v0.2c-0.6,2.7-0.8,5.5-1.4,8.2s-0.5,4.8-3.2,5.4
		c-1.5,0.3-3-0.3-3.8-1.5c-0.2-0.4-0.3-0.8-0.3-1.3c0-6.7-1.3-9.3-0.7-16.2c0.2-1.9,1.2-3.6,2.8-4.6c1.5-0.9,3.4-1.9,5-1
		s3.4,4.1,4.5,5.5"/>
	<path class="st7" d="M322.5,78.6c-0.1-0.1-6.4-2.5-6.8,4.1s6.4,5.6,6.4,5.4C322.1,87.9,322.5,78.6,322.5,78.6z"/>
	<path class="st8" d="M320.2,85.5c0,0-0.1,0.1-0.3,0.2c-0.3,0.1-0.6,0.1-0.9,0c-0.8-0.6-1.3-1.6-1.2-2.6c0-0.6,0.2-1.1,0.4-1.6
		c0.1-0.4,0.5-0.7,0.9-0.8c0.3-0.1,0.6,0.1,0.7,0.3c0.1,0.2,0,0.3,0.1,0.3s0.2-0.1,0.1-0.4c0-0.2-0.1-0.3-0.2-0.4
		c-0.2-0.1-0.4-0.2-0.6-0.2c-0.6,0.1-1,0.5-1.3,1c-0.3,0.6-0.5,1.2-0.5,1.8c-0.1,1.2,0.5,2.4,1.5,2.9c0.4,0.1,0.7,0.1,1.1-0.1
		C320.2,85.6,320.2,85.5,320.2,85.5z"/>
	<path class="st10" d="M325.7,59.2c-1.4-2.8,3.4-6.2,6.7-6.9s7.5,1.2,10.6,2.5c2,0.8,3.9,2,6.1,2c1.4,0,2.9-0.3,4.3-0.7
		c1.4-0.4,2.8-0.6,4.3-0.5c1.5,0.2,2.8,1.1,3.3,2.5c0.4,1.3-0.3,2.7-1.6,3.1c-0.1,0-0.3,0.1-0.4,0.1c1.6-0.7,3.6,0,4.3,1.6
		c0.7,1.6,0,3.6-1.6,4.3c-0.7,0.3-1.5,0.4-2.3,0.1c1-0.6,2.3,0.7,2.1,1.8c-0.4,1.1-1.3,2-2.5,2.3c-2.9,1-6,0.3-8.8-0.9
		s-5.3-2.9-8-4.2s-7.3-3.5-10.2-2.7c-2.2,0.6-3.8,3-4.9,2.3c-1.1-0.7-1.7-1.8-1.8-3.1C325.2,61.7,325.4,60.5,325.7,59.2"/>
	<path class="st11" d="M359.8,61.3c0,0-0.4,0.5-1.1,1.2c-1.1,1-2.4,1.7-3.9,2.1c-2.1,0.6-4.4,0.3-6.3-0.8c-2.1-1.2-3.9-3.3-6-5.4
		c-1.9-2.1-4.4-3.5-7.1-4.2c-2.3-0.5-4.7,0.1-6.5,1.7c-1.2,1.1-1.8,2.6-1.8,4.1c0,0.4,0.1,0.8,0.2,1.2c0,0.1,0.1,0.3,0.2,0.4
		c-0.1-0.5-0.1-1.1-0.1-1.6c0.1-1.5,0.8-2.8,1.9-3.8c1.7-1.4,3.9-1.9,6.1-1.4c2.6,0.6,5,2,6.8,4c2,2,3.8,4.3,6.1,5.5
		c3.5,1.8,7.8,1.2,10.6-1.6c0.3-0.3,0.6-0.6,0.8-1C359.8,61.4,359.9,61.3,359.8,61.3z"/>
	<path class="st11" d="M320.8,78.2c0,0,0.3-0.2,0.6-0.7c0.4-0.7,0.6-1.5,0.5-2.4c0-2.1-1.7-4.6-1.7-7.5c-0.1-1.4,0.3-2.7,1.1-3.9
		c0.6-0.9,1.6-1.6,2.6-1.9c0.7-0.2,1.5-0.3,2.2-0.1c0.5,0.1,0.8,0.3,0.8,0.2c0,0-0.2-0.3-0.8-0.5c-0.8-0.3-1.6-0.3-2.4-0.1
		c-1.2,0.3-2.3,1-3,2c-0.9,1.2-1.3,2.7-1.2,4.2c0.1,1.5,0.4,2.9,0.9,4.3c0.5,1,0.8,2.2,0.9,3.3C321.6,76.2,321.4,77.3,320.8,78.2z"
		/>
</g>
<g id="freepik--Lines--inject-6">
	<path class="st3" d="M348,268.9h-1.5l-4.4,0.1c-3.8,0.1-9.5,0.2-16.8,0.6s-16.2,1-26.5,2.2c-5.1,0.6-10.6,1.3-16.4,2.3
		c-5.8,1-11.9,2.1-18.2,3.5s-13,3.2-19.7,5.4c-7,2.2-13.9,5.1-20.4,8.4c-3.4,1.8-6.7,3.9-9.8,6.3c-3.2,2.4-5.9,5.4-8,8.8
		c-0.3,0.4-0.5,0.9-0.7,1.3l-0.6,1.4l-0.3,0.7c-0.1,0.2-0.1,0.5-0.2,0.7l-0.4,1.5c-0.3,2-0.2,4.1,0.3,6.1c1,4,3.6,7.5,6.7,10.5
		c6.3,5.9,14.3,10,22.5,13.4c8.5,3.4,17.3,6.2,26.3,8.3c18.8,4.4,38,7.2,57.3,8.4c19.3,1.3,38.7,1.4,58,0.2c18-1,35.9-3.3,53.6-7
		c8.2-1.7,16.3-3.9,24.3-6.5c7.5-2.4,14.8-5.6,21.7-9.5c3.2-1.9,6.3-4.1,9.1-6.5c2.8-2.3,5-5.2,6.6-8.4l0.5-1.2
		c0.2-0.4,0.3-0.8,0.4-1.2l0.3-1.3c0-0.2,0.1-0.4,0.1-0.6v-0.6c0.2-1.7,0.1-3.4-0.4-5c-0.5-1.6-1.2-3.1-2.1-4.5
		c-0.9-1.4-2-2.6-3.1-3.8c-2.2-2.2-4.7-4.3-7.3-6c-2.5-1.7-5.1-3.2-7.8-4.6c-4.9-2.6-9.9-4.8-15.1-6.7c-8.3-3.1-16.8-5.7-25.4-7.8
		c-7.1-1.8-12.6-2.9-16.4-3.6c-1.9-0.4-3.3-0.6-4.3-0.8l-1.5-0.3c0,0,2,0.3,5.8,1s9.3,1.8,16.4,3.5c8.6,2.1,17.1,4.7,25.4,7.7
		c5.2,1.9,10.3,4.2,15.2,6.7c2.7,1.4,5.3,2.9,7.8,4.6c2.7,1.8,5.1,3.8,7.4,6.1c1.2,1.2,2.2,2.5,3.1,3.9c0.9,1.4,1.7,3,2.2,4.6
		c0.5,1.7,0.6,3.5,0.4,5.2l0,0.7c0,0.2-0.1,0.4-0.1,0.6l-0.3,1.3c-0.1,0.4-0.2,0.9-0.4,1.3l-0.5,1.3c-1.6,3.3-3.9,6.2-6.7,8.6
		c-2.9,2.5-5.9,4.7-9.2,6.6c-6.9,3.9-14.2,7.1-21.8,9.5c-8,2.6-16.1,4.8-24.3,6.6c-17.7,3.7-35.6,6-53.6,7
		c-19.3,1.2-38.7,1.1-58.1-0.2c-19.3-1.2-38.6-4-57.4-8.5c-9-2.1-17.8-4.9-26.3-8.3c-8.3-3.5-16.3-7.6-22.7-13.5
		c-3.1-3-5.8-6.5-6.8-10.7c-0.5-2.1-0.6-4.2-0.3-6.3l0.4-1.5c0.1-0.3,0.1-0.5,0.2-0.8l0.3-0.7l0.6-1.4c0.2-0.5,0.5-0.9,0.8-1.4
		c2.1-3.5,4.9-6.5,8.1-8.9c3.1-2.4,6.4-4.5,9.9-6.3c6.6-3.4,13.5-6.2,20.5-8.4c6.8-2.2,13.4-3.9,19.8-5.4s12.5-2.6,18.3-3.5
		s11.3-1.6,16.4-2.3c10.3-1.1,19.2-1.8,26.5-2.1c7.3-0.3,13-0.4,16.8-0.5L348,268.9L348,268.9z"/>
	<path class="st3" d="M266.3,193.1c0,0-0.6,0.1-1.7,0.4s-2.8,0.5-4.9,1c-4.3,0.9-10.7,2.3-18.8,4.5c-9.9,2.6-19.5,6.1-28.8,10.2
		c-2.7,1.2-5.5,2.6-8.3,4.2c-2.9,1.6-5.6,3.4-8.3,5.3c-2.8,2-5.4,4.4-7.7,7c-2.4,2.7-4.2,6-5.2,9.5c-1,3.7-0.7,7.7,0.8,11.2
		c1.6,3.7,4,7,6.9,9.7c5.9,5.7,13.4,10,21.4,13.7c16.1,7.3,34.5,12.2,54,15.9c20.5,3.7,41.2,6,62,6.8c22.3,1,44.7,0.6,67-1.2
		c22.9-1.9,45.1-5.3,66.1-10.8c10.3-2.6,20.3-6.1,30.1-10.3c4.7-2.1,9.2-4.5,13.5-7.2c4.3-2.6,8.1-5.9,11.4-9.7
		c3.2-3.7,5.5-8.3,5.7-13.1c0-0.6,0-1.2-0.1-1.8c0-0.6-0.1-1.2-0.2-1.8l-0.4-1.7c-0.2-0.6-0.3-1.1-0.6-1.7c-0.9-2.2-2-4.3-3.4-6.1
		c-2.9-3.6-6.3-6.8-10.2-9.4c-3.7-2.5-7.6-4.8-11.6-6.8c-7.7-3.7-15.6-6.8-23.8-9.3c-7.8-2.4-15.5-4.4-22.8-6
		c-23.3-4.9-46.9-7.9-70.6-9c-8.4-0.4-14.9-0.4-19.4-0.6l-5-0.1l-1.7-0.1c0,0,0.6,0,1.7,0l5,0.1c4.4,0.1,11,0.1,19.4,0.5
		c23.8,1,47.4,4,70.7,8.9c7.4,1.6,15,3.6,22.9,6c8.2,2.5,16.2,5.6,23.9,9.3c4.1,2,8,4.2,11.7,6.7c3.9,2.6,7.3,5.8,10.3,9.4
		c1.5,1.9,2.6,4,3.5,6.3c0.2,0.6,0.4,1.1,0.6,1.7l0.4,1.8c0.1,0.6,0.2,1.2,0.2,1.8c0.1,0.6,0.1,1.2,0.1,1.8
		c-0.1,2.5-0.7,4.9-1.7,7.2c-1,2.3-2.4,4.4-4,6.3c-3.4,3.8-7.3,7.1-11.6,9.8c-4.4,2.8-8.9,5.2-13.6,7.3c-9.8,4.3-19.8,7.7-30.1,10.4
		c-21,5.5-43.3,8.9-66.1,10.8c-22.3,1.8-44.7,2.2-67,1.2c-20.8-0.9-41.5-3.2-62-6.9c-19.6-3.7-38-8.6-54.1-16
		c-8-3.7-15.6-8-21.5-13.8c-3-2.8-5.4-6.1-7-9.8c-1.5-3.6-1.8-7.6-0.8-11.4c1-3.6,2.8-6.9,5.3-9.6c2.3-2.6,4.9-5,7.7-7.1
		c2.7-1.9,5.4-3.7,8.3-5.3c2.8-1.6,5.6-2.9,8.3-4.2c9.4-4.1,19-7.5,28.9-10.1c8.1-2.2,14.5-3.6,18.9-4.4S266.3,193.1,266.3,193.1z"
		/>
	<path class="st3" d="M301.3,344l-5,0.8c-3.3,0.5-8.1,1.4-14.2,2.7c-7.5,1.6-14.8,3.7-22,6.2c-4.5,1.6-8.9,3.5-13.1,5.7
		c-2.3,1.2-4.5,2.6-6.6,4.1c-2.2,1.6-4.3,3.4-6.1,5.4c-0.9,1.1-1.7,2.2-2.4,3.5c-0.7,1.2-1.2,2.6-1.5,4c-0.1,0.4-0.1,0.7-0.2,1.1
		l-0.1,1.1c0,0.7,0.1,1.5,0.2,2.2c0.2,0.7,0.3,1.5,0.6,2.2l0.4,1l0.2,0.5l0.3,0.5c1.5,2.7,3.6,5.1,6,7.1c2.5,2.1,5.2,3.9,8.1,5.4
		c6,3.2,12.3,5.9,18.8,7.9c6.9,2.2,13.9,4,21,5.4c15.3,3,30.7,4.8,46.3,5.5c16.7,0.8,33.4,0.5,50-0.9c17.1-1.5,33.7-4.1,49.3-8.5
		c7.7-2.1,15.1-4.9,22.2-8.5c3.4-1.7,6.7-3.8,9.6-6.2c0.8-0.6,1.4-1.3,2.1-1.9s1.3-1.4,1.9-2.1c1.2-1.4,2.1-3,2.8-4.8
		c1.4-3.4,1.2-7.3-0.4-10.5c-1.7-3.1-4.1-5.8-6.9-8c-5.5-4.4-11.8-7.3-17.9-9.8c-5.9-2.3-12-4.3-18.2-5.8
		c-5.9-1.5-11.7-2.7-17.2-3.7c-17.5-3-35.2-4.6-53-4.9l-19.5-0.1c0,0,6.9-0.1,19.5,0c17.8,0.2,35.5,1.8,53,4.8
		c5.5,1,11.3,2.2,17.3,3.7c6.2,1.6,12.3,3.5,18.3,5.9c6.1,2.5,12.4,5.4,18,9.8c2.9,2.2,5.3,4.9,7,8.1c1.7,3.4,1.9,7.3,0.5,10.8
		c-0.7,1.7-1.7,3.4-2.9,4.8c-0.6,0.7-1.2,1.4-1.9,2.1s-1.4,1.3-2.1,1.9c-3,2.4-6.3,4.5-9.7,6.3c-7.1,3.5-14.6,6.4-22.3,8.5
		c-16.1,4.4-32.7,7.2-49.3,8.5c-16.6,1.4-33.4,1.7-50.1,0.9c-15.5-0.7-31-2.6-46.3-5.5c-7.1-1.4-14.1-3.2-21-5.4
		c-6.5-2-12.9-4.7-18.9-7.9c-2.9-1.5-5.6-3.4-8.1-5.5c-2.5-2-4.5-4.4-6.1-7.1l-0.3-0.5l-0.2-0.5l-0.4-1.1c-0.3-0.7-0.4-1.5-0.6-2.2
		s-0.2-1.5-0.2-2.3l0.1-1.1c0-0.4,0.1-0.7,0.2-1.1c0.3-1.4,0.8-2.8,1.5-4.1c0.7-1.3,1.5-2.4,2.4-3.5c1.8-2.1,3.9-3.9,6.1-5.5
		c2.1-1.5,4.4-2.9,6.7-4.1c4.2-2.2,8.6-4.1,13-5.7c7.2-2.5,14.6-4.6,22.1-6.2c6.1-1.3,11-2.1,14.2-2.6
		C299.6,344.2,301.3,344,301.3,344z"/>
	<path class="st3" d="M431.9,435.5c-0.1-1.3-0.3-2.5-0.8-3.6c-0.9-2.3-3.4-5.1-7.3-7.7c-7.9-5.2-21-9.5-37.5-12.2
		c-9-1.4-18.1-2.3-27.2-2.7c-10.5-0.4-21-0.2-31.5,0.6c-5.5,0.4-11.2,1.1-16.9,2c-5.9,0.9-11.6,2.1-17.4,3.7
		c-2.9,0.8-5.8,1.7-8.7,2.7c-2.9,1-5.7,2.3-8.5,3.7c-2.8,1.4-5.4,3.2-7.7,5.3c-2.3,2.1-4.1,5-4.2,8.2s1.9,6.1,4.2,8.2
		c2.3,2.1,4.8,3.9,7.6,5.3c2.7,1.4,5.6,2.7,8.5,3.7c2.9,1.1,5.8,2,8.7,2.8c5.7,1.5,11.5,2.8,17.4,3.7c5.7,0.9,11.4,1.5,16.9,2
		c10.5,0.8,21,1,31.5,0.6c9.2-0.4,18.3-1.3,27.3-2.7c16.5-2.7,29.7-7,37.5-12.2c3.9-2.6,6.4-5.4,7.3-7.7
		C431.6,438,431.9,436.7,431.9,435.5c0,0.1,0,0.4-0.1,0.9c0,0.4-0.1,0.8-0.2,1.2c-0.1,0.5-0.3,1-0.5,1.5c-0.9,2.3-3.4,5.2-7.3,7.8
		c-7.9,5.2-21,9.6-37.5,12.3c-9,1.4-18.2,2.3-27.3,2.7c-10.5,0.4-21,0.3-31.5-0.6c-5.5-0.4-11.2-1.1-16.9-2
		c-5.9-0.9-11.7-2.1-17.4-3.7c-2.9-0.8-5.8-1.7-8.7-2.8c-2.9-1-5.8-2.3-8.5-3.7c-2.8-1.4-5.4-3.2-7.7-5.4c-1.2-1.1-2.2-2.4-2.9-3.8
		c-1.7-2.8-1.7-6.4,0-9.2c0.8-1.4,1.8-2.7,3-3.7c2.3-2.1,4.9-3.9,7.7-5.4c2.8-1.4,5.6-2.7,8.5-3.7c2.9-1.1,5.8-2,8.7-2.8
		c5.7-1.5,11.5-2.8,17.4-3.7c5.7-0.9,11.4-1.5,16.9-2c10.5-0.8,21-1,31.5-0.6c9.1,0.3,18.3,1.2,27.3,2.7c16.5,2.7,29.7,7,37.5,12.3
		c3.9,2.6,6.4,5.5,7.3,7.8c0.2,0.5,0.4,1,0.5,1.5c0.1,0.4,0.2,0.8,0.2,1.2C431.9,435.1,431.9,435.3,431.9,435.5z"/>
	<path class="st3" d="M211,280.4c0,1.8-1.4,3.2-3.2,3.2c-1.8,0-3.2-1.4-3.2-3.2c0-1.8,1.4-3.2,3.2-3.2
		C209.6,277.2,211,278.6,211,280.4C211,280.4,211,280.4,211,280.4z"/>
	<circle class="st3" cx="496.5" cy="282.5" r="3.2"/>
	<path class="st3" d="M369.5,400.2c0,1.8-1.4,3.2-3.2,3.2c-1.8,0-3.2-1.4-3.2-3.2c0-1.8,1.4-3.2,3.2-3.2c0,0,0,0,0,0
		C368.1,397,369.5,398.4,369.5,400.2L369.5,400.2z"/>
	<path class="st3" d="M272.5,318.1c0,0.9-0.7,1.6-1.6,1.6c-0.9,0-1.6-0.7-1.6-1.6c0-0.9,0.7-1.6,1.6-1.6
		C271.8,316.5,272.5,317.2,272.5,318.1L272.5,318.1z"/>
	<path class="st3" d="M471.1,356.8c0,0.9-0.7,1.6-1.6,1.6c-0.9,0-1.6-0.7-1.6-1.6c0-0.9,0.7-1.6,1.6-1.6c0,0,0,0,0,0
		C470.3,355.2,471.1,355.9,471.1,356.8z"/>
	<path class="st3" d="M345,430.6c0,0.9-0.7,1.6-1.6,1.6c-0.9,0-1.6-0.7-1.6-1.6c0-0.9,0.7-1.6,1.6-1.6c0,0,0,0,0,0
		C344.3,429,345,429.8,345,430.6z"/>
	<circle class="st3" cx="261.7" cy="151.2" r="0.8"/>
</g>
<g id="freepik--front-screens--inject-6">
	<path class="st3" d="M405.6,274c-38.8,10.3-76.1,9.5-116.9,0l-4.8-74.5c42.1,8.2,84.3,7.1,121.6-1.8L405.6,274z"/>
	<g class="st4">
		<path class="st5" d="M405.6,274c-38.8,10.3-76.1,9.5-116.9,0l-4.8-74.5c42.1,8.2,84.3,7.1,121.6-1.8L405.6,274z"/>
	</g>
	<path class="st3" d="M399.6,262.6c-0.1,0.1-0.2,0.1-0.3,0.1l-0.7,0.3c-0.6,0.3-1.6,0.7-2.8,1.1c-3.5,1.3-7.1,2.4-10.7,3.4
		c-12,3-24.4,4.4-36.8,4.2c-12.4-0.2-24.7-1.6-36.9-3.9c-4.7-0.9-8.4-1.7-11-2.3c-1.3-0.3-2.3-0.5-3-0.7l-0.8-0.2
		c-0.2,0-0.3-0.1-0.3-0.1h0.3l0.8,0.1l3,0.6c2.6,0.5,6.4,1.3,11,2.1c12.1,2.3,24.5,3.5,36.8,3.8c12.4,0.2,24.7-1.1,36.7-4
		c4.6-1.2,8.3-2.3,10.8-3.2c1.3-0.4,2.2-0.8,2.9-1l0.8-0.3C399.4,262.7,399.5,262.7,399.6,262.6z"/>
	<path class="st3" d="M342.7,265.7c-4.9,1.3-10.1,1.2-14.9-0.5v-26.5c4.9-1,10-1,14.9,0V265.7z"/>
	<path class="st3" d="M366.8,264.1c0-0.1,0-0.1,0-0.2c0-0.1,0-0.3,0-0.6c0-0.5,0-1.3-0.1-2.2c0-2-0.1-4.7-0.2-8.2
		c-0.1-7-0.3-16.9-0.4-28.3l0.2,0.2c-5.1-1-10.3-1-15.4,0l0.2-0.3v0.5c0.2,15.7,0.3,29.8,0.4,39.9l-0.1-0.2c2.1,0.5,4.3,0.7,6.5,0.8
		c1.6,0,3.3-0.1,4.9-0.4c1-0.2,2-0.5,3-0.8l0.8-0.3C366.6,264.1,366.7,264.1,366.8,264.1l-0.2,0.1l-0.8,0.3c-1,0.4-2,0.7-3,0.9
		c-1.6,0.3-3.3,0.5-5,0.5c-2.2,0-4.4-0.3-6.6-0.7h-0.1V265c-0.1-10.1-0.4-24.2-0.6-39.9v-0.8h0.2c5.2-1,10.5-1,15.6,0l0.2,0.1v0.2
		c0.1,11.5,0.2,21.4,0.2,28.4c0,3.5,0,6.2,0,8.2c0,0.9,0,1.6,0,2.2c0,0.2,0,0.4,0,0.6S366.8,264.1,366.8,264.1z"/>
	<path class="st3" d="M389.7,261c-4,2.2-9.3,2.5-14.9,2.1v-43.8c4.9-1.2,10-1.2,14.9,0V261z"/>
	<path class="st3" d="M319,263.5c0,0,0-0.4,0-1.1c-0.1-0.7,0-1.8-0.1-3.1c0-2.7-0.1-6.4-0.1-10.7l0.1,0.2c-4.6-1.8-9.5-2.7-14.4-2.4
		l0,0l0.2-0.3c0,5.5,0,10.6,0,14.9l-0.1-0.2c1.9,0.8,3.8,1.3,5.8,1.6c1.8,0.3,3.3,0.5,4.6,0.6l3,0.3
		C318.4,263.4,318.7,263.5,319,263.5c-0.3,0-0.6,0-1,0c-0.7,0-1.7,0-3-0.1s-2.9-0.2-4.6-0.5c-2-0.3-4-0.8-5.9-1.6l-0.1-0.1v-0.1
		c0-4.4,0-9.5,0-14.9v-0.2h0.3c5-0.3,10,0.6,14.6,2.5l0.2,0.1v0.2c0,4.4-0.1,8.2-0.1,10.9c0,1.3,0,2.3-0.1,3
		C319.2,262.8,319.1,263.2,319,263.5z"/>
	<path class="st3" d="M326,224.8c-1,0.2-1.9,0.2-2.9,0.2c-1.8,0-4.3,0-7.1-0.2s-5.2-0.4-7-0.7c-1-0.1-1.9-0.3-2.9-0.5
		c1,0,1.9,0,2.9,0.2c1.8,0.1,4.3,0.3,7,0.5c2.7,0.2,5.2,0.3,7,0.3C324,224.6,325,224.7,326,224.8z"/>
	<path class="st3" d="M323.8,228.1c-0.9,0.1-1.7,0.1-2.6,0c-1.6-0.1-3.8-0.2-6.2-0.4s-4.6-0.4-6.2-0.6c-0.9,0-1.7-0.2-2.5-0.4
		c0.9-0.1,1.7-0.1,2.6,0c1.6,0.1,3.8,0.2,6.2,0.4c2.4,0.2,4.6,0.4,6.1,0.6C322.1,227.7,322.9,227.8,323.8,228.1z"/>
	<path class="st3" d="M329.2,232.3c0,0,0-0.3,0-0.9s0.1-1.5,0.1-2.6c0.1-2.3,0.3-5.4,0.4-9.4l0.2,0.2c-9.2,0.1-18.5-0.4-27.6-1.5
		l0.3-0.2l0,0v0.4v0.4l0,0.8c0,0.6-0.1,1.1-0.1,1.7c-0.1,1.1-0.1,2.2-0.2,3.3c-0.1,2.1-0.3,4.2-0.4,6.2l-0.2-0.3
		c8,1,14.9,1.4,19.8,1.6l5.7,0.2l1.5,0.1L329.2,232.3c-0.1,0-0.3,0-0.5-0.1c-0.3,0-0.9,0-1.6,0.1c-1.3,0-3.3,0-5.7,0
		c-4.9-0.1-11.8-0.5-19.8-1.4h-0.2v-0.2c0.1-2,0.2-4.1,0.4-6.2c0.1-1.1,0.1-2.2,0.2-3.3l0.1-1.7v-0.8v-0.4v-0.4l0,0l0.3-0.2
		c9.2,1.1,18.4,1.7,27.7,1.7h0.2v0.2c-0.3,3.9-0.5,7.2-0.7,9.4c-0.1,1.1-0.1,1.9-0.2,2.5C329.3,231.7,329.3,232,329.2,232.3z"/>
	<path class="st3" d="M332.6,237.9c-0.8-0.8-1.4-1.7-1.9-2.7c-0.7-0.9-1.2-1.9-1.5-2.9c0.8,0.8,1.4,1.7,1.9,2.7
		C331.8,235.9,332.3,236.9,332.6,237.9z"/>
	<path class="st3" d="M170.6,141l12.7,76.7c0,0,19.4,36.2,70.8,44.4l-8.3-68.4C245.8,193.6,198.2,178.9,170.6,141z"/>
	<g class="st4">
		<path class="st5" d="M170.6,141l12.7,76.7c0,0,19.4,36.2,70.8,44.4l-8.3-68.4C245.8,193.6,198.2,178.9,170.6,141z"/>
	</g>
	<path class="st3" d="M247.4,256.6l-0.3-0.1l-1-0.3l-3.6-1.1c-1.6-0.5-3.5-1-5.7-1.9l-3.5-1.3c-1.3-0.5-2.6-1-3.9-1.6
		c-2.7-1.2-5.6-2.5-8.7-4.2s-6.2-3.5-9.5-5.6c-7.1-4.6-13.5-10.2-19.1-16.6c-2.6-3-4.9-6.2-6.9-9.6l0,0l0,0l-5.8-37.5
		c-0.7-4.7-1.3-8.4-1.7-11.1l-0.4-3l-0.1-0.8c0-0.1,0-0.2,0-0.3c0,0.1,0.1,0.2,0.1,0.3l0.2,0.8l0.5,3c0.4,2.6,1,6.4,1.8,11
		c1.5,9.4,3.6,22.5,6,37.5v-0.1c1.9,3.4,4.2,6.6,6.8,9.5c5.6,6.3,12,11.9,19,16.5c3.3,2.1,6.4,4.1,9.5,5.6c3.1,1.6,5.9,3,8.6,4.2
		c1.3,0.6,2.6,1.2,3.9,1.6l3.5,1.4c2.1,0.9,4.1,1.4,5.6,2l3.6,1.2l0.9,0.3C247.3,256.5,247.3,256.6,247.4,256.6z"/>
	<path class="st3" d="M242.9,234.3c0,0,0,0.1-0.2,0.2l-0.6,0.4l-2.1,1.7l-8.1,6.2l-0.1,0.1l-0.1-0.1c-2.7-3.8-6.1-8.4-9.9-13.7
		l0.3,0.1l-7.6,5.4l-0.3,0.2l-0.1-0.3c-3-8-6.3-17-9.8-26.5l-1.4-3.8h0.5l-6.2,12.2l-0.3,0.5l-0.2-0.6c-5.4-15.5-9.9-28.6-12.9-37.1
		h0.3c-0.8,3.4-1.4,6.1-1.9,8c-0.2,0.9-0.4,1.6-0.5,2.1l-0.1,0.5c0,0.1,0,0.1-0.1,0.2v-0.2c0-0.1,0.1-0.3,0.1-0.5l0.4-2.1
		c0.4-1.9,1-4.6,1.8-8l0.1-0.5l0.2,0.5c3,8.5,7.6,21.6,13.1,37.1h-0.5l6.2-12.2l0.3-0.5l0.2,0.6l1.4,3.8c3.5,9.5,6.8,18.5,9.7,26.5
		l-0.4-0.1l7.6-5.4l0.2-0.1l0.1,0.2l9.8,13.7h-0.2l8.2-6.1l2.2-1.6l0.6-0.4L242.9,234.3z"/>
	<path class="st3" d="M241.1,197.6c-0.4,0-0.7-0.1-1.1-0.2c-0.7-0.2-1.7-0.5-2.9-0.9c-3.1-1-6.2-2.3-9.2-3.6c-3-1.4-6-2.9-8.8-4.5
		c-1.1-0.6-2-1.2-2.6-1.6c-0.3-0.2-0.6-0.4-0.9-0.6c0.4,0.1,0.7,0.3,1,0.5l2.6,1.4c2.2,1.2,5.3,2.8,8.9,4.4s6.8,2.9,9.1,3.8
		c1.1,0.4,2,0.8,2.8,1C240.5,197.2,240.8,197.4,241.1,197.6z"/>
	<path class="st3" d="M243.2,200.7c-0.8,0-1.7-0.2-2.5-0.4c-2-0.5-3.9-1.1-5.8-1.7c-1.9-0.7-3.8-1.5-5.6-2.4
		c-0.8-0.3-1.5-0.7-2.2-1.2c0.8,0.2,1.6,0.5,2.4,0.9c1.4,0.6,3.4,1.4,5.6,2.2s4.3,1.4,5.8,1.9C241.6,200.1,242.4,200.4,243.2,200.7z
		"/>
	<path class="st3" d="M222.9,229.1c0,0.6-0.4,1.1-0.9,1.1s-0.9-0.5-0.9-1.1s0.4-1.1,0.9-1.1S222.9,228.5,222.9,229.1z"/>
	<ellipse class="st3" cx="203.3" cy="204.9" rx="0.9" ry="1.1"/>
	<path class="st3" d="M185.1,179.6c0,0.6-0.4,1.1-0.9,1.1s-0.9-0.5-0.9-1.1s0.4-1.1,0.9-1.1C184.8,178.4,185.1,178.9,185.1,179.6z"
		/>
	<path class="st3" d="M506,154.6l-6.4,77.9c0,0-18.6,33.3-69.6,34.6l6.3-78.4C436.3,188.7,480.9,186.9,506,154.6z"/>
	<path class="st3" d="M505,150.6c-1.7-5.4-5.7-13.1-15.3-14.7l-11.3,104.8c0,0,21.3-4.3,21.9-15.9c0-1,4.3-53.1,5.4-66
		C506,156,505.7,153.2,505,150.6z"/>
	<g class="st4">
		<path class="st5" d="M506,154.6l-6.4,77.9c0,0-18.6,33.3-69.6,34.6l6.3-78.4C436.3,188.7,480.9,186.9,506,154.6z"/>
	</g>
	<path class="st3" d="M504.5,174.5c-5.1,7.4-7.9,16.2-8.1,25.2c0,2.6,0.1,5.3-0.9,7.6s-3.5,4.4-6,3.7s-3.8-3.8-6-5.2
		c-2.1-1.2-4.8-1.1-6.9,0.1c-2,1.3-3.6,3.2-4.5,5.5c-1.9,4.3-2,9.1-3.3,13.5s-4.7,8.9-9.4,9.1c-1.7,0.1-3.4-0.4-5.1-0.4
		c-3.6,0.1-6.7,2.8-8.4,6s-2.2,6.8-2.7,10.4c0,0,27.2,2.6,57.8-33.5L504.5,174.5z"/>
	<path class="st3" d="M461.2,221.8c0,1-0.5,1.8-1.1,1.8s-1.1-0.8-1.1-1.8s0.5-1.8,1.1-1.8S461.2,220.8,461.2,221.8z"/>
	<path class="st3" d="M474,189.4c0,1-0.5,1.8-1.1,1.8s-1.1-0.8-1.1-1.8s0.5-1.8,1.1-1.8S474,188.4,474,189.4z"/>
	<path class="st3" d="M503.8,178.3c0,0.2-0.1,0.3-0.2,0.4l-0.6,1.3c-0.5,1.1-1.3,2.7-2.2,4.8l-8.1,16.9l-0.1,0.2l-0.2-0.1
		l-19.3-12.2l0.4-0.1c-0.3,0.6-0.5,1.3-0.8,2l-12.4,30.4l-0.1,0.2l-0.2-0.1c-4.8-2.7-8.7-4.9-11.4-6.4c-1.4-0.7-2.4-1.3-3.2-1.7
		l-0.8-0.4l-0.3-0.1c1.5,0.5,3,1.2,4.4,2c2.8,1.4,6.7,3.5,11.5,6.2l-0.3,0.1l12.3-30.5c0.3-0.7,0.5-1.3,0.8-2l0.1-0.3l0.3,0.2
		l19.2,12.2l-0.3,0.1c3.4-6.9,6.3-12.7,8.3-16.8l2.4-4.7l0.6-1.2C503.7,178.5,503.8,178.4,503.8,178.3z"/>
</g>
</svg>
